<?xml version="1.0" standalone="no"?>
<!DOCTYPE svg PUBLIC "-//W3C//DTD SVG 1.1//EN" "http://www.w3.org/Graphics/SVG/1.1/DTD/svg11.dtd" >
<svg xmlns="http://www.w3.org/2000/svg">
<metadata></metadata>
<defs>
<font id="adobe_caslon_probold" horiz-adv-x="1024" >
<font-face units-per-em="2048" ascent="1505" descent="-543" />
<missing-glyph horiz-adv-x="409" />
<glyph unicode="&#xfb03;" horiz-adv-x="1777" d="M27 774l8 72q2 14 24 14h113v62q0 247 168 405q83 76 170 108.5t203 32.5q72 0 131.5 -25.5t91.5 -62.5h6q79 70 162 99q86 30 205 30q131 0 204.5 -41.5t73.5 -113.5q0 -47 -41.5 -84t-103.5 -37q-51 0 -82.5 24t-71.5 78q-51 66 -110 66q-40 0 -64.5 -13.5t-48.5 -52.5 q-11 -16 -17 -42t-7.5 -67t-1 -76.5t1.5 -99t1 -104.5v-86h275q70 0 172 8q27 2 66 7.5t47 5.5q24 0 20 -25q-4 -35 -4 -336l-2 -219q0 -29 -0.5 -73t-0.5 -68.5t1 -34.5q3 -29 11.5 -41t25.5 -12h63q21 0 21 -19v-39q0 -20 -19 -20q-4 0 -36.5 1.5t-83.5 3t-99 1.5 q-63 0 -135.5 -3t-73.5 -3q-16 0 -16 20v41q0 17 20 17h9q41 0 43 41q4 61 4 182l2 360q0 56 -32.5 76.5t-107.5 20.5h-170v-179q0 -33 -1.5 -139.5t-2 -171.5t1.5 -127q1 -31 16 -47t34 -16h22q23 0 23 -17v-41q0 -20 -15 -20q-3 0 -28.5 1.5t-64 3t-71.5 1.5 q-59 0 -118 -1.5t-96 -3t-40 -1.5q-16 0 -16 18v45q0 15 21 15h6q59 0 59 67l-6 613h-317v-179q0 -16 -2.5 -203.5t-0.5 -234.5q3 -63 60 -63h22q23 0 23 -17v-41q0 -20 -14 -20q-1 0 -30.5 1.5t-85 3t-120.5 1.5q-59 0 -118 -1.5t-96 -3t-40 -1.5q-16 0 -16 18v45 q0 15 20 15h68q59 0 59 67l-6 613h-131q-17 0 -14 22zM446 1158q0 -35 1.5 -106.5t1.5 -105.5v-86h317v62q0 186 70 323l-2 2q-43 -1 -82.5 15t-63.5 43q-23 30 -47.5 43.5t-60.5 13.5q-37 0 -61 -14t-48 -52q-13 -20 -19 -61.5t-6 -76.5z" />
<glyph unicode="&#xfb04;" horiz-adv-x="1789" d="M35 778l8 68q2 14 25 14h112v62q0 247 168 405q83 76 170 108.5t203 32.5q66 0 130 -26.5t95 -61.5h4q79 70 162 99q88 30 209 30q151 0 254 -30q34 -9 48 -21t13 -33q-10 -143 -10 -632l-2 -383q0 -246 2 -275q2 -30 13.5 -46.5t41.5 -16.5h62q22 0 22 -19v-39 q0 -20 -12 -20q-3 0 -35 1.5t-87 3t-113 1.5q-60 0 -115 -1.5t-87 -3t-36 -1.5q-14 0 -14 24v35q0 11 4 15t16 4h19q57 0 57 88v592h-311v-179q0 -33 -1.5 -139.5t-2 -171.5t1.5 -127q1 -31 15.5 -47t33.5 -16h22q23 0 23 -17v-41q0 -20 -15 -20q-3 0 -28.5 1.5t-63.5 3 t-71 1.5q-59 0 -118 -1.5t-96 -3t-40 -1.5q-17 0 -17 18v45q0 15 21 15h6q59 0 59 67l-6 613h-317v-179q0 -33 -1.5 -139.5t-2 -171.5t1.5 -127q3 -63 59 -63h23q13 0 17.5 -4t4.5 -13v-41q0 -20 -14 -20q-1 0 -30.5 1.5t-85 3t-120.5 1.5q-59 0 -118 -1.5t-96 -3t-40 -1.5 q-16 0 -16 18v45q0 15 20 15h68q59 0 59 67l-6 613h-129q-19 0 -16 26zM454 1158q0 -35 1.5 -106.5t1.5 -105.5v-86h317v62q0 186 70 323l-2 2q-43 -1 -82.5 15t-63.5 43q-23 30 -47 43.5t-59 13.5q-38 0 -62.5 -14t-48.5 -52q-13 -20 -19 -61.5t-6 -76.5zM1053 860h309v266 q2 119 -5 163.5t-36 72.5q-45 45 -115 45q-83 0 -114 -55q-19 -34 -27.5 -104t-10 -137t-1.5 -216v-35z" />
<glyph horiz-adv-x="2048" />
<glyph horiz-adv-x="2048" />
<glyph unicode="&#xd;" horiz-adv-x="2048" />
<glyph unicode=" "  horiz-adv-x="409" />
<glyph unicode="&#x09;" horiz-adv-x="409" />
<glyph unicode="&#xa0;" horiz-adv-x="409" />
<glyph unicode="!" horiz-adv-x="532" d="M111 111q0 52 38 97.5t113 45.5q67 0 106.5 -42t39.5 -103q0 -62 -40 -100t-114 -38q-61 0 -102 38t-41 102zM117 1217q0 84 35.5 133t113.5 49q158 0 158 -150q0 -58 -61.5 -385.5t-67.5 -427.5q0 -14 -14 -14h-37q-15 0 -15 20q-7 105 -59.5 421t-52.5 354z" />
<glyph unicode="&#x22;" horiz-adv-x="768" d="M88 1364q0 47 31.5 82t89.5 35q60 0 89.5 -34t29.5 -81q0 -30 -38 -219.5t-46 -263.5h-70q-8 75 -47 264t-39 217zM440 1364q0 47 31.5 82t87.5 35q61 0 91 -34t30 -81q0 -31 -38.5 -221.5t-47.5 -261.5h-68q-8 75 -47 264t-39 217z" />
<glyph unicode="#" d="M-20 387l24 158q4 14 23 14h206l58 256h-189q-18 0 -24 3t-4 11l24 162q3 15 27 15h197l88 374q4 19 16 19h131q16 0 8 -23l-82 -370h181l81 370q3 8 4.5 11.5t5.5 7.5t11 4h131q17 0 10 -23l-84 -370h209q9 0 14.5 -4.5t4.5 -10.5l-27 -162q-3 -10 -8 -12t-23 -2h-198 l-58 -256h203q13 0 18.5 -3.5t4.5 -12.5l-27 -164q-2 -10 -31 -10h-205l-82 -375q-6 -25 -20 -25h-133q-15 0 -8 23l82 377h-181l-84 -367q-5 -33 -20 -33h-133q-14 0 -8 29l86 371h-207q-15 0 -12 18zM393 559h180l60 256h-180z" />
<glyph unicode="$" d="M82 131q3 27 16.5 175t16.5 175q0 15 14 15l45 -2q12 0 12 -15q0 -4 1 -11q7 -101 35 -174q2 -7 5 -13q23 -37 60.5 -72.5t77.5 -58.5l14 452q-112 27 -189 94q-54 48 -79 110.5t-25 154.5q0 106 35.5 171t99.5 115q32 26 80 46t94 26l4 115q0 18 15 18h45q14 0 14 -18 l-2 -107q46 3 104 -4l3 109q0 13 3 16.5t11 3.5h45q14 0 14 -18l-4 -121q30 -6 121 -33q22 -6 37 6l22 25q8 8 25 8q18 0 18 -25q0 -186 7 -329q0 -15 -11 -15l-43 -6q-10 0 -12 6q-1 2 -9.5 33.5t-12.5 43t-12.5 36t-17.5 41.5t-20 31q0 1 -10.5 14t-16.5 19.5t-17 18.5 t-22.5 20t-23.5 14l-16 -418q108 -30 173.5 -74t100.5 -120t35 -191q0 -135 -86 -239.5t-242 -131.5l-2 -108q0 -21 -16 -21h-41q-14 0 -14 21l2 100q-18 -2 -55.5 1t-51.5 7l-4 -110q0 -19 -14 -19h-45q-15 0 -15 21l4 120q-72 21 -151 66q-36 20 -45 20t-17 -8.5 t-20 -30.5q-5 -10 -29 -10q-21 0 -18 35zM287 1040q0 -125 98 -170l8 367q-106 -45 -106 -197zM438 123q32 -12 107 -8l12 442q-86 23 -104 29zM457 844q17 -10 104 -25l12 426q-58 20 -104 10zM616 125q57 22 91 77.5t34 145.5q0 56 -28.5 108.5t-83.5 78.5z" />
<glyph unicode="%" horiz-adv-x="1634" d="M41 952q0 88 19.5 165.5t58.5 142t106 102t154 37.5q75 0 132 -28t89.5 -70.5t53 -101.5t27.5 -112.5t7 -111.5q0 -207 -84 -320.5t-250 -113.5q-76 0 -134.5 32t-91 78.5t-53.5 106t-27.5 106t-6.5 88.5zM268 950q0 -180 19 -248q9 -37 30.5 -60.5t44.5 -23.5 q61 0 84 74q13 48 13 290v34q0 305 -86 305q-53 0 -76 -68q-29 -75 -29 -303zM352 31q0 4 13 26l821 1325q8 17 16 17q10 0 19 -6l61 -35q8 -5 8 -15q0 -7 -8 -20l-827 -1337q-9 -17 -19 -17t-16 6l-55 39q-13 9 -13 17zM946 393q0 88 19.5 165.5t58.5 142t106 102t154 37.5 q75 0 132 -28t89.5 -70.5t53 -101.5t27.5 -112.5t7 -111.5q0 -207 -83.5 -320.5t-249.5 -113.5q-76 0 -134.5 32t-91.5 78.5t-54 106t-27.5 106.5t-6.5 88zM1174 391q0 -184 18 -248q9 -36 31 -60t45 -24q61 0 84 74q2 8 4 18t3 23.5t2 24.5t1.5 31t1 34t0.5 41v43.5v52 v56.5q0 305 -86 305q-53 0 -76 -68q-28 -73 -28 -303z" />
<glyph unicode="&#x26;" horiz-adv-x="1884" d="M76 324q0 106 49.5 194.5t122.5 153.5q102 89 209 143q-202 134 -205 285q1 80 57.5 161.5t148.5 135t185 53.5q163 0 259 -86.5t93 -198.5q-3 -82 -77.5 -158.5t-167.5 -111.5q206 -89 403 -381q54 65 87.5 149t33.5 150q0 27 -16.5 45.5t-47.5 18.5h-26q-15 0 -15 14 v49q0 10 15 10q5 0 42.5 -1.5t91.5 -3t101 -1.5q33 0 83 1.5t87.5 3t40.5 1.5q15 0 15 -16v-43q0 -14 -15 -14h-35q-49 0 -76.5 -11t-48.5 -43q-149 -252 -256 -385q13 -10 76 -83t94 -103q119 -119 228 -119q123 0 209 130q3 4 4 5q9 13 16 6l41 -28q7 -4 -2 -19 q-14 -25 -34.5 -53t-59.5 -66.5t-85 -67.5t-113 -50t-140 -21q-63 0 -117 13t-90.5 30.5t-77 51t-63.5 57.5t-61 68q-5 5 -7.5 8t-6.5 7.5t-7 8.5l-45.5 -45.5t-56.5 -55.5t-64.5 -50.5t-83.5 -48.5t-96.5 -30.5t-120.5 -13.5q-104 0 -196 33.5t-151.5 86t-93.5 114.5 t-34 121zM360 399q1 -62 29.5 -116t70.5 -86.5t86.5 -51t82.5 -18.5q64 0 117.5 13.5t96 41t68 50.5t60.5 59q-77 129 -204.5 266t-240.5 203q-60 -36 -114.5 -140t-51.5 -221zM500 1151q0 -61 52.5 -117t119.5 -88q27 18 45 38.5t34.5 69.5t16.5 117q0 74 -33.5 133.5 t-91.5 59.5q-40 0 -69 -18t-44.5 -49.5t-22.5 -67t-7 -78.5z" />
<glyph unicode="'" horiz-adv-x="409" d="M86 1364q0 47 32.5 82t90.5 35q57 0 87 -34.5t30 -80.5q0 -37 -37 -225t-45 -258h-70q-9 69 -48.5 257t-39.5 224z" />
<glyph unicode="(" horiz-adv-x="669" d="M70 588q0 296 157 565q119 204 303 360q17 17 37 17q13 0 27 -10.5t14 -18.5q0 -18 -16 -37q-126 -153 -192 -375.5t-66 -500.5q0 -259 68 -492.5t190 -382.5q16 -19 16 -37q0 -8 -14 -19t-27 -11q-20 0 -39 16q-182 145 -317 371q-66 113 -103.5 262.5t-37.5 292.5z" />
<glyph unicode=")" horiz-adv-x="669" d="M61 -326q0 17 17 37q258 322 258 879q0 256 -68.5 489t-189.5 383q-17 20 -17 37q0 8 14 19.5t27 11.5q19 0 39 -17q185 -147 318 -370q66 -113 103.5 -262t37.5 -291q0 -297 -158 -567q-120 -206 -303 -361q-16 -16 -37 -16q-13 0 -27 10t-14 18z" />
<glyph unicode="*" horiz-adv-x="671" d="M34.5 1240q-11.5 27 8.5 69q38 74 109 37q16 -8 82.5 -78t80.5 -88l9 6q-1 2 -21 50t-36.5 95.5t-16.5 65.5q0 40 23 62t63 22q39 0 62.5 -19t23.5 -55q0 -26 -31.5 -113t-42.5 -108l10 -8l12 15q12 15 24.5 30t30.5 36t33 37t29 29.5t21 17.5q70 37 108 -32 q17 -32 9 -65t-39 -50q-16 -9 -110 -24t-109 -15v-10l18 -3q18 -2 37.5 -5.5t47.5 -8.5t51.5 -9.5t45.5 -11t33 -11.5q23 -10 32.5 -44.5t-9.5 -72.5q-19 -31 -54.5 -38.5t-64.5 13.5q-16 12 -51 51.5t-65 76.5l-30 38l-10 -6q1 -5 20 -48.5t36.5 -92.5t17.5 -74 q0 -35 -21.5 -59.5t-64.5 -24.5q-39 0 -62.5 23.5t-23.5 60.5q0 18 16.5 66t35.5 95.5t20 51.5l-9 6q-8 -8 -43 -50.5t-67 -78.5t-47 -45q-24 -16 -55 -7t-52 42q-20 37 -7 71t40 46q12 5 63 16.5t103 21.5t55 11v10q-3 1 -56.5 10t-103 18.5t-63.5 14.5q-34 13 -45.5 40z " />
<glyph unicode="+" d="M109 418v155h321v338h168v-338h320v-155h-320v-346h-168v346h-321z" />
<glyph unicode="," horiz-adv-x="573" d="M94 -360q0 9 21 30q27 24 44 41.5t47 54.5t46 78.5t16 83.5q0 22 -15 39t-30 23q-1 0 -9 3t-13.5 5.5t-15.5 7.5t-17 10.5t-16.5 13t-16 17t-12.5 21t-9 26.5t-3 31q0 69 41 118.5t106 49.5q89 0 148 -74.5t59 -193.5q0 -61 -25.5 -121t-61 -103t-80.5 -81.5t-76 -59 t-56 -33.5q-16 -8 -47 -8q-25 0 -25 21z" />
<glyph unicode="-" horiz-adv-x="819" d="M102 483v131q0 15 19 15h571q25 0 25 -23v-119q0 -14 -21 -14h-577q-17 0 -17 10z" />
<glyph unicode="." horiz-adv-x="573" d="M125 133q0 55 43 105.5t123 50.5q66 0 112 -46t46 -118q0 -68 -44.5 -111t-111.5 -43q-72 0 -120 46t-48 116z" />
<glyph unicode="/" horiz-adv-x="768" d="M18 53l600 1420q9 18 27 12l103 -43q14 -6 2 -35l-603 -1419q-11 -25 -26 -17l-101 45q-16 8 -2 37z" />
<glyph unicode="0" d="M57 627q0 231 52 403t157.5 270.5t253.5 98.5q92 0 165 -29.5t121 -84t81 -120.5t50.5 -149.5t24.5 -159t7 -160.5q0 -354 -113.5 -540.5t-333.5 -186.5q-75 0 -139 23t-110.5 62t-84 92.5t-62 112.5t-40.5 124t-22.5 125.5t-6.5 118.5zM346 649q0 -320 33 -436 q25 -88 57.5 -124t87.5 -36q105 0 131 133q27 150 27 555q0 574 -152 574q-99 0 -127 -135q-57 -259 -57 -531z" />
<glyph unicode="1" d="M129 1118q-7 14 12 25l498 243q30 13 39 13q18 0 18 -31q0 -3 -0.5 -42.5t-1.5 -101.5t-2 -135.5t-1.5 -161t-0.5 -161.5v-86q0 -63 1 -271.5t1 -209.5q1 -44 4 -64.5t15.5 -35t32.5 -18t61 -3.5h74q20 0 20 -17v-53q0 -14 -22 -14q-4 0 -156 3t-172 3q-26 0 -113.5 -1.5 t-165 -3t-80.5 -1.5q-16 0 -16 14v55q0 15 29 15h53q48 0 71 2.5t42.5 13.5t25.5 32.5t8 61.5q3 65 3 385v447q0 94 -48 94q-40 0 -92 -14l-100 -29q-18 -4 -23 6z" />
<glyph unicode="2" d="M4.5 29q3.5 15 13.5 24q242 222 398 420q210 264 202 498q-5 115 -70 184t-167 66q-147 -7 -240 -160q-11 -18 -24 -12l-35 14q-10 7 0 29q9 22 19.5 42.5t31 53t44 59.5t59 56t76 49.5t95 33.5t115.5 13q165 0 277 -109.5t112 -263.5q0 -135 -71.5 -267t-237.5 -288 q-66 -62 -157.5 -142t-116.5 -104v-8h354q47 0 84.5 12.5t65 38t44 47.5t37.5 58q8 14 15 16.5t22 -4.5q33 -14 25 -33l-146 -379q-8 -22 -30 -22q-11 0 -16 3.5t-11 16.5q-8 19 -36.5 24t-96.5 5h-444q-41 0 -103 -4t-63 -4q-17 0 -23 12q-5 10 -1.5 25z" />
<glyph unicode="3" d="M49 129q0 40 25.5 73t60.5 34q86 0 135 -107q32 -72 133 -72q105 0 171.5 84t66.5 199q0 282 -289 348q-29 7 -38 15t-9 24q0 19 7 27t28 12q124 24 192 92.5t68 183.5q0 78 -48.5 138.5t-137.5 60.5q-154 0 -232 -192q-7 -17 -12.5 -22t-11.5 -3l-41 12q-14 3 -8 31 q12 57 41 112t76.5 106t123.5 82.5t168 31.5q72 0 132 -17.5t100 -46t69 -65.5t42.5 -75.5t15.5 -76.5q0 -202 -263 -344v-4q129 -22 230.5 -120.5t101.5 -227.5q0 -120 -72 -223t-205.5 -166.5t-299.5 -63.5q-89 0 -155.5 16.5t-100 42.5t-49 51.5t-15.5 49.5z" />
<glyph unicode="4" d="M-2 360q0 34 37 80l733 926q25 33 53 33q16 0 22.5 -15t6.5 -55v-821h129q10 0 17.5 -5.5t7.5 -13.5v-147q0 -20 -33 -20h-121v-293q0 -18 -5.5 -23.5t-23.5 -5.5h-209q-14 0 -19 4.5t-5 18.5v299h-529q-61 0 -61 38zM209 520q4 -12 24 -12h357v453q0 14 -6 19.5t-15 1 t-18 -16.5l-332 -416q-14 -17 -10 -29z" />
<glyph unicode="5" d="M33 84q0 34 16 53t39 17q46 -4 119 -50q54 -30 135 -30q47 0 92.5 14.5t87.5 45t68 87.5t26 133q0 94 -42.5 159.5t-104.5 96.5q-55 29 -130 43.5t-140 14.5q-19 0 -27 7.5t-6 22.5l76 637q2 20 7.5 26.5t24.5 6.5h455q26 0 43.5 5t32.5 21.5t22.5 29.5t24.5 46 q6 11 13 12.5t28 -5.5q24 -6 18 -31l-77 -275q-8 -27 -23 -35t-61 -8h-433l-34 -225q40 2 138 -12t165 -39q119 -45 193.5 -142.5t74.5 -244.5q0 -133 -75.5 -247t-207.5 -181.5t-288 -67.5q-101 0 -175.5 35t-74.5 80z" />
<glyph unicode="6" d="M59 508q0 193 76.5 357t190.5 278q169 167 401 237q65 19 94 19q10 0 20.5 -7.5t10.5 -17.5q0 -31 -47 -49q-130 -48 -265 -210.5t-173 -340.5l12 -6q34 33 96.5 56.5t128.5 23.5q91 0 162 -33.5t112.5 -90t62 -122t20.5 -135.5q0 -242 -134 -365q-75 -70 -151 -101.5 t-189 -31.5q-199 0 -303 135q-76 101 -100.5 199t-24.5 205zM342 408q0 -53 7 -108.5t23.5 -116.5t51.5 -99.5t84 -38.5q27 0 47.5 5t45.5 24t41 52t27 93t11 143q0 154 -45.5 253.5t-130.5 99.5q-89 0 -121 -35q-28 -28 -34.5 -85.5t-6.5 -186.5z" />
<glyph unicode="7" d="M73 1030.5q-2 5.5 3 18.5l129 381q3 9 8 11.5t23 2.5t23.5 -7t2.5 -30t19.5 -31t97.5 -8h616q21 0 21 -22q0 -15 -37 -76q-33 -51 -111.5 -203.5t-132.5 -286.5q-20 -50 -39 -99.5t-32.5 -86.5t-29.5 -88t-24 -75.5t-23.5 -80.5t-19.5 -71t-21 -78t-20 -74 q-19 -67 -63 -112.5t-109 -45.5q-53 0 -88 35.5t-35 93.5q0 81 91 240q28 50 224.5 372.5t262.5 424.5h-473q-56 0 -91.5 -13t-54 -30.5t-49.5 -56.5q-6 -9 -10 -13q-15 -20 -43 -4q-13 7 -15 12.5z" />
<glyph unicode="8" d="M92 1006q0 51 18.5 104.5t57 105.5t92.5 92.5t132.5 65.5t168.5 25q157 0 263 -84.5t106 -196.5q0 -119 -56 -198.5t-206 -165.5q146 -77 218 -171t72 -239q0 -65 -30.5 -130.5t-86 -120.5t-143 -89.5t-190.5 -34.5q-107 0 -189 25.5t-128 68.5t-68.5 91.5t-22.5 101.5 q0 126 67.5 216t192.5 167q-39 28 -54.5 39t-46.5 35t-43.5 36t-35.5 34.5t-32 37.5t-23 38t-19 44t-9.5 47.5t-4.5 55.5zM297 301q0 -62 21 -112.5t53 -79.5t67.5 -44.5t67.5 -15.5q97 0 149 61.5t52 174.5q0 88 -60 153.5t-215 151.5q-58 -46 -96.5 -121t-38.5 -168z M352 1057q0 -79 49.5 -131.5t186.5 -130.5q61 42 100 110.5t39 157.5q0 107 -50 176t-136 66q-91 0 -140 -72.5t-49 -175.5z" />
<glyph unicode="9" d="M66 911q0 110 43.5 217t103.5 158q131 113 295 113q125 0 203.5 -35t140.5 -117q63 -85 89 -171.5t26 -149.5q0 -216 -86.5 -425.5t-245.5 -342.5q-86 -72 -160 -111.5t-168 -66.5q-37 -11 -63 -11q-33 0 -33 31q0 23 27 35q138 53 257 210.5t150 360.5h-14 q-73 -59 -225 -59q-70 0 -128.5 23.5t-97 61.5t-65 86.5t-38 97t-11.5 95.5zM332 1018q0 -152 55.5 -252t138.5 -100q74 0 115 41q12 13 19 38.5t9 73t2.5 67.5t0.5 79q0 358 -158 358q-89 0 -135.5 -80.5t-46.5 -224.5z" />
<glyph unicode=":" horiz-adv-x="573" d="M125 133q0 55 43 105.5t123 50.5q66 0 112 -46t46 -118q0 -68 -44.5 -111t-111.5 -43q-72 0 -120 46t-48 116zM125 733q0 55 43 105.5t123 50.5q66 0 112 -46t46 -118q0 -68 -44.5 -111t-111.5 -43q-72 0 -120 46t-48 116z" />
<glyph unicode=";" horiz-adv-x="573" d="M94 -381q0 10 21 31q27 24 44 41.5t47 54.5t46 78.5t16 83.5q0 22 -14.5 38.5t-30.5 22.5q-1 0 -9 3t-13.5 5.5t-15.5 7.5t-17 10.5t-16.5 13t-16 17t-12.5 21t-9 26.5t-3 31q0 69 41 118.5t106 49.5q89 0 148 -74.5t59 -193.5q0 -61 -25.5 -120.5t-61 -102.5t-80.5 -82 t-76 -59t-56 -33q-16 -8 -47 -8q-25 0 -25 20zM125 733q0 55 43 105.5t123 50.5q66 0 112 -46t46 -118q0 -68 -44.5 -111t-111.5 -43q-72 0 -120 46t-48 116z" />
<glyph unicode="&#x3c;" d="M170 446v93l629 372v-170l-426 -239v-8l426 -248v-174z" />
<glyph unicode="=" d="M106 283v155h814v-155h-814zM106 592v156h814v-156h-814z" />
<glyph unicode="&#x3e;" d="M225 72v170l426 239v8l-426 248v174l629 -374v-93z" />
<glyph unicode="?" horiz-adv-x="778" d="M88 1276q0 53 33 88t94 35q70 0 158 -49.5t164 -125t128 -176.5t52 -194q0 -81 -29.5 -138.5t-66.5 -85.5t-101.5 -42.5t-101 -16.5t-99.5 -2h-6q-16 0 -16 -16v-158q0 -14 -14 -14h-52q-14 0 -14 14v410q0 33 33 26q35 -6 125 -6q35 0 66.5 6.5t61.5 21.5t48 44.5 t18 69.5q0 37 -31.5 76.5t-82.5 60.5q-105 43 -213 43q-66 0 -110 34t-44 95zM121 102q0 58 40 99t111 41q64 0 107 -38.5t43 -99.5t-39 -97t-115 -36q-72 1 -109.5 35.5t-37.5 95.5z" />
<glyph unicode="@" horiz-adv-x="1644" d="M31 543q0 178 81.5 350.5t214 301t312.5 207.5t367 79q298 0 453 -145.5t155 -401.5q0 -101 -43.5 -202t-121 -184.5t-198 -135.5t-262.5 -52q-39 0 -64.5 20.5t-25.5 47.5q0 77 51 213l-10 4q-2 -3 -7 -10q-24 -34 -39.5 -54.5t-46.5 -58.5t-59.5 -62t-65.5 -49.5 t-79 -38t-86 -12.5q-55 0 -92 34.5t-37 101.5q0 93 54 209.5t134.5 213.5t181.5 163.5t187 66.5q85 0 105 -72l26 39q9 14 21 14h149q12 0 14 -10t-4 -24q-31 -71 -122 -342q-21 -63 -40.5 -144t-19.5 -118q0 -20 14 -30.5t29 -10.5q24 0 57 18.5t70 59.5t68.5 97.5t52 143 t20.5 186.5q0 221 -115 331t-327 110q-152 0 -292 -73.5t-238 -190.5t-156.5 -265.5t-58.5 -296.5q0 -161 68.5 -277.5t184 -174t263.5 -56.5q227 0 370 70q15 6 19 0l20 -39q7 -15 -8 -24q-73 -45 -191 -73t-241 -28q-330 0 -511 157.5t-181 416.5zM670 561q0 -67 51 -67 q38 0 135.5 130.5t126.5 198.5q41 99 41 158q0 42 -17 69t-49 27q-43 0 -87.5 -40.5t-79 -103t-63 -133t-43.5 -135t-15 -104.5z" />
<glyph unicode="A" horiz-adv-x="1484" d="M-78 20v39q0 19 15 19h53q79 0 139 90q20 30 102 229t140 351q18 47 103 273.5t97 262.5q8 26 8 44q0 16 -6 26q-14 19 -14 26q0 14 21 19q54 11 130.5 44t98.5 58q19 19 27 19q13 0 22 -35q19 -62 118.5 -356.5t119.5 -362.5q36 -122 112 -338.5t97 -257.5 q24 -47 57.5 -69.5t60.5 -22.5h70q14 0 14 -19v-39q0 -26 -18 -26q-10 0 -43 1.5t-109.5 3t-191.5 1.5q-101 0 -190 -3t-93 -3q-22 0 -22 26v39q0 19 12 19h57q42 0 56.5 17.5t5.5 56.5q-13 52 -57.5 199.5t-65.5 209.5h-449q-15 -40 -38 -107t-50.5 -159.5t-27.5 -122.5 q0 -39 18.5 -66.5t60.5 -27.5h72q23 0 23 -17v-45q0 -13 -3.5 -17.5t-15.5 -4.5q-7 0 -42.5 1.5t-98.5 3t-137 1.5q-66 0 -115 -1.5t-74 -3t-34 -1.5q-15 0 -15 26zM426 643h403q-57 192 -153 543q-12 45 -23 45q-15 0 -24 -27q-177 -477 -203 -561z" />
<glyph unicode="B" horiz-adv-x="1411" d="M61 1391v47q0 18 17 18q7 0 47 -1.5t113 -3t159 -1.5q24 0 136.5 3t191.5 3q253 0 350 -55q158 -85 158 -279q0 -109 -72.5 -198t-226.5 -140v-4q195 -51 291 -148t96 -257q0 -89 -45 -183t-115 -129q-147 -75 -481 -75q-9 0 -54.5 2.5t-74.5 3.5q-89 6 -162 6 q-58 0 -129 -1t-86 -1q-17 -1 -35.5 -2t-28.5 -1.5t-16 -0.5q-14 0 -18 4.5t-4 17.5v45q0 10 3.5 13.5t16.5 3.5h72q43 0 58.5 18.5t21.5 67.5q10 78 10 485v242q0 259 -6 358q-2 44 -9 69.5t-22.5 37t-30.5 14t-45 2.5h-65q-10 0 -12.5 3.5t-2.5 15.5zM553 332 q0 -146 36 -210.5t118 -64.5q58 0 106 16t89 51.5t64 102t23 158.5q0 121 -49 202.5t-135 114.5q-17 6 -33.5 11.5t-34 9t-31.5 6t-31.5 4t-28.5 2.5t-28 1.5t-24 0.5h-23h-18v-405zM553 807q25 -2 51 -2q50 1 102 9q80 14 121 50q49 43 74 107t25 135q0 140 -84 207 q-46 36 -105.5 54.5t-87.5 18.5q-21 0 -33 -1t-26.5 -4t-22 -10t-8.5 -19q-6 -62 -6 -389v-156z" />
<glyph unicode="C" horiz-adv-x="1540" d="M104 705q0 328 211 555q207 221 541 221q128 0 238.5 -26t173.5 -60q37 -18 43 2l16 51q3 9 9 10.5t30 1.5q23 0 29 -5.5t6 -27.5q0 -29 19.5 -215t27.5 -233q3 -24 -10 -27l-45 -12q-15 -6 -25 23q-42 149 -164 274q-158 154 -352 154q-108 0 -192 -47t-134 -128 q-49 -80 -74 -182q-24 -98 -24 -210v-9q0 -76 14 -162t57.5 -193.5t110.5 -178.5q150 -154 320 -154q165 0 293 63.5t190 155.5q17 27 31 16l35 -30q6 -4 6 -10t-6 -15q-48 -69 -106 -126t-132.5 -106.5t-169.5 -77.5t-199 -28q-191 0 -314.5 47t-229.5 142 q-108 95 -166 249.5t-58 297.5z" />
<glyph unicode="D" horiz-adv-x="1722" d="M47 12v54q0 12 16 12h107q60 0 66 49q4 30 9 279.5t5 379.5v154q0 50 -3.5 202t-6.5 173q-4 34 -21 45.5t-47 11.5h-102q-17 0 -17 14v60q0 10 15 10q6 0 45 -1.5t112.5 -3t163.5 -1.5q27 0 154.5 3t150.5 3q238 0 399 -37t296 -149q229 -192 229 -520 q0 -172 -49.5 -298.5t-153.5 -240.5q-201 -217 -678 -217q-7 0 -164 3t-223 3q-78 0 -143.5 -1.5t-101.5 -3t-44 -1.5q-14 0 -14 18zM557 741q0 -247 4 -501q0 -62 35 -113q33 -49 164 -49q98 0 203 51t180 150q65 87 105 208.5t40 257.5q0 123 -46 244.5t-120 202.5 q-77 86 -194 136t-213 50q-84 0 -115 -16q-38 -17 -41 -88q-2 -86 -2 -387v-146z" />
<glyph unicode="E" horiz-adv-x="1423" d="M76 16v43q0 19 20 19h62q69 0 85.5 15t16.5 71v686q0 382 -6 442q-6 48 -23.5 64t-60.5 16h-80q-10 0 -10 21v49q0 14 14 14q5 0 98.5 -3t204.5 -3l719 2q19 0 49.5 2t32.5 2q13 0 16 -10t22.5 -90t38.5 -155.5t23 -84.5q5 -13 -6 -20l-32 -17q-16 -8 -25 8 q-10 15 -110 113t-132 117q-83 52 -155 55l-271 8l-6 -596q155 0 209 13q51 12 94 63q18 25 32.5 62t14.5 65q0 19 17 19l55 -7q6 -1 9 -2.5t5.5 -4.5t1.5 -9q-6 -35 -6 -213q0 -93 13 -233q2 -13 -17 -17l-49 -10q-6 -2 -9.5 2t-6.5 14q-10 40 -41 105q-16 28 -48 47 t-65 24q-89 13 -209 13v-123q0 -65 5 -201t5 -145q0 -134 50 -156q47 -18 172 -18q99 0 163 6q83 8 156 67q35 29 102 100.5t107 119.5q12 12 20 6l35 -21q9 -5 9 -12q0 -2 -1 -4l-92 -309q-10 -31 -45 -31q-3 0 -21.5 0.5t-63 1.5t-101.5 2q-39 0 -269.5 1t-435.5 1 q-42 0 -100 -1t-74 -1q-86 -4 -88 -4q-18 0 -18 22z" />
<glyph unicode="F" horiz-adv-x="1288" d="M61 1384v60q0 12 15 12q3 0 40 -1.5t118.5 -3t191.5 -1.5q6 0 307 3t359 3q26 0 64 4t42 4q15 0 21 -34l79 -334q1 -4 1 -6q0 -8 -7 -11l-41 -22q-7 -3 -12 0.5t-16 19.5q-86 111 -160 189q-67 74 -141 92q-34 9 -152.5 14.5t-208.5 5.5q0 -1 -1 -242.5t-1 -316.5v-96 q125 0 203 12q54 6 106 74q29 37 45 109q3 16 17 16l47 -4q12 0 12 -15q-4 -35 -4 -233q0 -110 10 -213q0 -13 -14 -16l-45 -11q-6 -1 -10 3.5t-6 13.5q-3 14 -17 49t-22 49q-48 68 -101 82q-77 14 -221 14v-78q0 -35 1 -229t1 -203q0 -38 12.5 -51.5t36.5 -13.5h121 q19 0 19 -12v-56q0 -16 -17 -16q-3 0 -38.5 1.5t-109 3t-167.5 1.5q-88 0 -158 -1.5t-106.5 -3t-44.5 -1.5q-13 0 -13 18v56q0 10 15 10h71q33 0 47 8.5t15 32.5q8 164 8 651v143q0 54 -2 226.5t-2 173.5q0 59 -84 59h-84q-19 0 -19 12z" />
<glyph unicode="G" horiz-adv-x="1720" d="M104 766q0 141 63.5 279.5t174.5 234.5q230 201 580 201q141 0 253.5 -31t174.5 -70q33 -18 51 6l20 33q15 21 27 21q29 0 29 -37l30 -422q3 -34 -8 -37l-57 -12q-17 -3 -25 20q-28 85 -76.5 170.5t-109.5 141.5q-134 127 -324 127q-90 0 -165.5 -34.5t-143.5 -119.5 q-74 -89 -119 -211.5t-45 -255.5q0 -181 47.5 -330.5t130.5 -232.5q75 -75 144 -107t170 -32q82 0 131.5 8.5t99.5 32.5q30 14 38.5 57.5t8.5 134.5v148q0 54 -16 74t-55 20h-86q-15 0 -15 18v51q0 15 15 15q3 0 41.5 -1.5t109.5 -3t152 -1.5q83 0 148.5 1.5t97.5 3t34 1.5 q19 0 19 -17v-51q0 -16 -15 -16h-59q-31 0 -47.5 -16.5t-16.5 -57.5v-270q0 -16 4.5 -38t4.5 -28q0 -20 -33 -33q-131 -66 -272 -98.5t-328 -32.5q-173 0 -333.5 58t-260.5 176q-95 108 -142 244t-47 319z" />
<glyph unicode="H" horiz-adv-x="1779" d="M61 1393v39q0 24 23 24q10 0 44.5 -1.5t102.5 -3t158 -1.5q88 0 157 1.5t105.5 3t46.5 1.5q16 0 20.5 -4.5t4.5 -17.5v-43q0 -10 -4.5 -14.5t-20.5 -4.5h-49q-52 0 -68.5 -24t-21.5 -88q-2 -31 -7 -184.5t-5 -229.5v-31q0 -16 33 -16h612q24 0 32.5 4.5t8.5 21.5v21 q0 51 -3.5 152t-7 182.5t-3.5 87.5q-2 54 -12 79t-36 25h-84q-13 0 -16.5 4.5t-3.5 16.5v45q0 10 3.5 14t14.5 4q1 0 98 -3t201 -3q75 0 139 1.5t100.5 3t43.5 1.5q18 0 22.5 -4.5t4.5 -17.5v-39q0 -12 -5 -17.5t-22 -5.5h-61q-42 0 -54 -23t-12 -81q0 -9 -2 -208t-2 -243 v-69q0 -229 6 -568q0 -56 18.5 -79t63.5 -23h70q11 0 14.5 -4.5t3.5 -14.5v-45q0 -20 -22 -20q-10 0 -44 1.5t-98 3t-145 1.5q-125 0 -222 -3t-100 -3q-26 0 -26 20v45q0 10 4 14.5t18 4.5h90q34 0 45 22.5t13 67.5q8 192 8 491v25q0 16 -11 20.5t-34 4.5h-613 q-17 0 -22.5 -5.5t-5.5 -19.5v-31q0 -182 14 -506q1 -36 17.5 -52.5t50.5 -16.5h57q12 0 15.5 -4t3.5 -13v-49q0 -10 -4 -14t-15 -4q-2 0 -89.5 3t-190.5 3q-95 0 -165.5 -1.5t-106.5 -3t-48 -1.5q-13 0 -16.5 4.5t-3.5 17.5v43q0 11 3.5 15t16.5 4h94q58 0 58 94 q6 288 6 547v88q0 76 -2 253t-2 179q0 78 -14.5 105.5t-55.5 27.5h-84q-16 0 -20.5 5t-4.5 16z" />
<glyph unicode="I" horiz-adv-x="849" d="M82 1384v60q0 12 14 12q6 0 47.5 -1.5t117.5 -3t165 -1.5q92 0 160.5 1.5t102 3t40.5 1.5q14 0 14 -18v-52q0 -14 -16 -14h-59q-82 0 -82 -53q0 -9 -3 -247t-3 -251v-157q0 -10 3 -256.5t3 -255.5q0 -44 17.5 -59t51.5 -15h84q17 0 17 -15v-57q0 -12 -19 -12 q-6 0 -41.5 1.5t-104.5 3t-155 1.5q-95 0 -170 -1.5t-113 -3t-42 -1.5q-17 0 -17 16v56q0 12 17 12h59q38 0 62.5 11t29.5 44q3 21 6.5 253.5t3.5 328.5v143q0 42 -3.5 234t-4.5 211q-3 37 -19 53t-48 16h-99q-16 0 -16 12z" />
<glyph unicode="J" horiz-adv-x="733" d="M-213 -301q0 54 35 92.5t88 38.5q36 0 65.5 -13.5t51.5 -40t36 -51t31 -61.5q33 0 63.5 34t45.5 89q15 52 21 186q5 115 5 221v35q-1 122 -3.5 273.5t-2.5 177.5v143q0 396 -6 480q-10 39 -26 54t-64 15h-70q-14 0 -14 10v60q0 14 14 14q4 0 39.5 -1.5t110.5 -3t174 -1.5 q88 0 156.5 1.5t103.5 3t43 1.5q16 0 16 -16v-51q0 -17 -16 -17h-72q-41 0 -57 -12.5t-18 -42.5q-7 -116 -7 -543v-94q0 -114 -2 -230t-4 -190t-2 -88q0 -89 -17 -159.5t-65 -151.5q-50 -84 -117 -150.5t-168 -113t-214 -46.5q-53 0 -103.5 37t-50.5 111z" />
<glyph unicode="K" horiz-adv-x="1515" d="M106 8v58q0 12 15 12h63q49 0 56 37q6 54 6 641v118q0 20 -3 229.5t-3 219.5q0 49 -62 49h-51q-16 0 -16 14v58q0 12 16 12q6 0 36.5 -1.5t91.5 -3t142 -1.5q78 0 140 1.5t94 3t39 1.5q16 0 16 -16v-54q0 -14 -14 -14h-49q-68 0 -68 -59q0 -7 -3 -199.5t-3 -251.5v-76h35 q27 0 57 27q24 18 181.5 214t213.5 269q24 37 9 58.5t-50 21.5h-34q-11 0 -11 15v51q0 14 13 14q7 0 41.5 -1.5t96 -3t132.5 -1.5q59 0 126.5 3t70.5 3q14 0 14 -14v-56q0 -14 -17 -14h-32q-62 0 -119 -35q-75 -45 -227 -210t-222 -259q57 -72 281.5 -377.5t273.5 -361.5 q44 -51 111 -51h25q14 0 14 -15v-55q0 -14 -16 -14q-3 0 -35 1.5t-99.5 3t-158.5 1.5q-75 0 -137.5 -1.5t-98 -3t-43.5 -1.5q-12 0 -12 16v53q0 13 12 13h31q24 0 31 20t-2 33q-13 30 -178.5 275.5t-192.5 275.5q-25 29 -55 29h-29v-154q0 -345 6 -432q2 -20 14.5 -32.5 t32.5 -12.5h64q16 0 16 -12v-58q0 -14 -12 -14q-6 0 -36.5 1.5t-93.5 3t-147 1.5q-83 0 -146 -1.5t-93 -3t-33 -1.5q-15 0 -15 14z" />
<glyph unicode="L" horiz-adv-x="1357" d="M76 12v51q0 15 14 15h64q88 0 88 51q0 9 3 305t3 369v115q0 281 -6 380q-3 42 -15.5 58t-46.5 16h-76q-14 0 -14 21v49q0 14 14 14q5 0 38 -1.5t98 -3t147 -1.5q106 0 187 1.5t118.5 3t38.5 1.5q11 0 15 -4.5t4 -15.5v-47q0 -17 -21 -17h-96q-45 0 -58.5 -16t-13.5 -60 q0 -8 -1.5 -99t-3 -204t-1.5 -176v-176q0 -477 6 -559h117q188 0 299 10q51 5 114.5 74.5t104.5 139.5t61 118q10 20 25 12l41 -16q4 -3 4 -12v-7q-4 -10 -47 -185t-53 -222q-79 6 -832 6q-89 0 -158 -1.5t-104 -3t-41 -1.5q-10 0 -13 3.5t-3 14.5z" />
<glyph unicode="M" horiz-adv-x="2027" d="M20 12v54q0 12 13 12h84q44 0 67 48t31 112q12 94 24.5 354t12.5 311l-2 314q0 77 -24 116t-89 39h-67q-15 0 -15 14v58q0 12 15 12q2 0 32.5 -1.5t104 -3t180.5 -1.5q57 0 118.5 3t65.5 3q12 0 19.5 -1.5t16 -9.5t14.5 -24q66 -177 201 -510.5t192 -484.5q15 26 190 448 q1 2 36.5 88t74.5 180.5t74 181.5t38 101q4 16 24.5 20.5t70.5 4.5q141 0 237 1.5t134.5 3t39.5 1.5q13 0 13 -18v-47q0 -19 -17 -19h-90q-32 0 -42.5 -20.5t-10.5 -59.5q0 -491 4 -577q0 -21 3 -265t3 -262q0 -110 47 -110h99q14 0 14 -15v-51q0 -10 -4 -14t-15 -4 q-4 0 -31 1.5t-96 3t-176 1.5q-92 0 -164 -1.5t-108.5 -3t-42.5 -1.5q-16 0 -16 18v51q0 8 3 11.5t13 3.5h115q28 0 41 14t16 55q2 20 5 229t3 312v625h-12q-9 -15 -72 -164t-132.5 -315t-82.5 -197q-18 -40 -75 -179t-106.5 -260t-53.5 -128q-1 -1 -5.5 -8.5t-6.5 -11 t-7 -10t-9 -9.5t-10 -5.5t-12 -2.5q-20 0 -36 36q-268 626 -291 686q-36 91 -133.5 326t-108.5 252q-5 -18 -8.5 -254.5t-3.5 -316.5q0 -274 14 -484q6 -70 33.5 -130t73.5 -60h80q14 0 14 -15v-55q0 -14 -19 -14q-6 0 -32.5 1.5t-77.5 3t-117 1.5q-77 0 -138 -1.5t-92 -3 t-34 -1.5q-12 0 -15.5 3t-3.5 15z" />
<glyph unicode="N" horiz-adv-x="1658" d="M8 1389v55q0 12 12 12q1 0 22 -1t44 -1q82 -4 213 -4q41 0 95 2t61 2q35 0 59 -27q15 -18 225.5 -275t249.5 -306q13 -16 175.5 -219t174.5 -217h9v186q0 206 -7 385q-2 68 -8 178.5t-10 132.5q-9 37 -40.5 58.5t-68.5 21.5h-65q-12 0 -12 19v51q0 8 3.5 11t14.5 3 q6 0 35 -1.5t83.5 -3t121.5 -1.5q54 0 97 1.5t66.5 3t30.5 1.5q13 0 17 -3.5t4 -12.5v-49q0 -19 -11 -19h-57q-52 0 -61 -108q-14 -133 -30.5 -411.5t-16.5 -459.5v-350q0 -68 -31 -68q-47 0 -80 33q-73 69 -258 287q-60 71 -142.5 169.5t-136.5 163t-71 83.5 q-36 42 -185 228.5t-180 231.5h-16v-413q0 -101 10 -297.5t10 -202.5q3 -91 33.5 -135.5t93.5 -44.5h51q17 0 17 -19v-49q0 -9 -3.5 -12.5t-13.5 -3.5l-91 3q-91 3 -148 3q-37 0 -128.5 -3t-96.5 -3q-11 0 -11 18v54q0 12 13 12h71q73 0 88 203q19 371 19 669v185 q0 93 -50.5 164.5t-125.5 72.5l-52 2q-12 0 -12 15z" />
<glyph unicode="O" horiz-adv-x="1775" d="M104 711q0 280 191 510q214 260 596 260q143 0 261.5 -34t238.5 -128q126 -99 203 -255t77 -357q0 -243 -153 -449q-53 -67 -110 -116t-132.5 -90t-173 -62t-215.5 -21q-266 0 -481 133q-56 34 -108.5 91t-96.5 133.5t-70.5 176.5t-26.5 208zM432 776q0 -150 33 -274 t84 -203t115 -133.5t124.5 -77t114.5 -22.5q78 0 144 26t111 68t80 99t55.5 114.5t34 119.5t18 109.5t4.5 87.5q0 129 -32 244t-83 195t-113.5 139t-124 87.5t-114.5 28.5h-14h-18t-20 -1t-24.5 -3t-26 -6t-29.5 -9t-31 -13.5t-34 -19.5t-35 -25.5t-37 -32.5 q-86 -82 -134 -222.5t-48 -275.5z" />
<glyph unicode="P" horiz-adv-x="1310" d="M68 1389v53q0 14 12 14q4 0 38.5 -1.5t106 -3t166.5 -1.5q15 0 101 3t124 3q195 0 300 -23t192 -90q67 -51 107 -134.5t40 -182.5q0 -188 -143 -301t-397 -113q-83 0 -166 6v-75q0 -350 4 -400q6 -65 57 -65h105q16 0 16 -15v-53q0 -8 -3.5 -12t-14.5 -4q-6 0 -40.5 1.5 t-110 3t-181.5 1.5q-79 0 -144 -1.5t-99.5 -3t-39.5 -1.5q-16 0 -16 14v55q0 15 12 15h53q53 0 70 11.5t21 49.5q1 11 3 102t3.5 228.5t1.5 247.5v235q0 325 -4 375q-3 29 -17.5 37t-48.5 8h-96q-12 0 -12 17zM549 698q54 -12 125 -12q48 0 113 42t98 95q49 75 49 217 q0 80 -22.5 143.5t-55 99.5t-74 59.5t-75 31.5t-62.5 8q-50 0 -96 -10v-674z" />
<glyph unicode="Q" horiz-adv-x="1783" d="M104 725q0 163 63 306.5t175 248.5q113 103 261 154q140 47 263 47h15h17q376 0 585 -219q101 -106 150 -240q46 -126 46 -261v-16v-15q0 -150 -55 -286q-59 -142 -156 -237q-87 -87 -172 -137t-194 -84v-4q221 -91 483 -156q200 -48 339.5 -72t170.5 -25t92 -1 q42 0 83.5 18t64.5 41q12 12 24 4l29 -24q6 -3 6 -9.5t-6 -15.5q-17 -27 -50 -65t-77.5 -79t-97 -69.5t-95.5 -28.5q-94 0 -209 21.5t-311 87.5q-186 65 -363.5 143t-418.5 205q-7 4 -62.5 19.5t-115.5 36t-142 70.5t-147 118q-86 90 -140.5 226.5t-54.5 297.5zM430 791 q0 -102 19.5 -198.5t52.5 -172t64 -129.5t65 -96q48 -59 133 -98.5t135 -39.5q76 0 141 25.5t110.5 67.5t82 98.5t59 114.5t37.5 119t21 110t6 90q0 171 -52 312.5t-128 234.5q-126 155 -308 155q-51 0 -105 -21.5t-82.5 -41.5t-70.5 -53q-93 -91 -136.5 -216.5 t-43.5 -260.5z" />
<glyph unicode="R" horiz-adv-x="1505" d="M96 14v47q0 17 10 17h62q82 0 82 65q4 203 4 590v199q0 283 -2 338q-1 49 -17.5 75.5t-39.5 26.5h-82q-13 0 -13 14v56q0 14 13 14q2 0 33 -1.5t102 -3t170 -1.5q61 0 201 3t178 3q217 0 362 -135q117 -108 117 -223q0 -93 -33 -168t-88 -121t-119 -72t-135 -32v-15 q43 -14 71 -38.5t64 -69.5q11 -13 156 -240q16 -25 77 -108t87 -113q17 -19 63.5 -31t85.5 -12q17 0 17 -17v-49q0 -18 -17 -18q-3 0 -27.5 1.5t-77 3t-122.5 1.5q-18 0 -195 -6q-40 31 -109.5 148t-113.5 206q-32 63 -56.5 106t-58 90t-68 71t-69.5 24h-69v-104 q0 -91 3.5 -224t6.5 -153q3 -35 16 -57.5t35 -22.5h84q16 0 16 -17v-49q0 -11 -5 -14.5t-27 -3.5h-4q-4 1 -13 1.5t-22 1t-34.5 1t-48 1t-65 1t-82.5 0.5q-96 0 -161.5 -1.5t-93 -3t-31.5 -1.5q-11 0 -14 4t-3 16zM541 711q39 -2 82 -2q77 0 138 28t96.5 68.5t59 91.5 t31.5 92t8 74q0 70 -21.5 132.5t-55.5 96.5q-51 46 -113.5 68t-114.5 22q-57 0 -78 -18q-15 -10 -22 -55z" />
<glyph unicode="S" horiz-adv-x="1175" d="M113 53l32 389q2 15 17 15l53 -4q14 0 14 -17q7 -108 82 -231q43 -68 112 -103.5t146 -35.5q39 0 81.5 13t82.5 39t66 72t26 103q0 69 -8.5 108t-41.5 77t-89.5 66.5t-159.5 67.5q-58 22 -142.5 70t-154.5 109q-102 89 -102 290q0 99 32.5 167t121.5 134q70 54 136 76.5 t158 22.5q163 0 273 -41q29 -11 47 10l27 27q12 12 30 12q15 0 21 -35l33 -350q0 -8 -11 -12l-45 -15q-17 -7 -26 15q-52 134 -127 213q-77 86 -205 86q-54 0 -98 -21.5t-68.5 -52.5t-37.5 -61t-13 -52q0 -70 9 -111.5t44 -76.5q73 -76 270 -133q135 -40 263 -156 q60 -54 86 -125.5t26 -179.5q0 -125 -55 -228t-158 -164t-235 -61t-215.5 21.5t-151.5 66.5q-36 23 -47 23q-12 0 -33 -35q-13 -25 -37 -25q-28 0 -28 27v6z" />
<glyph unicode="T" horiz-adv-x="1511" d="M-16 1112q76 284 98 397q8 35 31 35q10 0 17 -6t22 -25q36 -46 135 -51q218 -12 407 -12h119q139 0 397 12q36 2 84 17.5t66 33.5q31 31 47 31q20 0 25 -33q3 -19 14.5 -96t26 -172t20.5 -139q1 -4 1 -7q0 -9 -9 -12l-43 -16q-9 -2 -21 18q-35 58 -87 126t-89 104 q-33 20 -126 29.5t-154 9.5h-68v-563q0 -602 2 -633q3 -41 19 -61.5t51 -20.5h92q13 0 16.5 -4.5t3.5 -16.5v-47q0 -8 -3.5 -12t-16.5 -4q-3 0 -35 1.5t-105 3t-173 1.5q-96 0 -171.5 -1.5t-114.5 -3t-46 -1.5q-19 0 -19 24v39q0 21 15 21h104q30 0 48.5 16.5t21.5 44.5 q4 43 4 711v506h-72q-182 0 -274 -33q-56 -41 -187 -231q-10 -17 -20 -15l-45 17q-9 2 -9 11q0 3 1 7z" />
<glyph unicode="U" horiz-adv-x="1495" d="M12 1391v49q0 9 3.5 12.5t15.5 3.5q3 0 43.5 -1.5t119 -3t173.5 -1.5q79 0 148.5 1.5t108.5 3t44 1.5q12 0 15 -3t3 -13v-54q0 -8 -3 -11t-13 -3h-70q-49 0 -77 -23t-31 -57q-5 -58 -5 -266v-135q0 -71 11 -434q4 -166 65 -244q95 -115 256 -115q58 0 129.5 26t112.5 64 q129 116 129 334v316q0 115 -10.5 256.5t-18.5 187.5q-6 39 -27.5 64.5t-48.5 25.5h-65q-14 0 -14 17v53q0 14 14 14q5 0 40.5 -1.5t94 -3t119.5 -1.5q49 0 93 1.5t70 3t31 1.5q21 0 21 -18v-45q0 -21 -12 -21h-64q-26 0 -43.5 -7.5t-26.5 -22.5t-11.5 -22t-5.5 -22 q-1 -3 -1 -4q-4 -29 -4 -340q0 -52 -3 -234t-7 -233q-18 -253 -174 -391q-67 -59 -164.5 -93t-198.5 -34q-194 0 -313 51q-75 33 -138.5 104t-99.5 167q-25 64 -34 173t-9 320v484q0 55 -12.5 79.5t-44.5 24.5h-96q-15 0 -15 19z" />
<glyph unicode="V" horiz-adv-x="1396" d="M-29 1393v49q0 14 15 14q2 0 35.5 -1.5t111 -3t186.5 -1.5q94 0 170 1.5t114 3t40 1.5q13 0 17 -4t4 -14v-47q0 -19 -17 -19h-88q-37 0 -62.5 -14.5t-25.5 -34.5q0 -41 6 -70q11 -53 57 -197t80 -239q35 -99 156 -457h8q109 252 187 467q51 130 135 365q20 53 20 113 q0 23 -22 45t-62 22h-63q-10 0 -10 19v51q0 14 12 14q4 0 39 -1.5t93 -3t118 -1.5q84 0 144 1.5t86.5 3t29.5 1.5q9 0 11.5 -3.5t2.5 -14.5v-52q0 -14 -14 -14h-47q-91 0 -152 -106q-36 -62 -79 -157.5t-92.5 -216t-76.5 -179.5q-18 -40 -93 -213.5t-142 -326.5t-82 -179 q-11 -20 -20.5 -27.5t-26.5 -7.5q-13 0 -22.5 9t-12.5 15t-12 27q-34 72 -99 235t-135 343.5t-86 220.5q-30 75 -101.5 272.5t-82.5 223.5q-15 36 -35.5 51.5t-52.5 15.5h-53q-11 0 -11 21z" />
<glyph unicode="W" horiz-adv-x="2150" d="M-18 1389v53q0 8 3 11t13 3q1 0 31.5 -1.5t98.5 -3t161 -1.5q65 0 123 1.5t91 3t38 1.5q16 0 16 -16v-51q0 -17 -16 -17h-45q-25 0 -37.5 -19.5t-3.5 -49.5l280 -893h13q3 8 37 100t69.5 191t74.5 209.5t64 191.5t25 102q0 36 -12 72t-27 57q-13 18 -30.5 28.5 t-30.5 10.5h-41q-13 0 -13 17v53q0 14 15 14q3 0 34 -1.5t94 -3t142 -1.5q76 0 138 1.5t95 3t37 1.5q15 0 15 -18v-52q0 -14 -15 -14h-61q-24 0 -36.5 -26.5t-4.5 -53.5l282 -882h13q278 776 278 909q0 19 -18.5 36t-46.5 17h-60q-14 0 -14 19v51q0 14 16 14q5 0 34.5 -1.5 t79.5 -3t106 -1.5q51 0 94.5 1.5t67.5 3t28 1.5q9 0 11.5 -3.5t2.5 -14.5v-52q0 -5 -0.5 -7.5t-3.5 -4.5t-10 -2h-39q-28 0 -55 -19t-41 -55q-5 -12 -120 -322t-227 -610t-130 -343q-7 -19 -12.5 -29t-19 -22.5t-30.5 -12.5q-20 0 -31 14.5t-20 40.5l-367 1028h-12 q-13 -32 -199.5 -528t-189.5 -504q-5 -16 -9.5 -24.5t-15.5 -17.5t-26 -9q-30 0 -43 41l-461 1298q-14 39 -37 56.5t-47 17.5h-51q-12 0 -12 17z" />
<glyph unicode="X" horiz-adv-x="1419" d="M-41 16v47q0 15 12 15h49q28 0 72.5 16.5t81.5 46.5q31 26 62 59.5t72.5 88t74 99t97.5 135.5t112 155q-32 51 -134.5 222.5t-181 298t-100.5 144.5q-15 13 -45.5 21t-48.5 8h-70q-10 0 -10 17v51q0 16 10 16q3 0 41.5 -1.5t114 -3t166.5 -1.5t163 1.5t108 3t38 1.5 q16 0 16 -18v-47q0 -10 -3.5 -14.5t-14.5 -4.5h-49q-25 0 -41 -12t-16 -33q0 -23 93.5 -195t133.5 -237h8q18 29 58 88.5t70 106t62 98t50 87.5t18 50q0 47 -57 47h-51q-13 0 -13 19v51q0 14 15 14q6 0 40 -1.5t94 -3t130 -1.5q50 0 97 1.5t75.5 3t34.5 1.5q16 0 16 -18v-47 q0 -19 -12 -19h-56q-82 0 -129 -35q-69 -51 -399 -524q319 -532 426 -684q37 -51 111 -51h67q17 0 17 -15v-53q0 -16 -17 -16q-1 0 -34 1.5t-108.5 3t-178.5 1.5q-72 0 -140.5 -1.5t-107.5 -3t-41 -1.5q-16 0 -16 18v51q0 15 12 15h31q35 0 49 8.5t14 28.5q0 32 -258 479h-8 q-9 -13 -41 -60.5t-52 -78t-52 -79.5t-53 -83t-42.5 -70t-32 -59t-10.5 -33q0 -22 14 -37.5t37 -15.5h60q16 0 16 -12v-54q0 -18 -16 -18q-4 0 -37 1.5t-94.5 3t-134.5 1.5q-53 0 -104 -1.5t-82 -3t-36 -1.5q-12 0 -12 22z" />
<glyph unicode="Y" horiz-adv-x="1255" d="M-106 1386v58q0 12 14 12q3 0 40.5 -1.5t107 -3t149.5 -1.5q93 0 164 1.5t104.5 3t36.5 1.5q14 0 14 -14v-51q0 -19 -14 -19h-47q-22 0 -35.5 -14.5t-13.5 -38.5q0 -16 61 -142.5t140.5 -284.5t97.5 -198q9 17 54 98t82 149.5t79.5 150t67 137.5t24.5 74q0 27 -23 48 t-55 21h-55q-15 0 -15 19v53q0 12 15 12q5 0 38 -1.5t92 -3t126 -1.5q62 0 108.5 1.5t69.5 3t27 1.5q10 0 13 -3.5t3 -12.5v-49q0 -19 -16 -19h-37q-25 0 -60.5 -12t-56.5 -37q-22 -27 -196.5 -315.5t-233.5 -399.5v-227q0 -159 8 -231q4 -45 21.5 -58.5t48.5 -13.5h59 q14 0 14 -15v-51q0 -10 -2 -14t-12 -4q-6 0 -41 1.5t-103 3t-153 1.5q-94 0 -162.5 -1.5t-100.5 -3t-36 -1.5q-12 0 -12 20v49q0 15 14 15h72q69 0 72 47q6 87 6 381v88q-44 85 -211.5 385.5t-200.5 345.5q-18 22 -48.5 34.5t-57.5 12.5h-31q-14 0 -14 14z" />
<glyph unicode="Z" horiz-adv-x="1439" d="M47 16q0 26 10 41q36 56 268.5 381t449.5 626.5t222 311.5h-426q-58 0 -114 -39q-29 -20 -126 -126t-136 -156q-12 -20 -25 -13l-35 19q-9 3 -6 18l129 365q7 22 29 22q15 0 47 -4q96 -12 555 -12q75 0 309 6q105 6 150 6q24 0 33 -16t-5 -33q-7 -8 -236 -328 t-465.5 -650.5t-252.5 -352.5h493q39 0 55.5 0.5t44.5 5.5t52 16q38 18 145.5 124t143.5 149q12 12 26 6l35 -18q7 -4 7 -10q0 -4 -3 -9q-16 -26 -79 -178t-76 -176q-3 -8 -11.5 -14.5t-15.5 -6.5q-11 0 -51 6q-79 10 -274.5 16.5t-348.5 6.5h-479q-39 0 -39 16z" />
<glyph unicode="[" horiz-adv-x="716" d="M162 -332v1843q0 19 20 19h441q12 0 12 -12v-50q0 -16 -17 -16h-204q-11 0 -16 -4.5t-5 -17.5v-1678q0 -17 3 -22.5t12 -5.5h231q16 0 16 -19v-43q0 -16 -18 -16h-453q-22 0 -22 22z" />
<glyph unicode="\" horiz-adv-x="768" d="M16 1430q-6 21 9 28l106 43q13 5 21 -10l600 -1442q9 -26 -4 -29l-111 -45q-6 -3 -12 2t-13 23z" />
<glyph unicode="]" horiz-adv-x="716" d="M61 -295q0 10 3 14.5t14 4.5h233q13 0 13 24v1682q0 13 -4 17.5t-15 4.5h-207q-16 0 -16 16v50q0 12 12 12h441q20 0 20 -19v-1843q0 -22 -23 -22h-452q-19 0 -19 16v43z" />
<glyph unicode="^" d="M29 512l436 856h96l436 -856h-180l-301 606h-10l-303 -606h-174z" />
<glyph unicode="_" d="M0 -154h1024v-102h-1024v102z" />
<glyph unicode="`" horiz-adv-x="471" d="M62 1248.5q-4 42.5 23 74t69 31.5q58 0 102 -70l152 -250q6 -10 0 -16l-29 -23q-6 -6 -14 2l-259 181q-40 28 -44 70.5z" />
<glyph unicode="a" horiz-adv-x="933" d="M68 594q0 94 57 143q72 65 174.5 108.5t218.5 43.5q91 0 132 -13.5t77 -46.5q57 -52 57 -174l4 -407q1 -56 5 -84t13.5 -41.5t29.5 -13.5q38 0 59 36q11 17 20 11l29 -17q9 -5 9 -15q0 -6 -3 -13q-8 -20 -22.5 -40.5t-39 -45t-62.5 -39.5t-83 -15q-143 0 -194 125h-10 q-39 -36 -78 -59.5t-99 -46.5q-56 -19 -147 -19q-55 0 -95 53.5t-40 135.5q0 163 176 250q24 11 61.5 29t52.5 25t39.5 19t35.5 17.5t26.5 14t26.5 15.5t22 15v108q0 84 -31 113q-28 25 -86 25q-59 0 -108 -33q-14 -9 -15.5 -23t4 -44.5t5.5 -53.5q0 -53 -36 -85t-97 -32 q-36 0 -62 20.5t-26 53.5zM338 233q0 -66 25.5 -99.5t62.5 -35.5q37 3 66.5 30t29.5 44v291q-9 -5 -32.5 -18t-31.5 -18t-27.5 -17t-27 -20t-21 -21.5t-19.5 -26t-13 -29.5t-9.5 -37t-2.5 -43z" />
<glyph unicode="b" horiz-adv-x="1075" d="M-20 1317v24q0 14 22 21q151 43 311 117q7 4 18.5 10t16.5 8.5t12.5 6t13 4.5t11.5 1q25 0 25 -34q0 -3 -4 -74t-8 -179.5t-5 -197.5l-4 -233q98 98 275 98q93 0 169 -51t121 -123q60 -94 60 -264q0 -80 -37 -165.5t-98 -155t-150 -114.5t-184 -45q-154 0 -281 54 l-84 -52q-8 -5 -17 -5l-7 1l-29 11q-11 3 -8 16q6 29 6 352v764q0 67 -10 104t-27.5 51.5t-52.5 24.5l-29 8q-26 7 -26 17zM391 436q0 -196 7 -241q6 -34 18 -58q48 -88 119 -88q121 0 170 107q12 27 19.5 50.5t10.5 47.5q3 26 3 40q0 5 1 11q0 13 -1 33q-1 30 -1 45 q0 97 -19 169.5t-51 112.5t-69.5 59t-79.5 19q-69 0 -127 -38v-269z" />
<glyph unicode="c" horiz-adv-x="892" d="M61 379q0 111 38 214.5t116 174.5q133 121 303 121q94 0 163 -21.5t102.5 -55t48 -64t14.5 -58.5q0 -43 -29 -69.5t-78 -26.5q-59 0 -96 31.5t-51 76.5q-18 54 -47.5 76.5t-73.5 22.5q-46 0 -90.5 -59.5t-44.5 -149.5v-24q0 -75 2 -113t17 -96.5t46 -114.5 q66 -119 220 -119q68 0 110 14t94 51q17 10 23 3l29 -29q3 -4 3 -9q0 -8 -6 -18q-33 -58 -145 -112t-242 -54q-220 0 -321 125q-58 71 -81.5 136.5t-23.5 146.5z" />
<glyph unicode="d" horiz-adv-x="1101" d="M61 360q0 129 30.5 217.5t113.5 180.5q119 131 303 131q91 0 166 -27l-8 414q-2 46 -29 72t-105 45q-14 2 -14 14v39q0 13 17 16q278 23 346 37q48 10 53 10q21 0 18 -36q-12 -153 -12 -689v-452q0 -154 21 -189q11 -19 33.5 -23.5t58.5 1.5q29 2 32 -15l7 -30 q3 -17 -15 -23l-307 -78q-19 -6 -29 19l-32 102q-48 -55 -127.5 -90t-147.5 -35q-84 0 -129.5 17t-114.5 82q-64 58 -96.5 126t-32.5 164zM328 516q0 -179 67 -294.5t164 -115.5q57 0 98 41q21 21 21 99l-6 372q0 66 -17 99q-23 41 -67 66.5t-88 25.5q-66 0 -107 -57 q-65 -90 -65 -236z" />
<glyph unicode="e" horiz-adv-x="923" d="M61 420q0 165 93 301q114 168 356 168q68 0 123.5 -18t91 -45.5t62.5 -64.5t40 -70t21.5 -68.5t10 -53.5t1.5 -30q0 -19 -13 -24t-50 -5h-469v-55q0 -153 76 -235.5t194 -82.5q73 0 132 31t91 82q7 17 21 6l35 -18q7 -3 7 -13q0 -13 -12 -37q-15 -31 -46 -66t-75.5 -70.5 t-108.5 -58t-132 -22.5q-218 0 -307 97q-80 86 -110.5 160t-31.5 192zM330 588h196q35 0 50.5 9t15.5 32q0 72 -27.5 125t-72.5 53q-141 0 -162 -219z" />
<glyph unicode="f" horiz-adv-x="667" d="M29 774l10 72q2 14 24 14h109v62q0 284 172 446q153 141 346 141q94 0 152.5 -37.5t58.5 -105.5q0 -44 -37 -73t-76 -29q-92 0 -137 77q-38 62 -73 62q-33 0 -56 -14t-47 -52q-11 -16 -16.5 -42.5t-7 -67.5t-1.5 -77t1.5 -98.5t1.5 -105.5v-86h237q10 0 13.5 -6.5 t1.5 -13.5l-11 -78q-2 -10 -26 -10h-215v-179q0 -33 -1.5 -139.5t-1.5 -171.5q-1 -13 -1 -26q0 -51 2 -101q3 -63 59 -63h74q13 0 17.5 -4t4.5 -13v-41q0 -20 -14 -20q-2 0 -14.5 0.5t-35 1.5t-53.5 2t-79.5 1.5t-104.5 0.5q-59 0 -118 -1.5t-96 -3t-40 -1.5q-16 0 -16 18 v45q0 15 20 15h68q55 0 55 67l-6 613h-131q-12 0 -12 17v5z" />
<glyph unicode="g" horiz-adv-x="1028" d="M14 -334q0 48 34 92.5t78.5 72.5t98.5 50v10q-69 21 -105 64.5t-36 99.5q0 129 182 217v7q-180 104 -180 311q0 53 22 103.5t66.5 95.5t124.5 72.5t184 27.5q62 0 116.5 -14t90.5 -37t53 -37t29 -27q36 30 87 51t93 21q55 0 84 -28.5t29 -78.5q0 -35 -27.5 -61.5 t-62.5 -26.5q-43 0 -64 35q-8 13 -24 22t-33 9q-20 0 -39 -19q25 -44 25 -133q0 -132 -92 -221q-54 -51 -130 -74.5t-147 -23.5q-70 0 -121 6q-76 -45 -76 -94q0 -52 54 -64q39 -9 138 -9q40 0 89 1h37q94 0 160 -12q78 -16 147 -70q100 -80 100 -207t-118 -227 q-65 -52 -180.5 -89.5t-258.5 -37.5q-87 0 -179.5 15.5t-147.5 47.5q-101 57 -101 160zM233 -285q0 -42 20.5 -79t51.5 -60q42 -30 89 -41.5t118 -11.5q105 0 186.5 50t81.5 124q0 167 -236 167q-14 0 -30 -1l-178 -8q-43 -10 -73 -51.5t-30 -88.5zM332 518q0 -45 12.5 -89 t32.5 -67q32 -40 94 -40q63 0 92 81.5t29 212.5q0 104 -19 138q-29 57 -100 57q-32 0 -54 -16t-46 -50q-41 -58 -41 -227z" />
<glyph unicode="h" horiz-adv-x="1146" d="M2 1313v26q0 15 35 25q124 36 309 125q45 20 64 20q24 0 18 -51q-6 -52 -6 -571v-123h14q37 58 107 91.5t155 33.5q66 0 112.5 -19t96.5 -61q14 -12 25.5 -25.5t20.5 -24.5t15.5 -29t11 -27t7.5 -32t4.5 -30.5t2.5 -35t1 -33.5v-38.5v-37.5v-127q0 -59 -2 -157t-2 -110 q0 -30 66 -30h39q22 0 22 -15v-43q0 -20 -16 -20q-2 0 -29 1.5t-79 3t-115 1.5q-62 0 -116 -1.5t-84 -3t-34 -1.5q-18 0 -18 22v39q0 17 14 17h27q16 0 31 9.5t18 29.5q6 87 6 198v125v34.5v38t-0.5 36.5t-1.5 39t-3.5 35.5t-6 35.5t-8 30t-11.5 27.5t-16 20.5 q-39 39 -96 39t-121 -72q-35 -44 -35 -100v-442q0 -84 31 -84h41q16 0 16 -17v-39q0 -22 -14 -22q-4 0 -37.5 1.5t-87.5 3t-107 1.5q-63 0 -118 -1.5t-86 -3t-35 -1.5q-15 0 -15 20v41q0 10 6.5 13.5t24.5 3.5h33q61 0 69 34q11 41 11 136l-4 852q0 78 -22.5 123t-74.5 65 l-37 12q-16 8 -16 19z" />
<glyph unicode="i" horiz-adv-x="593" d="M27 14v41q0 17 20 17h76q19 0 28.5 9t10.5 32q4 61 4 182l-4 287q0 48 -19.5 77.5t-79.5 51.5q-24 8 -24 28v23q0 9 22 16l306 99q35 12 55 12q24 0 20 -25q-4 -35 -4 -344v-219q0 -153 2 -176q3 -29 11.5 -41t25.5 -12h74q20 0 20 -19v-39q0 -20 -18 -20q-2 0 -38.5 1.5 t-104 3t-146.5 1.5q-52 0 -102 -1.5t-81 -3t-38 -1.5q-16 0 -16 20zM129 1184q0 50 45 87.5t109 37.5q68 0 106.5 -36t38.5 -83q0 -55 -39.5 -96.5t-116.5 -42.5h-6q-58 -1 -96 35q-40 38 -41 98z" />
<glyph unicode="j" horiz-adv-x="552" d="M-199 -434q0 40 31 79.5t74 39.5q39 0 68.5 -23.5t45.5 -54.5q32 -58 76 -58q52 0 58 119q7 143 7 328q0 73 -1 154l-6 411q-1 62 -21 86.5t-82 50.5l-20 9q-13 7 -13 14v29q0 9 17 16l323 111q32 12 62 12q21 0 21 -22q0 -6 -1 -13q-8 -36 -8 -358v-256q0 -313 -31 -453 q-28 -135 -155.5 -239.5t-265.5 -104.5q-75 0 -127 33t-52 90zM100 1192q0 55 47 99t129 44q66 0 112 -39.5t46 -99.5q0 -58 -46 -101.5t-124 -43.5q-66 0 -115 38.5t-49 102.5z" />
<glyph unicode="k" horiz-adv-x="1073" d="M16 1346v36q0 16 27 21q108 18 297 80q56 26 80 26q12 0 16 -7.5t2 -26.5q-6 -68 -10 -674l-2 -299q35 0 68 30q69 64 125.5 131t56.5 89q0 17 -15 26.5t-32 9.5t-17 19v43q0 16 15 16q2 0 29.5 -1.5t79 -3t110.5 -1.5q54 0 97.5 1.5t65.5 3t25 1.5q13 0 13 -18v-43 q0 -17 -13 -17h-24q-42 0 -117 -34q-42 -19 -130 -92t-132 -117q10 -12 110 -134t172.5 -205.5t98.5 -103.5q40 -30 108 -30q17 0 17 -19v-41q0 -18 -19 -18q-2 0 -28.5 1.5t-82.5 3t-130 1.5q-53 0 -105 -1.5t-83.5 -3t-35.5 -1.5q-14 0 -14 24v33q0 17 12 17h15 q20 0 20 24t-219 314q-19 24 -45 24v-305q0 -53 39 -53h39q18 0 18 -17v-43q0 -18 -16 -18q-2 0 -28 1.5t-75.5 3t-107.5 1.5q-63 0 -117 -1.5t-82.5 -3t-30.5 -1.5q-10 0 -10 20v39q0 19 21 19h39q20 0 32.5 14t12.5 35v1057q0 59 -20.5 92.5t-90.5 54.5q-29 9 -29 21z" />
<glyph unicode="l" horiz-adv-x="593" d="M-12 1329v31q0 13 18 16q69 13 195 54.5t170 64.5q32 14 45 14q21 0 18 -36q-4 -226 -4 -680v-383q0 -216 6 -275q1 -21 4.5 -33t15 -21t31.5 -9h70q23 0 23 -19v-39q0 -20 -13 -20q-2 0 -35.5 1.5t-96 3t-134.5 1.5q-76 0 -139 -1.5t-96.5 -3t-36.5 -1.5q-15 0 -15 24 v35q0 11 5 15t22 4h61q56 0 56 88v651q0 312 -4 365q-3 49 -31 75.5t-82 42.5l-37 13q-16 7 -16 22z" />
<glyph unicode="m" horiz-adv-x="1685" d="M43 12v41q0 12 4 15.5t21 3.5h57q15 0 26.5 14.5t12.5 36.5q2 35 2 139v258q0 67 -14 99t-52 55l-41 24q-14 8 -14 17v24q0 13 12 19l265 116q34 15 47 15q23 0 28 -27l17 -117h10q45 64 121.5 104t169.5 40q91 0 147 -36.5t101 -107.5h10q54 63 126 100.5t148 37.5 q72 0 112.5 -15t86.5 -63q26 -26 33 -33.5t22.5 -31.5t19.5 -47.5t8.5 -66t4.5 -102.5v-147q0 -53 -8 -225q-1 -40 15.5 -60t43.5 -20h41q13 0 18 -4t5 -15v-39q0 -20 -15 -20q-2 0 -27 1.5t-76.5 3t-117.5 1.5q-54 0 -103 -1.5t-77 -3t-31 -1.5q-16 0 -16 24v35q0 19 12 19 h19q13 0 26 9.5t14 29.5q11 129 11 196v197q0 97 -6.5 137t-26.5 61q-26 29 -46 39.5t-54 10.5q-26 0 -54 -14.5t-36.5 -21.5t-32.5 -30q-31 -35 -31 -129v-405q0 -80 35 -80h37q13 0 17.5 -4t4.5 -15v-37q0 -22 -14 -22q-3 0 -26 1.5t-67.5 3t-99.5 1.5q-67 0 -122 -1.5 t-82.5 -3t-28.5 -1.5q-14 0 -14 20v37q0 13 3.5 17t16.5 4h29q24 0 36.5 31t12.5 114v303q0 170 -45 211q-25 25 -96 25q-30 0 -62 -18.5t-51 -45.5q-33 -50 -33 -149v-17v-329q0 -125 43 -125h19q13 0 16.5 -4t3.5 -15v-37q0 -22 -16 -22q-4 0 -29.5 1.5t-75.5 3t-114 1.5 q-60 0 -111 -1.5t-78.5 -3t-30.5 -1.5q-16 0 -16 18z" />
<glyph unicode="n" horiz-adv-x="1157" d="M51 717v18q0 13 19 21l262 118q40 15 47 15q9 0 17.5 -7.5t11.5 -17.5l22 -88h16q35 41 99 74q70 39 157 39q148 0 211 -58q60 -56 76.5 -102.5t16.5 -130.5v-217q0 -76 -9 -238q-1 -40 15 -55.5t35 -15.5h55q22 0 22 -19v-37q0 -22 -16 -22q-2 0 -29 1.5t-84 3t-129 1.5 q-60 0 -110 -1.5t-76.5 -3t-28.5 -1.5q-16 0 -16 22v37q0 19 27 19h22q32 0 37 47q12 79 12 213v219q0 66 -9.5 104.5t-39.5 65.5q-41 37 -100 37q-51 0 -105 -41q-41 -30 -41 -158l-4 -420q0 -28 9.5 -47.5t23.5 -19.5h27q20 0 20 -21v-39q0 -18 -14 -18q-2 0 -26 1.5 t-71.5 3t-107.5 1.5q-64 0 -116.5 -1.5t-79 -3t-27.5 -1.5q-15 0 -15 18v41q0 19 21 19h31q57 0 57 41v454q0 79 -82 119l-18 8q-15 8 -15 23z" />
<glyph unicode="o" horiz-adv-x="1075" d="M61 444q0 79 45.5 176.5t131.5 163.5q133 105 305 105q103 0 180.5 -31.5t148.5 -97.5q142 -128 142 -326q0 -178 -131 -319q-138 -144 -357 -144q-118 0 -199.5 32t-156.5 118q-109 120 -109 323zM352 430q0 -94 10.5 -158t40.5 -127q22 -45 52 -66.5t84 -21.5 q81 0 122 107t41 285q0 170 -50 262t-122 92q-74 0 -110 -55q-68 -104 -68 -318z" />
<glyph unicode="p" horiz-adv-x="1103" d="M27 723v27q0 8 14 14l266 104q7 3 22.5 9.5t24.5 9t17 2.5q15 0 24 -43l15 -76h8q40 49 113 84t147 35q83 0 143 -25t111 -80q65 -71 89 -133q21 -55 21 -132v-19q1 -230 -134 -379.5t-333 -149.5q-97 0 -153 33l2 -313q1 -81 9.5 -119.5t21.5 -47.5t41 -9h51 q18 0 18 -21v-39q0 -18 -18 -18q-2 0 -13 0.5t-31.5 1.5t-49 2t-73 1.5t-95.5 0.5q-66 0 -121.5 -1.5t-84.5 -3t-32 -1.5q-18 0 -18 20v41q0 17 24 17h47q48 0 54 53q4 45 4 223l-2 756q0 56 -12.5 82.5t-55.5 50.5l-47 25q-14 8 -14 18zM422 217q0 -29 13.5 -62.5 t41.5 -56.5q58 -47 123 -47q71 0 116.5 67t45.5 206q0 34 -1 64.5t-6.5 75.5t-14 81.5t-24.5 75.5t-37.5 66t-55 44t-74.5 17q-32 0 -68 -14.5t-59 -41.5v-475z" />
<glyph unicode="q" horiz-adv-x="1093" d="M61 369q0 253 185 417q113 103 286 103q118 0 218 -47l190 51q4 1 8 1q8 0 13 -5l16 -17q7 -7 0 -30q-5 -16 -16 -135q-7 -79 -7 -314v-454q0 -310 7 -365q10 -59 47 -59h43q20 0 20 -13v-49q0 -16 -14 -16q-3 0 -34.5 1.5t-92 3t-133.5 1.5q-66 0 -121 -1.5t-83.5 -3 t-31.5 -1.5q-9 0 -12.5 4.5t-3.5 17.5v41q0 15 22 15h54q50 0 53 39q8 124 8 278l2 211h-12q-93 -72 -246 -72q-53 0 -103.5 13.5t-98.5 44.5t-83.5 76t-57.5 113t-22 151zM338 397q1 -58 21.5 -112.5t68.5 -114.5q25 -30 58 -51t59 -21q84 0 137 43v490q0 64 -52 124 t-110 60q-48 -1 -85 -31t-56.5 -75.5t-29.5 -89.5t-11 -82q-1 -47 -1 -86q0 -29 1 -54z" />
<glyph unicode="r" horiz-adv-x="749" d="M25 14v39q0 11 4.5 15t17.5 4h59q49 0 54 49q4 57 4 231v170q0 65 -18 99t-64 61l-35 20q-16 8 -16 19v18q0 12 16 17l287 125q24 8 33 8q20 0 24 -25l19 -159h14q46 98 110 147t134 49q47 0 77.5 -33t30.5 -86q0 -42 -40.5 -79t-90.5 -37q-47 0 -74 18q-22 14 -51 14 q-37 0 -53 -36q-35 -71 -35 -121v-385q0 -46 15.5 -65t48.5 -19h84q14 0 14 -19v-41q0 -18 -10 -18l-36 2q-35 1 -104.5 2.5t-150.5 1.5q-70 0 -130.5 -1.5t-92.5 -3t-33 -1.5q-12 0 -12 20z" />
<glyph unicode="s" horiz-adv-x="794" d="M84 254q0 12 14 16l37 11q9 3 15 -9l81 -120q34 -49 74.5 -77t104.5 -28q56 0 88 35t32 90q0 58 -41.5 87t-150.5 63q-120 35 -185 96t-65 164q0 155 107 233q60 43 109 58.5t116 15.5q127 0 215 -43q34 -15 37 -39l28 -152q3 -13 -8 -18l-37 -16q-8 -6 -20 6l-115 123 q-59 59 -127 59q-49 0 -85 -30.5t-36 -80.5q3 -54 35.5 -78t145.5 -55q62 -17 88.5 -26t60 -28.5t62.5 -51.5q38 -38 51.5 -77t13.5 -97q0 -138 -101 -226t-266 -88q-76 0 -144.5 20.5t-94.5 39.5q-9 7 -12 26z" />
<glyph unicode="t" horiz-adv-x="698" d="M18 766q0 29 45 51q49 22 152 111.5t164 158.5q18 21 39 21q26 0 26 -31l-8 -217h260q10 0 14 -6q3 -4 2 -7q0 -2 -1 -5l-21 -88q-4 -17 -18 -17h-240q-4 -84 -4 -276v-162q0 -113 33.5 -159t79.5 -46q60 0 106 25q11 7 19 -8l14 -31q9 -14 -8 -27q-115 -82 -287 -82 q-100 0 -163.5 58t-63.5 133q0 35 2 150t2 155l2 270h-113q-33 0 -33 29z" />
<glyph unicode="u" horiz-adv-x="1120" d="M23 803v41q0 9 4.5 12.5t17.5 3.5h299q13 0 29 4q4 0 11.5 1t10.5 1q11 0 17.5 -7t5.5 -17q-8 -72 -8 -277v-110q0 -9 -1 -55q0 -23 -0.5 -40.5t0.5 -30.5q1 -25 4 -65.5t12.5 -71t23.5 -53.5q5 -7 10 -12.5t9 -10t9.5 -7.5t9 -5.5t10.5 -4t9.5 -2t10.5 -1t10 -0.5h11h11 q26 0 56.5 18.5t53.5 47.5q13 15 23 37t10 37l-2 481q0 64 -88 71q-35 3 -35 15v39q0 12 4.5 15t20.5 3h305q15 0 35 4q6 0 14 1t10 1q9 0 15 -6t4 -14q-12 -108 -12 -279v-151q0 -199 4 -236q3 -29 11 -46t14 -21t12 -4q42 0 67 6q21 5 25 -9l6 -38q1 -3 1 -5 q0 -10 -11 -12l-287 -71q-27 -9 -45 -9q-31 0 -35 25l-12 110h-13q-31 -55 -109.5 -95t-160.5 -40q-39 0 -59.5 2t-50 10t-54.5 28.5t-51 54.5q-13 17 -23 34t-18 29.5t-14 31.5t-10 28.5t-6.5 32t-4 31.5t-2 37t-0.5 37.5v45.5v49l2 90q0 160 -2 205q-1 33 -22.5 50 t-46.5 21q-7 1 -18 3q-10 1 -13.5 2t-7.5 2t-5 3t-1 5z" />
<glyph unicode="v" horiz-adv-x="970" d="M-43 809v41q0 10 4.5 13t18.5 3q4 0 28.5 -1.5t86 -3t155.5 -1.5q61 0 109 1.5t74 3t32 1.5q12 0 16 -3.5t4 -12.5v-41q0 -21 -14 -21h-27q-22 0 -37.5 -9t-15.5 -25q0 -37 76 -238l88 -221h12q18 39 77.5 183t86.5 218q6 16 6 30q-1 18 -11 34q-18 28 -46 28h-37 q-8 0 -8 21v41q0 16 12 16q2 0 63 -3t136 -3q47 0 86 1.5t61 3t27 1.5q12 0 15 -3t3 -15v-39q0 -21 -10 -21h-35q-66 0 -94 -30q-42 -46 -174 -322q-12 -25 -102.5 -219t-96.5 -207q-21 -41 -53 -41q-19 0 -31 12t-28 39q-13 20 -99 207t-96 211q-11 27 -60.5 143t-58.5 132 q-27 44 -45 59.5t-45 15.5h-41q-12 0 -12 21z" />
<glyph unicode="w" horiz-adv-x="1396" d="M-37 807v43q0 16 12 16q8 0 34 -1.5t79.5 -3t130.5 -1.5q60 0 117.5 3t64.5 3q17 0 17 -16v-45q0 -17 -17 -17h-26q-14 0 -19.5 -12.5t0.5 -34.5l140 -424h12l125 320q8 21 2 61t-21 60q-14 18 -53 18h-14q-17 0 -17 17v45q0 16 19 16q4 0 30.5 -1.5t75 -3t105.5 -1.5 q52 0 93 1.5t62 3t25 1.5q18 0 18 -12v-45q0 -21 -12 -21h-28q-13 0 -23 -13.5t-4 -31.5l145 -403h8l111 311q17 52 17 85q0 17 -4 29q-14 35 -58 35h-29q-12 0 -12 17v47q0 14 14 14q2 0 26 -1.5t68 -3t95 -1.5q52 0 98 3t51 3q15 0 15 -18v-43q0 -17 -15 -17h-20 q-65 0 -84 -43q-6 -13 -151.5 -360.5t-164.5 -388.5q-12 -27 -47 -27q-16 0 -25 10.5t-20 38.5l-207 527h-12l-229 -543q-14 -33 -49 -33q-25 0 -41 41l-297 723q-21 55 -72 55h-25q-14 0 -14 19z" />
<glyph unicode="x" horiz-adv-x="880" d="M-63 16v37q0 19 16 19h33q43 0 90 32q28 18 118 124.5t132 164.5q-68 110 -147 222t-109 145q-25 28 -70 28h-29q-14 0 -14 15v45q0 11 3 14.5t13 3.5q2 0 28.5 -1.5t82 -3t129.5 -1.5q42 0 85.5 1.5t71.5 3t33 1.5q13 0 13 -18v-39q0 -18 -10 -18h-15q-17 -1 -16.5 -22 t14.5 -44l96 -160l99 135q20 27 20 51q0 5 -2 11q-6 28 -37 29h-24q-13 0 -13 16v43q0 16 11 16q2 0 58.5 -3t119.5 -3q41 0 74 1.5t50 3t21 1.5q19 0 19 -20v-41q0 -17 -17 -17h-24q-60 0 -88 -30q-3 -4 -29.5 -31.5t-54.5 -57.5t-67 -77.5t-71 -93.5q19 -26 118.5 -174.5 t152.5 -208.5q37 -43 73 -43h33q11 0 11 -17v-45q0 -16 -15 -16q-3 0 -26 1.5t-76.5 3t-132.5 1.5q-53 0 -99 -1.5t-72.5 -3t-33.5 -1.5q-17 0 -17 18v39q0 21 17 21h6q18 0 24 18.5t-6 40.5l-114 188q-22 -24 -42.5 -51t-36.5 -51t-26.5 -41.5t-20.5 -35.5t-11 -19 q-14 -20 -5 -34.5t41 -14.5h25q10 0 10 -17v-45q0 -16 -14 -16q-5 0 -28 1.5t-61.5 3t-82.5 1.5q-49 0 -85.5 -1.5t-55.5 -3t-25 -1.5q-11 0 -14.5 5t-3.5 17z" />
<glyph unicode="y" horiz-adv-x="905" d="M-41 807v45q0 14 16 14q3 0 28.5 -1.5t82 -3t135.5 -1.5q55 0 102 1.5t74.5 3t34.5 1.5q11 0 15 -4t4 -14v-43q0 -17 -13 -17h-28q-19 0 -29.5 -12t-7.5 -35q4 -23 62 -224.5t73 -250.5h10q36 83 100 246t74 195q11 39 -3.5 60t-47.5 21h-33q-14 0 -14 17v45q0 16 12 16 q2 0 59 -3t126 -3q51 0 101 3t54 3q12 0 12 -20v-39q0 -19 -10 -19h-22q-46 0 -76 -40q-39 -52 -336 -691q-195 -418 -231 -479q-15 -25 -22 -36t-26.5 -34t-37 -34t-46 -21t-61.5 -10q-56 0 -91.5 31.5t-35.5 87.5q0 50 30 83t70 33q47 0 87 -22q23 -15 41 -15q13 0 24 7 q14 10 73 131t79 178q-10 46 -133.5 358.5t-153.5 384.5q-35 88 -72 88h-33q-16 0 -16 19z" />
<glyph unicode="z" horiz-adv-x="929" d="M27 600l114 295q87 -19 119 -23q91 -12 279 -12h317q15 0 21 -13t-3 -28l-487 -745h184q130 0 312 211q15 17 26 10l27 -21q7 -5 7 -11q0 -4 -3 -9l-137 -279q-48 17 -236 21q-102 4 -250 4h-239q-23 0 -23 16q0 13 15 37l475 735h-144q-60 0 -97.5 -13t-89.5 -60.5 t-134 -149.5q-10 -13 -25 -2l-24 17q-6 4 -6 11q0 4 2 9z" />
<glyph unicode="{" horiz-adv-x="716" d="M72 608q0 39 41 39q77 0 106 43t29 129q0 60 -41 189t-41 198q0 78 23.5 136t75.5 101t141.5 65t216.5 22q45 0 45 -29q0 -35 -25 -35q-120 0 -182 -60t-62 -165q0 -71 26 -174t26 -152q0 -83 -34 -149.5t-87 -95.5l-25 -12.5l-24 -12t-18.5 -10.5t-14 -12.5t-4.5 -14.5 q0 -12 13 -21.5t37 -21t38 -22.5q63 -46 91 -102t28 -138q0 -49 -25 -164q-27 -106 -27 -184q2 -116 63 -181t179 -65q16 0 21.5 -8t5.5 -27q0 -15 -8.5 -21.5t-38.5 -6.5q-129 0 -218.5 22t-140.5 65.5t-73.5 101t-22.5 136.5q0 82 20.5 157t41 137.5t20.5 115.5 q0 182 -135 192q-41 3 -41 35z" />
<glyph unicode="|" horiz-adv-x="716" d="M285 -512v2054q0 19 12 19h123q14 0 14 -25v-2048q0 -20 -10 -20h-127q-12 0 -12 20z" />
<glyph unicode="}" horiz-adv-x="716" d="M49 -326q0 35 25 35q120 0 181.5 59.5t61.5 165.5q0 97 -25.5 210t-25.5 157q0 87 33.5 151t87.5 93q12 7 31 16.5l29 14.5t18 13.5t8 18.5q0 12 -13 21.5t-37 21.5t-38 23q-63 46 -91 102t-28 137q0 64 27 162q24 106 24 166q-2 102 -63.5 163.5t-177.5 61.5 q-16 0 -21.5 8t-5.5 27q0 15 8.5 22t38.5 7q129 0 218.5 -22t140.5 -66t73.5 -101.5t22.5 -136.5t-41 -192t-41 -176q0 -183 135 -193q41 -3 41 -35q0 -39 -41 -39q-77 0 -106 -43t-29 -129q0 -15 2 -32.5t4 -29.5t7.5 -33.5t7.5 -29.5t10 -34.5t10 -32.5q41 -144 41 -236 q0 -78 -23.5 -135.5t-75.5 -100.5t-141.5 -65t-216.5 -22q-45 0 -45 28z" />
<glyph unicode="~" d="M106 309q0 172 63.5 260t158.5 88q77 0 149 -45l90 -57q4 -2 19 -12.5t24 -15.5t24 -12.5t29.5 -11t30.5 -3.5q49 0 68 41.5t16 132.5h140q0 -180 -57.5 -263t-147.5 -83t-178 57l-80 49q-3 2 -19 11.5t-24 14t-22.5 11t-27.5 9.5t-26 3q-43 0 -68 -43t-22 -131h-140z " />
<glyph unicode="&#xa1;" horiz-adv-x="532" d="M106 -375q0 37 60 356t67 425q0 14 15 14h37q14 0 14 -21q7 -105 61 -420.5t54 -353.5q0 -83 -37 -132.5t-115 -49.5q-81 0 -118.5 44t-37.5 138zM131 741q0 55 38 101.5t114 46.5q67 0 106 -43t39 -107q0 -59 -40 -96t-114 -37q-60 0 -101.5 37t-41.5 98z" />
<glyph unicode="&#xa2;" d="M82 653q0 60 18.5 122.5t56.5 121.5t91.5 107t128.5 82t162 44l8 197q0 12 12 12h64q10 0 10 -10l-8 -194q70 -1 125.5 -15t88.5 -34.5t55 -47t30 -50t8 -46.5q-2 -52 -27.5 -76t-83.5 -24q-51 0 -82 24t-43 60q-18 53 -34 77t-41 33l-33 -671q50 -5 57 -5q137 0 244 84 q14 11 18 2l33 -32q10 -10 -6 -25q-51 -63 -142 -113t-210 -53l-11 -237q0 -11 -10 -11h-63q-11 0 -11 11l11 239q-111 6 -178.5 35.5t-124.5 93.5q-68 77 -90.5 144.5t-22.5 154.5zM360 741q0 -168 89 -299q23 -28 55 -51l31 658q-67 -2 -121 -80t-54 -228z" />
<glyph unicode="&#xa3;" d="M-80 41q0 60 61.5 128.5t120.5 80.5q19 19 50 91t55 142h-146q-18 0 -18 15v59q0 12 14 12h174q7 13 34.5 103t62.5 206t55 171q55 149 184 249.5t289 100.5q123 0 185.5 -52.5t62.5 -123.5q0 -42 -28 -67.5t-70 -25.5q-97 0 -134 76q-7 14 -15 48.5t-21.5 50.5t-44.5 16 q-29 0 -50.5 -58.5t-70.5 -256.5q-46 -189 -215 -437h293q11 0 14.5 -2.5t3.5 -9.5v-59q0 -15 -21 -15h-350q-80 -124 -194 -219v-4q42 4 77 5.5t62.5 2.5t54.5 -4t43.5 -7t39.5 -13.5t33 -16t33.5 -23t32 -25.5t36.5 -32.5t40 -35.5q27 -25 40 -35t34 -20.5t41 -10.5t37 19 t22 40q6 22 -1.5 29.5t-26.5 7.5q-47 0 -75 23.5t-28 62.5q0 50 34.5 86.5t78.5 36.5q62 0 105.5 -44t43.5 -107q0 -42 -14 -81t-45 -76.5t-90 -60t-139 -22.5q-142 0 -212.5 28t-164.5 122q-8 8 -22 22.5t-20 20.5t-16 15t-16 12.5t-14 8t-15.5 5.5t-15.5 0 q-13 -46 -57 -115q-56 -88 -137 -88q-60 0 -60 51z" />
<glyph unicode="&#xa4;" d="M31 289q-12 12 2 24l168 162q-33 34 -56 90.5t-24 116.5q7 149 86 233l-170 152q-18 18 -4 35l69 74q10 13 25 -2l180 -170q34 23 97.5 39t125.5 16q115 0 195 -55l172 167q11 11 23 0l67 -67q15 -14 4 -25l-164 -153q34 -39 56 -103t22 -121q0 -65 -21 -126.5 t-59 -102.5l172 -166q8 -8 -2 -22l-67 -72q-11 -14 -29 0l-176 166q-37 -27 -99 -42t-120 -15q-131 0 -213 63l-168 -174q-5 -5 -12.5 -4t-12.5 6zM311 690q0 -93 56 -159t147 -66q99 0 151 61t52 164q0 98 -52.5 161.5t-146.5 63.5q-100 0 -153.5 -64.5t-53.5 -160.5z" />
<glyph unicode="&#xa5;" d="M-74 1309v53q0 12 15 12q5 0 39 -1.5t89 -3t109 -1.5q75 0 136 1.5t92.5 3t35.5 1.5q15 0 15 -10v-51q0 -19 -15 -19h-30q-58 0 -58 -47q0 -20 87.5 -232.5t133.5 -316.5h5q13 34 71.5 164.5t108 243.5t49.5 127q0 61 -70 61h-49q-14 0 -14 19v49q0 12 14 12l72 -3 q73 -3 133 -3q62 0 108.5 1.5t69.5 3t27 1.5q16 0 16 -12v-49q0 -19 -16 -19h-37q-19 0 -46.5 -14.5t-49.5 -34.5q-17 -15 -131 -225t-197 -369h276q13 0 13 -10v-63q0 -11 -15 -11h-288v-127h290q13 0 13 -10v-63q0 -11 -17 -11h-286v-47q0 -103 4 -164q2 -31 14 -47.5 t25 -20t34 -3.5h70q14 0 14 -15v-47q0 -10 -2 -14t-12 -4q-7 0 -40 1.5t-91.5 3t-126.5 1.5q-90 0 -156 -1.5t-97 -3t-36 -1.5q-12 0 -12 16v49q0 15 14 15h80q63 0 66 51q2 29 2 180v51h-285q-10 0 -10 11v63q0 10 10 10h285v127h-287q-8 0 -8 11v63q0 10 14 10h254 q-15 31 -81.5 172t-127 267t-76.5 155q-12 21 -39 35t-53 14h-30q-15 0 -15 15z" />
<glyph unicode="&#xa6;" horiz-adv-x="716" d="M285 -338v676q0 20 18 20h119q12 0 12 -20v-676q0 -20 -18 -20h-119q-12 0 -12 20zM285 686v678q0 18 12 18h123q14 0 14 -24v-672q0 -20 -18 -20h-119q-12 0 -12 20z" />
<glyph unicode="&#xa7;" horiz-adv-x="1105" d="M131 694q0 93 54 169.5t130 109.5q-65 65 -65 211q0 95 82 188q58 63 132.5 86t184.5 23q107 0 177.5 -40t70.5 -100q0 -50 -29 -72t-86 -22q-42 0 -64.5 19t-55.5 71q-41 66 -93 66q-55 2 -99 -46t-44 -126q0 -19 3.5 -36.5t14 -34.5t18.5 -30t29 -31t33.5 -28.5t44 -31 t47.5 -30.5t56.5 -35.5t60.5 -37.5q127 -80 186 -162t58 -199q1 -116 -54 -185t-145 -109q49 -58 68.5 -111t19.5 -119q0 -132 -100 -235q-47 -48 -129.5 -70t-165.5 -22q-119 0 -192.5 34t-73.5 97q0 47 25.5 72.5t72.5 25.5q78 0 127 -74q27 -40 52 -57t59 -17q49 0 90 44 t41 114q0 49 -18 89.5t-56 76t-75.5 63t-98 70t-102.5 76.5q-191 150 -191 356zM285 780q0 -44 25.5 -85.5t84.5 -94.5q64 -50 151 -113t127.5 -95t55.5 -54q37 12 62.5 48.5t25.5 74.5q0 24 -3 40t-14.5 41.5t-40.5 55t-75 64.5q-47 32 -109 73.5t-89 59.5t-59.5 42.5 t-49 42t-29.5 38.5q-63 -41 -63 -138z" />
<glyph unicode="&#xa8;" horiz-adv-x="749" d="M61 1176q0 40 31.5 78t100.5 38q50 0 84 -33.5t34 -93.5q0 -53 -33 -83.5t-85 -30.5q-51 0 -91.5 29t-40.5 96zM440 1176q0 40 31.5 78t101.5 38q49 0 82 -33.5t33 -93.5q0 -52 -33 -83t-82 -31q-51 0 -92 29t-41 96z" />
<glyph unicode="&#xa9;" horiz-adv-x="1689" d="M96 725q0 158 59 299t159.5 241t239 158t292.5 58q161 0 300 -55.5t237.5 -154t155 -239.5t56.5 -307q0 -126 -34 -241t-99 -208.5t-155.5 -162.5t-208.5 -106.5t-252 -37.5q-168 0 -310 59t-237.5 161t-149 240t-53.5 296zM225 725q0 -141 40.5 -256t104.5 -188 t147.5 -123t165.5 -71t163 -21q133 0 241 41t177 107.5t116 154t66.5 176.5t19.5 180q0 115 -28 214t-76 169.5t-109.5 124.5t-132 86.5t-139.5 48.5t-135 16q-131 0 -245 -47t-197 -131.5t-131 -209t-48 -271.5zM397 731q0 194 135 320q135 129 334 129q70 0 127.5 -17.5 t83.5 -38.5q20 -14 27 0l8 33q3 8 39 8q8 0 10.5 -3.5t3.5 -16.5q2 -25 14.5 -133.5t16.5 -132.5q4 -14 -8 -17l-31 -8q-13 -3 -18 10q-42 97 -103 160q-37 40 -75.5 55t-94.5 15q-94 0 -160.5 -96.5t-62.5 -235.5q2 -70 21 -145t59 -113q94 -94 192 -94q159 0 275 104 q20 20 29 12l24 -20q9 -6 -2 -25q-148 -207 -381 -207q-98 0 -183 29.5t-142 83.5q-138 138 -138 344z" />
<glyph unicode="&#xaa;" horiz-adv-x="747" d="M66 979q0 76 104 133q51 29 101.5 41t125.5 12q226 0 226 -182q0 -15 -2.5 -89t-2.5 -85v-49q0 -52 5 -82.5t13 -40.5t21 -10q4 0 7.5 0.5t7 3t6 4t5.5 5t4.5 5.5t4 7t3.5 6.5t3.5 7t3.5 6.5q7 11 17 4l26 -12q16 -4 5 -23q-44 -100 -172 -100q-57 0 -87 20.5t-53 59.5 l-2 4q-75 -71 -143 -80q-25 -4 -94 -4q-46 0 -83.5 40t-37.5 87q0 107 162 174l186 76l4 81q0 47 -31.5 71t-83.5 24q-22 0 -42 -9.5t-29 -25.5q-4 -8 -4 -19.5t2 -28t2 -26.5q0 -28 -29 -47.5t-78 -19.5q-71 0 -71 61zM276 707q0 -42 15 -59t51 -17q47 0 88 63l-4 162 q-82 -37 -112 -66q-38 -37 -38 -83z" />
<glyph unicode="&#xab;" horiz-adv-x="890" d="M57 436q0 10 19 29l286 301q8 8 13 8q4 0 10 -6l49 -33q6 -6 6 -8l-6 -12l-131 -281l133 -282q4 -12 4 -13q0 -5 -6 -8l-51 -35q-2 -2 -8 -2t-13 10l-288 302q-17 20 -17 30zM426 436q0 11 18 29l287 301q8 8 12 8q5 0 11 -6l49 -33q6 -6 6 -8l-6 -12l-131 -281l133 -282 q4 -12 4 -13q0 -5 -6 -8l-51 -35q-2 -2 -9 -2q-5 0 -12 10l-289 302q-16 19 -16 30z" />
<glyph unicode="&#xac;" d="M106 592v156h814v-498h-168v342h-646z" />
<glyph unicode="&#xad;" horiz-adv-x="819" d="M102 483v131q0 15 19 15h571q25 0 25 -23v-119q0 -14 -21 -14h-577q-17 0 -17 10z" />
<glyph unicode="&#xae;" horiz-adv-x="1150" d="M92 1012q0 200 138 334.5t345 134.5q215 0 349.5 -131t134.5 -338q0 -202 -134 -336.5t-350 -134.5q-148 0 -259 63t-167.5 169t-56.5 239zM184 1012q0 -86 24.5 -155.5t64 -114t91.5 -75t104.5 -43t106.5 -12.5q87 0 156.5 25.5t112.5 65.5t71.5 94t40 107t11.5 108 q-3 83 -28.5 151.5t-64.5 113.5t-90.5 75.5t-103.5 43.5t-105 13q-173 0 -282 -108.5t-109 -288.5zM332 752v22q0 6 4 6h18q18 0 27.5 9t9.5 36v394q0 36 -37 36h-14q-6 0 -6 7v24q0 6 6 6q1 0 47 -2t57 -2q7 0 70 2t70 2q124 0 174 -43q37 -40 37 -92q0 -45 -26.5 -80 t-55 -50t-58.5 -23v-3q0 -3 8.5 -8t19.5 -10.5t15 -9.5q31 -36 66 -96q25 -45 55 -80q15 -17 37 -17q6 0 6 -8v-20q0 -7 -8 -7l-23 1q-23 2 -34 2q-21 0 -50 -1.5t-34 -1.5q-17 11 -37 43q-4 6 -28.5 47t-29.5 50q-41 81 -57 96q-11 10 -22 10h-17v-45q0 -123 4 -135 q0 -12 4.5 -21.5t10.5 -9.5h37q6 0 6 -6v-22q0 -7 -11 -7q-2 0 -23 0.5t-50 1.5t-51 1t-65 -2l-44 -1q-8 0 -8 7zM522 1024h17q36 -1 62 13t38 35.5t17.5 39t5.5 31.5q0 47 -35.5 80.5t-67.5 33.5q-5 0 -17 -1t-20 -1v-231z" />
<glyph unicode="&#xaf;" horiz-adv-x="608" d="M61 1063v121q0 14 17 14h450q19 0 19 -14v-121q0 -14 -23 -14h-446q-17 0 -17 14z" />
<glyph unicode="&#xb0;" horiz-adv-x="655" d="M82 1251q0 98 68.5 164t177.5 66q116 0 181.5 -60t65.5 -157q0 -103 -69.5 -168.5t-179.5 -65.5q-112 0 -178 61.5t-66 159.5zM203 1255q0 -54 39 -93.5t86 -39.5q53 0 90 39t37 94q0 56 -38 95t-89 39q-49 0 -87 -39t-38 -95z" />
<glyph unicode="&#xb1;" d="M106 10v156h814v-156h-814zM106 596v156h324v266h168v-266h322v-156h-322v-285h-168v285h-324z" />
<glyph unicode="&#xb2;" horiz-adv-x="737" d="M-10 834q-4 15 8 24q144 114 270 268q119 140 119 267q0 59 -33.5 101t-95.5 42q-82 0 -156 -78q-10 -10 -14.5 -12t-13.5 2l-23 14q-8 5 -2 17q12 25 33 51.5t58.5 59t96 53t128.5 20.5q114 0 190 -59.5t76 -171.5q0 -149 -178 -297q-60 -50 -101.5 -81t-75.5 -53 t-40 -26v-4h190q85 0 122.5 16t63.5 53q11 16 35 7q25 -8 17 -27l-84 -213q-5 -12 -29 -12q-21 0 -27 12q-9 16 -147 16h-258q-27 0 -69 -2t-44 -2q-12 0 -16 15z" />
<glyph unicode="&#xb3;" horiz-adv-x="737" d="M37 944q0 30 22 53t50 23t46.5 -14t23.5 -27t11 -35q9 -37 34.5 -55.5t60.5 -18.5q50 0 92.5 47t42.5 113q0 166 -148 195q-20 4 -27 11t-7 19q0 18 5.5 25t22.5 8q60 8 91.5 53t31.5 91q0 54 -30.5 88t-73.5 34q-76 0 -146 -94q-17 -21 -24 -16l-31 14q-12 6 -8 21 q8 26 29.5 55t56 59.5t89.5 50t118 19.5q121 0 181 -52t60 -114q0 -73 -49 -126.5t-135 -82.5v-4q98 -12 163.5 -70.5t65.5 -138.5q0 -122 -106.5 -196t-296.5 -74q-115 0 -165 41t-50 98z" />
<glyph unicode="&#xb4;" horiz-adv-x="471" d="M63 1018q-6 6 0 16l152 250q44 70 102 70q43 0 70 -31.5t22.5 -74t-44.5 -70.5l-259 -181q-8 -8 -14 -2z" />
<glyph unicode="&#xb5;" horiz-adv-x="1105" d="M131 827q0 15 9 24t24 9h201q41 0 41 -37v-372q0 -11 -1 -53.5t0 -67t4 -61.5t12 -66.5t23 -52.5q20 -32 42.5 -42t56.5 -10q29 0 64 19t59 51t24 72l-8 395q-1 65 -4.5 121.5t-3.5 70.5q0 16 11.5 24.5t27.5 8.5h192q22 0 35.5 -11t13.5 -30q0 -7 -1 -42.5t-2 -93.5 t-1 -120v-145q0 -199 2 -238q3 -45 13.5 -64.5t31.5 -19.5q25 0 60 17q12 9 16 -7l17 -30q6 -10 -21 -37q-28 -26 -77 -47t-111 -21q-58 0 -107.5 42.5t-64.5 101.5h-15q-31 -61 -89.5 -102.5t-112.5 -41.5q-86 0 -125 37l-5 -4q0 -105 6 -209.5t12.5 -171.5t6.5 -80 q0 -19 -6 -29t-23 -16l-149 -45q-39 -10 -57 -10q-15 0 -15 31q0 142 5 425.5t5 424.5v86q0 97 -4 191.5t-8 154t-4 71.5z" />
<glyph unicode="&#xb6;" horiz-adv-x="1175" d="M102 958q0 118 36.5 205t100.5 141.5t166 87.5t217.5 45.5t270.5 12.5h178q25 0 32 -2.5t7 -11.5v-39q0 -14 -14 -17l-121 -4v-1636q0 -9 -2.5 -12.5t-11.5 -3.5h-72q-9 0 -12 5t-3 25v1620q-69 0 -131 -8v-1614q0 -17 -2.5 -22.5t-11.5 -5.5h-72q-9 0 -11.5 6.5 t-2.5 25.5v717q-46 3 -88 9t-98.5 21t-103.5 36.5t-95 59t-81 85.5t-54 118.5t-21 155.5z" />
<glyph unicode="&#xb7;" horiz-adv-x="573" d="M125 729q0 55 43 105.5t123 50.5q66 0 112 -46t46 -118q0 -68 -44.5 -111t-111.5 -43q-72 0 -120 46t-48 116z" />
<glyph unicode="&#xb8;" horiz-adv-x="548" d="M61 -442q0 28 66 28q61 0 106.5 29.5t45.5 81.5q0 37 -31.5 60.5t-95.5 39.5l163 213h117l-119 -145q81 -13 127.5 -55t46.5 -93q0 -63 -54 -109.5t-140 -68.5t-191 -22q-41 0 -41 41z" />
<glyph unicode="&#xb9;" horiz-adv-x="737" d="M92 1481q-3 9 8 14l377 156q32 12 37 12q16 0 16 -18l-1 -59q-1 -58 -2 -145t-1 -157v-319q0 -48 10.5 -60t49.5 -12h49q12 0 12 -12v-52q0 -10 -14 -10q-2 0 -53 1t-109 2t-78 1q-15 0 -73.5 -1t-111 -2t-54.5 -1q-13 0 -13 15v51q0 8 21 8h57q49 0 59.5 9.5t12.5 53.5 l2 267v45q0 104 -4 147q-2 18 -10.5 32.5t-22.5 14.5q-27 0 -59 -12l-62 -23q-16 -5 -22 7z" />
<glyph unicode="&#xba;" horiz-adv-x="808" d="M63 856q0 59 25.5 121.5t83.5 107.5q100 80 246 80q54 0 123 -23.5t106 -54.5q98 -80 98 -225q0 -144 -99.5 -232.5t-258.5 -88.5q-69 0 -134.5 26t-111.5 74q-78 81 -78 215zM285 881q0 -126 20 -201q10 -37 38.5 -57.5t62.5 -22.5q50 -3 81 62.5t31 164.5 q0 130 -30 205.5t-72 75.5q-26 0 -50.5 -12.5t-35.5 -28.5q-45 -68 -45 -186z" />
<glyph unicode="&#xbb;" horiz-adv-x="890" d="M82 141q0 1 6 13l131 280l-133 283l-4 12q0 5 6 8l51 35q2 2 8 2t13 -10l289 -301q16 -19 16 -31q0 -10 -19 -29l-286 -301q-8 -8 -13 -8q-4 0 -10 6l-49 33q-6 6 -6 8zM451 141q0 1 6 13l131 280l-133 283l-4 12q0 5 6 8l51 35q2 2 8 2q5 0 12 -10l289 -301 q17 -20 17 -31q0 -10 -19 -29l-287 -301q-8 -8 -12 -8t-10 6l-49 33q-6 6 -6 8z" />
<glyph unicode="&#xbc;" horiz-adv-x="1638" d="M51 1217q-3 9 8 14l377 155q35 13 37 13q16 0 16 -19l-1 -58q-1 -58 -2 -145t-1 -157v-320q1 -49 11 -60t49 -11h49q12 0 12 -13v-51q0 -10 -14 -10q-2 0 -53 1t-109 2t-78 1q-15 0 -73.5 -1t-111 -2t-54.5 -1q-13 0 -13 14v52q0 8 21 8h57q49 0 59.5 9.5t12.5 53.5 q0 7 1 130.5t1 135.5v46q0 104 -4 147q-2 18 -10.5 32.5t-22.5 14.5q-19 0 -59 -12l-62 -23q-16 -5 -22 6zM397 31q0 4 13 26l821 1325q9 17 16 17q10 0 19 -6l61 -35q8 -5 8 -15q0 -7 -8 -20l-827 -1337q-8 -17 -19 -17q-10 0 -16 6l-55 39q-13 9 -13 17zM834 201 q0 18 28 53l492 559q27 27 43 27q15 0 21.5 -10.5t6.5 -36.5v-471h105q14 0 14 -19v-110q0 -21 -20 -21h-99v-149q0 -14 -3 -18.5t-13 -4.5h-156q-16 0 -16 20v152h-369q-14 0 -24 8t-10 21zM1027.5 331q4.5 -9 21.5 -9h188v210q-2 13 -8.5 18t-14.5 2t-16 -13l-164 -187 q-11 -12 -6.5 -21z" />
<glyph unicode="&#xbd;" horiz-adv-x="1638" d="M20 1217q-3 8 9 14l377 155q35 13 36 13q17 0 17 -19l-1 -58q-1 -58 -2 -145t-1 -157v-320q1 -49 10.5 -60t48.5 -11h49q12 0 12 -13v-51q0 -10 -14 -10q-2 0 -53 1t-108.5 2t-77.5 1q-15 0 -73.5 -1t-111.5 -2t-55 -1q-12 0 -12 14v52q0 8 20 8h57q49 0 59.5 9.5 t12.5 53.5q0 7 1 130.5t1 135.5v46q0 104 -4 147q-2 18 -10.5 32.5t-22.5 14.5q-18 0 -59 -12l-62 -23q-16 -5 -22 6zM340 31q0 6 12 26l822 1325q8 17 16 17q9 0 18 -6l62 -35q8 -5 8 -15q0 -7 -8 -20l-828 -1337q-8 -17 -18 -17t-16 6l-56 39q-12 8 -12 17zM920 12 q0 17 20 33q45 34 118.5 104t141.5 154q119 140 119 266q0 59 -33.5 101.5t-95.5 42.5q-82 0 -156 -78q-10 -11 -14.5 -13t-13.5 3l-23 14q-8 5 -2 16q12 25 33 51.5t58 59t95.5 53.5t128.5 21q114 0 190.5 -60t76.5 -172q0 -139 -179 -297q-61 -48 -101 -77.5t-78 -55.5 l-38 -26v-5h191q85 0 122.5 16.5t63.5 53.5q11 15 35 6q24 -8 16 -26l-84 -213q-5 -13 -28 -13q-21 0 -27 13q-9 16 -147 16h-258q-27 0 -69 -2t-44 -2q-18 0 -18 16z" />
<glyph unicode="&#xbe;" horiz-adv-x="1638" d="M47 680q0 30 22 53t50 23q22 0 37 -7t24 -20t13 -23t8 -26q17 -74 94 -74q49 0 90 46.5t41 113.5q0 84 -34 132t-109 63q-20 4 -27.5 11t-7.5 19q0 18 5.5 25t22.5 8q60 8 91.5 52.5t31.5 90.5q0 54 -31 88.5t-75 34.5q-80 0 -150 -94q-17 -21 -24 -16l-31 14 q-12 6 -8 20q7 20 20 42.5t38 48.5t57 46.5t78.5 34t99.5 13.5q126 0 188 -52t62 -114q0 -73 -50.5 -126.5t-136.5 -82.5v-4q99 -12 165.5 -70.5t66.5 -138.5q0 -122 -107 -196t-299 -74q-115 0 -165 41t-50 98zM401 31q0 4 13 26l821 1325q9 17 16 17q10 0 19 -6l61 -35 q8 -5 8 -15q0 -7 -8 -20l-827 -1337q-8 -17 -19 -17q-10 0 -16 6l-55 39q-13 9 -13 17zM854 201q0 17 29 53l491 559q27 27 43 27q29 0 29 -47v-471h104q15 0 15 -19v-110q0 -21 -21 -21h-98v-149q0 -14 -3 -18.5t-13 -4.5h-156q-17 0 -17 20v152h-368q-14 0 -24.5 8 t-10.5 21zM1048 331q4 -9 21 -9h188v210q-2 13 -8 18t-14 2t-16 -13l-164 -187q-11 -12 -7 -21z" />
<glyph unicode="&#xbf;" horiz-adv-x="747" d="M76 -12q0 46 9.5 84.5t23 66t38 49.5t46 35.5t55 23.5t56.5 14.5t59.5 7t55.5 3t53 0.5h7q17 0 17 17v157q0 15 14 15h51q14 0 14 -15v-409q0 -33 -32 -27q-35 6 -125 6q-47 0 -88.5 -11t-74 -40.5t-32.5 -73.5q0 -59 29 -94t86 -59q107 -43 213 -43q66 0 110 -34t44 -95 q0 -53 -33 -88t-94 -35q-70 0 -158 49.5t-164 125t-128 176.5t-52 194zM367 750q0 58 40 98.5t111 40.5q64 0 107 -38t43 -99t-39.5 -97.5t-114.5 -36.5q-72 1 -109.5 36t-37.5 96z" />
<glyph unicode="&#xc0;" horiz-adv-x="1484" d="M-78 20v39q0 19 15 19h53q79 0 139 90q20 30 102 229t140 351q18 47 103 273.5t97 262.5q15 49 2 70q-14 19 -14 26q0 14 21 19q54 11 130.5 44t98.5 58q19 19 27 19q13 0 22 -35q19 -62 118.5 -356.5t119.5 -362.5q36 -122 112 -338.5t97 -257.5q24 -47 57.5 -69.5 t60.5 -22.5h70q14 0 14 -19v-39q0 -26 -18 -26q-10 0 -43 1.5t-109.5 3t-191.5 1.5q-101 0 -190 -3t-93 -3q-22 0 -22 26v39q0 19 12 19h57q42 0 56.5 17.5t5.5 56.5q-13 52 -57.5 199.5t-65.5 209.5h-449q-15 -40 -38 -107t-50.5 -159.5t-27.5 -122.5q0 -39 18.5 -66.5 t60.5 -27.5h72q23 0 23 -17v-45q0 -13 -3.5 -17.5t-15.5 -4.5q-7 0 -42.5 1.5t-98.5 3t-137 1.5q-66 0 -115 -1.5t-74 -3t-34 -1.5q-15 0 -15 26zM387 1833q0 40 28.5 73t73.5 33q52 0 93 -41l266 -276q10 -6 2 -14l-27 -33q-5 -5 -14 0l-348 162q-30 13 -52 40t-22 56z M426 643h403q-57 192 -153 543q-12 45 -23 45q-15 0 -24 -27q-177 -477 -203 -561z" />
<glyph unicode="&#xc1;" horiz-adv-x="1484" d="M-78 20v39q0 19 15 19h53q79 0 139 90q20 30 102 229t140 351q18 47 103 273.5t97 262.5q15 49 2 70q-14 19 -14 26q0 14 21 19q54 11 130.5 44t98.5 58q19 19 27 19q13 0 22 -35q19 -62 118.5 -356.5t119.5 -362.5q36 -122 112 -338.5t97 -257.5q24 -47 57.5 -69.5 t60.5 -22.5h70q14 0 14 -19v-39q0 -26 -18 -26q-10 0 -43 1.5t-109.5 3t-191.5 1.5q-101 0 -190 -3t-93 -3q-22 0 -22 26v39q0 19 12 19h57q42 0 56.5 17.5t5.5 56.5q-13 52 -57.5 199.5t-65.5 209.5h-449q-15 -40 -38 -107t-50.5 -159.5t-27.5 -122.5q0 -39 18.5 -66.5 t60.5 -27.5h72q23 0 23 -17v-45q0 -13 -3.5 -17.5t-15.5 -4.5q-7 0 -42.5 1.5t-98.5 3t-137 1.5q-66 0 -115 -1.5t-74 -3t-34 -1.5q-15 0 -15 26zM426 643h403q-57 192 -153 543q-12 45 -23 45q-15 0 -24 -27q-177 -477 -203 -561zM616 1608q-6 6 2 14l267 276q36 41 92 41 q42 0 71 -30.5t29 -71.5q0 -26 -23 -54t-53 -42l-344 -166q-9 -5 -14 0z" />
<glyph unicode="&#xc2;" horiz-adv-x="1484" d="M-78 20v39q0 19 15 19h53q79 0 139 90q20 30 102 229t140 351q18 47 103 273.5t97 262.5q15 49 2 70q-14 19 -14 26q0 14 21 19q54 11 130.5 44t98.5 58q19 19 27 19q13 0 22 -35q19 -62 118.5 -356.5t119.5 -362.5q36 -122 112 -338.5t97 -257.5q24 -47 57.5 -69.5 t60.5 -22.5h70q14 0 14 -19v-39q0 -26 -18 -26q-10 0 -43 1.5t-109.5 3t-191.5 1.5q-101 0 -190 -3t-93 -3q-22 0 -22 26v39q0 19 12 19h57q42 0 56.5 17.5t5.5 56.5q-13 52 -57.5 199.5t-65.5 209.5h-449q-15 -40 -38 -107t-50.5 -159.5t-27.5 -122.5q0 -39 18.5 -66.5 t60.5 -27.5h72q23 0 23 -17v-45q0 -13 -3.5 -17.5t-15.5 -4.5q-7 0 -42.5 1.5t-98.5 3t-137 1.5q-66 0 -115 -1.5t-74 -3t-34 -1.5q-15 0 -15 26zM426 643h403q-57 192 -153 543q-12 45 -23 45q-15 0 -24 -27q-177 -477 -203 -561zM455 1597q-5 8 6 19l272 268q24 19 27 19 q7 0 39 -29l270 -260q8 -8 2 -17l-14 -18q-6 -9 -19 -2l-282 111l-264 -111q-14 -7 -21 0z" />
<glyph unicode="&#xc3;" horiz-adv-x="1484" d="M-78 20v39q0 19 15 19h53q79 0 139 90q20 30 102 229t140 351q18 47 103 273.5t97 262.5q15 49 2 70q-14 19 -14 26q0 14 21 19q54 11 130.5 44t98.5 58q19 19 27 19q13 0 22 -35q19 -62 118.5 -356.5t119.5 -362.5q36 -122 112 -338.5t97 -257.5q24 -47 57.5 -69.5 t60.5 -22.5h70q14 0 14 -19v-39q0 -26 -18 -26q-10 0 -43 1.5t-109.5 3t-191.5 1.5q-101 0 -190 -3t-93 -3q-22 0 -22 26v39q0 19 12 19h57q42 0 56.5 17.5t5.5 56.5q-13 52 -57.5 199.5t-65.5 209.5h-449q-15 -40 -38 -107t-50.5 -159.5t-27.5 -122.5q0 -39 18.5 -66.5 t60.5 -27.5h72q23 0 23 -17v-45q0 -13 -3.5 -17.5t-15.5 -4.5q-7 0 -42.5 1.5t-98.5 3t-137 1.5q-66 0 -115 -1.5t-74 -3t-34 -1.5q-15 0 -15 26zM383 1616q11 100 63 165.5t129 65.5q15 0 36 -3t35 -6t55 -13t63 -15q35 -8 72 -18t57.5 -15t36.5 -5q35 0 51 21t23 58 q3 13 14 13h35q11 0 8 -37q-7 -82 -52.5 -149.5t-113.5 -67.5q-62 0 -209 39q-20 5 -46.5 12t-38 10t-27 6.5t-25.5 4.5t-21 1q-30 0 -53.5 -24t-32.5 -68q-2 -10 -14 -10h-37q-11 0 -8 35zM426 643h403q-57 192 -153 543q-12 45 -23 45q-15 0 -24 -27q-177 -477 -203 -561z " />
<glyph unicode="&#xc4;" horiz-adv-x="1484" d="M-78 20v39q0 19 15 19h53q79 0 139 90q20 30 102 229t140 351q18 47 103 273.5t97 262.5q15 49 2 70q-14 19 -14 26q0 14 21 19q54 11 130.5 44t98.5 58q19 19 27 19q13 0 22 -35q19 -62 118.5 -356.5t119.5 -362.5q36 -122 112 -338.5t97 -257.5q24 -47 57.5 -69.5 t60.5 -22.5h70q14 0 14 -19v-39q0 -26 -18 -26q-10 0 -43 1.5t-109.5 3t-191.5 1.5q-101 0 -190 -3t-93 -3q-22 0 -22 26v39q0 19 12 19h57q42 0 56.5 17.5t5.5 56.5q-13 52 -57.5 199.5t-65.5 209.5h-449q-15 -40 -38 -107t-50.5 -159.5t-27.5 -122.5q0 -39 18.5 -66.5 t60.5 -27.5h72q23 0 23 -17v-45q0 -13 -3.5 -17.5t-15.5 -4.5q-7 0 -42.5 1.5t-98.5 3t-137 1.5q-66 0 -115 -1.5t-74 -3t-34 -1.5q-15 0 -15 26zM389 1739q0 40 32.5 78t102.5 38q49 0 83 -32.5t34 -91.5q0 -47 -35 -83t-82 -36q-23 0 -44.5 6t-43 19t-34.5 39.5t-13 62.5z M426 643h403q-57 192 -153 543q-12 45 -23 45q-15 0 -24 -27q-177 -477 -203 -561zM844 1739q0 40 32.5 78t102.5 38q50 0 84.5 -32.5t34.5 -91.5q0 -48 -34.5 -83.5t-84.5 -35.5q-23 0 -44.5 6t-43 19t-34.5 39.5t-13 62.5z" />
<glyph unicode="&#xc5;" horiz-adv-x="1484" d="M-78 20v39q0 19 15 19h53q79 0 139 90q20 30 102 229t140 351q18 47 103 273.5t97 262.5q15 49 2 70q-14 19 -14 26q0 14 21 17q165 24 206 35q13 4 30 11t24 7q18 0 28 -27q5 -15 105 -297t123 -360q36 -122 112 -338.5t97 -257.5q24 -47 57.5 -69.5t60.5 -22.5h70 q14 0 14 -19v-39q0 -26 -18 -26q-10 0 -43 1.5t-109.5 3t-191.5 1.5q-101 0 -190 -3t-93 -3q-22 0 -22 26v39q0 19 12 19h57q42 0 56.5 17.5t5.5 56.5q-13 52 -57.5 199.5t-65.5 209.5h-449q-15 -40 -38 -107t-50.5 -159.5t-27.5 -122.5q0 -39 18.5 -66.5t60.5 -27.5h72 q23 0 23 -17v-45q0 -13 -3.5 -17.5t-15.5 -4.5q-7 0 -42.5 1.5t-98.5 3t-137 1.5q-66 0 -115 -1.5t-74 -3t-34 -1.5q-15 0 -15 26zM426 643h403q-57 192 -153 543q-12 45 -23 45q-15 0 -24 -27q-177 -477 -203 -561zM477 1722q0 87 80.5 140t192.5 53q113 0 184.5 -48 t71.5 -124q0 -56 -26 -96.5t-68.5 -61t-87.5 -30t-93 -9.5q-104 0 -179 47t-75 129zM641 1733q0 -57 26 -87t74 -30q47 0 74 29t27 88q0 55 -29.5 83.5t-67.5 28.5q-49 -1 -76.5 -32.5t-27.5 -79.5z" />
<glyph unicode="&#xc6;" horiz-adv-x="1961" d="M-141 25v34q0 19 14 19h59q19 0 41.5 16.5t32.5 28t37 45.5q23 30 140.5 233.5t193.5 343.5q29 52 101.5 179t131 230t68.5 124q19 44 7 70t-40 26h-31q-18 0 -18 19v45q0 11 5 14.5t17 3.5q2 0 28 -1t54 -1q94 -4 236 -4h719q21 0 49 4q10 0 21 1t12 1q13 0 16 -10 t22.5 -90t38.5 -155.5t23 -84.5q5 -13 -6 -20l-33 -17q-15 -7 -24 8q-10 15 -110 113t-132 117q-83 52 -156 55l-270 8l-6 -651q159 0 209 12q62 14 94 56q18 25 32.5 62t14.5 65q0 18 16 18l56 -6q6 -1 9 -2.5t5.5 -4.5t1.5 -9q-6 -35 -6 -213q0 -105 12 -234q1 -8 -3 -11 t-13 -5l-49 -11q-6 -2 -10 2.5t-7 14.5q-9 38 -41 104q-17 28 -48.5 47.5t-63.5 24.5q-96 11 -209 8v-55q0 -65 4 -201t4 -145q3 -134 51 -156q47 -18 172 -18q99 0 164 6q83 8 156 67q35 29 102 100.5t107 119.5q12 12 20 6l35 -21q11 -6 8 -16l-92 -309q-10 -31 -45 -31 q-2 0 -29.5 0.5t-86 1.5t-145 2t-235.5 1.5t-329 0.5q-109 0 -201 -3l-92 -3q-21 0 -21 22v43q0 19 19 19h96q31 0 40 16.5t9 69.5v483h-387q-98 -171 -203 -432q-14 -39 -14 -90q0 -23 19.5 -35t41.5 -12h56q20 0 20 -17v-45q0 -13 -3.5 -17.5t-14.5 -4.5q-7 0 -33 1.5 t-77.5 3t-119.5 1.5q-77 0 -149.5 -3t-73.5 -3q-14 0 -14 31zM471 729h340v553q0 29 -14 29q-7 0 -21 -21z" />
<glyph unicode="&#xc7;" horiz-adv-x="1519" d="M74 705q0 328 211 555q207 221 561 221q128 0 238 -26t173 -60q37 -18 43 2l17 51q3 9 9 10.5t30 1.5q23 0 29 -5.5t6 -27.5q0 -29 19.5 -215t27.5 -233q3 -24 -11 -27l-45 -12q-14 -6 -24 23q-42 149 -164 274q-158 154 -352 154q-108 0 -192 -47t-133.5 -128 t-74.5 -182.5t-24 -218.5q0 -76 14 -162t57.5 -193.5t110.5 -178.5q150 -154 320 -154q165 0 293 63.5t190 155.5q17 27 31 16l34 -30q12 -8 0 -25q-98 -142 -243.5 -236t-333.5 -100l-98 -125q96 -17 145 -57.5t49 -95.5q0 -93 -120.5 -145t-305.5 -52q-30 0 -40.5 10.5 t-10.5 30.5t20 27.5t62 7.5q57 0 104 29.5t47 79.5q0 34 -35 61t-92 39l150 192q-161 10 -267.5 55.5t-201.5 129.5q-107 95 -165 249t-58 298z" />
<glyph unicode="&#xc8;" horiz-adv-x="1423" d="M76 16v43q0 19 20 19h62q69 0 85.5 15t16.5 71v686q0 382 -6 442q-6 48 -23.5 64t-60.5 16h-80q-10 0 -10 21v49q0 14 14 14q5 0 98.5 -3t204.5 -3l719 2q19 0 49.5 2t32.5 2q13 0 16 -10t22.5 -90t38.5 -155.5t23 -84.5q5 -13 -6 -20l-32 -17q-16 -8 -25 8 q-10 15 -110 113t-132 117q-83 52 -155 55l-271 8l-6 -596q155 0 209 13q51 12 94 63q18 25 32.5 62t14.5 65q0 19 17 19l55 -7q6 -1 9 -2.5t5.5 -4.5t1.5 -9q-6 -35 -6 -213q0 -93 13 -233q2 -13 -17 -17l-49 -10q-6 -2 -9.5 2t-6.5 14q-10 40 -41 105q-16 28 -48 47 t-65 24q-89 13 -209 13v-123q0 -65 5 -201t5 -145q0 -134 50 -156q47 -18 172 -18q99 0 163 6q83 8 156 67q35 29 102 100.5t107 119.5q12 12 20 6l35 -21q11 -6 8 -16l-92 -309q-10 -31 -45 -31q-3 0 -21.5 0.5t-63 1.5t-101.5 2q-39 0 -269.5 1t-435.5 1q-42 0 -100 -1 t-74 -1q-86 -4 -88 -4q-18 0 -18 22zM459 1833q0 40 28.5 73t73.5 33q51 0 92 -41l267 -276q10 -6 2 -14l-27 -33q-5 -5 -14 0l-349 162q-29 13 -51 40t-22 56z" />
<glyph unicode="&#xc9;" horiz-adv-x="1423" d="M76 16v43q0 19 20 19h62q69 0 85.5 15t16.5 71v686q0 382 -6 442q-6 48 -23.5 64t-60.5 16h-80q-10 0 -10 21v49q0 14 14 14q5 0 98.5 -3t204.5 -3l719 2q19 0 49.5 2t32.5 2q13 0 16 -10t22.5 -90t38.5 -155.5t23 -84.5q5 -13 -6 -20l-32 -17q-16 -8 -25 8 q-10 15 -110 113t-132 117q-83 52 -155 55l-271 8l-6 -596q155 0 209 13q51 12 94 63q18 25 32.5 62t14.5 65q0 19 17 19l55 -7q6 -1 9 -2.5t5.5 -4.5t1.5 -9q-6 -35 -6 -213q0 -93 13 -233q2 -13 -17 -17l-49 -10q-6 -2 -9.5 2t-6.5 14q-10 40 -41 105q-16 28 -48 47 t-65 24q-89 13 -209 13v-123q0 -65 5 -201t5 -145q0 -134 50 -156q47 -18 172 -18q99 0 163 6q83 8 156 67q35 29 102 100.5t107 119.5q12 12 20 6l35 -21q11 -6 8 -16l-92 -309q-10 -31 -45 -31q-3 0 -21.5 0.5t-63 1.5t-101.5 2q-39 0 -269.5 1t-435.5 1q-42 0 -100 -1 t-74 -1q-86 -4 -88 -4q-18 0 -18 22zM657 1608q-6 6 2 14l267 276q36 41 92 41q42 0 71 -30.5t29 -71.5q0 -26 -23 -54t-53 -42l-344 -166q-9 -5 -14 0z" />
<glyph unicode="&#xca;" horiz-adv-x="1423" d="M76 16v43q0 19 20 19h62q69 0 85.5 15t16.5 71v686q0 382 -6 442q-6 48 -23.5 64t-60.5 16h-80q-10 0 -10 21v49q0 14 14 14q5 0 98.5 -3t204.5 -3l719 2q19 0 49.5 2t32.5 2q13 0 16 -10t22.5 -90t38.5 -155.5t23 -84.5q5 -13 -6 -20l-32 -17q-16 -8 -25 8 q-10 15 -110 113t-132 117q-83 52 -155 55l-271 8l-6 -596q155 0 209 13q51 12 94 63q18 25 32.5 62t14.5 65q0 19 17 19l55 -7q6 -1 9 -2.5t5.5 -4.5t1.5 -9q-6 -35 -6 -213q0 -93 13 -233q2 -13 -17 -17l-49 -10q-6 -2 -9.5 2t-6.5 14q-10 40 -41 105q-16 28 -48 47 t-65 24q-89 13 -209 13v-123q0 -65 5 -201t5 -145q0 -134 50 -156q47 -18 172 -18q99 0 163 6q83 8 156 67q35 29 102 100.5t107 119.5q12 12 20 6l35 -21q11 -6 8 -16l-92 -309q-10 -31 -45 -31q-3 0 -21.5 0.5t-63 1.5t-101.5 2q-39 0 -269.5 1t-435.5 1q-42 0 -100 -1 t-74 -1q-86 -4 -88 -4q-18 0 -18 22zM434 1597q-5 8 6 19l273 268q24 19 26 19q7 0 39 -29l271 -260q8 -8 2 -17l-15 -18q-6 -8 -18 -2l-283 111l-264 -111q-13 -7 -20 0z" />
<glyph unicode="&#xcb;" horiz-adv-x="1423" d="M76 16v43q0 19 20 19h62q69 0 85.5 15t16.5 71v686q0 382 -6 442q-6 48 -23.5 64t-60.5 16h-80q-10 0 -10 21v49q0 14 14 14q5 0 98.5 -3t204.5 -3l719 2q19 0 49.5 2t32.5 2q13 0 16 -10t22.5 -90t38.5 -155.5t23 -84.5q5 -13 -6 -20l-32 -17q-16 -8 -25 8 q-10 15 -110 113t-132 117q-83 52 -155 55l-271 8l-6 -596q155 0 209 13q51 12 94 63q18 25 32.5 62t14.5 65q0 19 17 19l55 -7q6 -1 9 -2.5t5.5 -4.5t1.5 -9q-6 -35 -6 -213q0 -93 13 -233q2 -13 -17 -17l-49 -10q-6 -2 -9.5 2t-6.5 14q-10 40 -41 105q-16 28 -48 47 t-65 24q-89 13 -209 13v-123q0 -65 5 -201t5 -145q0 -134 50 -156q47 -18 172 -18q99 0 163 6q83 8 156 67q35 29 102 100.5t107 119.5q12 12 20 6l35 -21q11 -6 8 -16l-92 -309q-10 -31 -45 -31q-3 0 -21.5 0.5t-63 1.5t-101.5 2q-39 0 -269.5 1t-435.5 1q-42 0 -100 -1 t-74 -1q-86 -4 -88 -4q-18 0 -18 22zM379 1739q0 40 32.5 78t102.5 38q49 0 83 -32.5t34 -91.5q0 -47 -35 -83t-82 -36q-23 0 -44.5 6t-43 19t-34.5 39.5t-13 62.5zM834 1739q0 40 32.5 78t102.5 38q50 0 84 -32.5t34 -91.5q0 -48 -34 -83.5t-84 -35.5q-23 0 -44.5 6t-43 19 t-34.5 39.5t-13 62.5z" />
<glyph unicode="&#xcc;" horiz-adv-x="849" d="M70 1833q0 40 28.5 73t73.5 33q51 0 92 -41l266 -276q10 -6 2 -14l-26 -33q-5 -5 -14 0l-349 162q-29 13 -51 40t-22 56zM82 1384v60q0 12 14 12q6 0 47.5 -1.5t117.5 -3t165 -1.5q92 0 160.5 1.5t102 3t40.5 1.5q14 0 14 -18v-52q0 -14 -16 -14h-59q-82 0 -82 -53 q0 -9 -3 -247t-3 -251v-157q0 -10 3 -256.5t3 -255.5q0 -44 17.5 -59t51.5 -15h84q17 0 17 -15v-57q0 -12 -19 -12q-6 0 -41.5 1.5t-104.5 3t-155 1.5q-95 0 -170 -1.5t-113 -3t-42 -1.5q-17 0 -17 16v56q0 12 17 12h59q38 0 62.5 11t29.5 44q3 21 6.5 253.5t3.5 328.5v143 q0 42 -3.5 234t-4.5 211q-3 37 -19 53t-48 16h-99q-16 0 -16 12z" />
<glyph unicode="&#xcd;" horiz-adv-x="849" d="M82 1384v60q0 12 14 12q6 0 47.5 -1.5t117.5 -3t165 -1.5q92 0 160.5 1.5t102 3t40.5 1.5q14 0 14 -18v-52q0 -14 -16 -14h-59q-82 0 -82 -53q0 -9 -3 -247t-3 -251v-157q0 -10 3 -256.5t3 -255.5q0 -44 17.5 -59t51.5 -15h84q17 0 17 -15v-57q0 -12 -19 -12 q-6 0 -41.5 1.5t-104.5 3t-155 1.5q-95 0 -170 -1.5t-113 -3t-42 -1.5q-17 0 -17 16v56q0 12 17 12h59q38 0 62.5 11t29.5 44q3 21 6.5 253.5t3.5 328.5v143q0 42 -3.5 234t-4.5 211q-3 37 -19 53t-48 16h-99q-16 0 -16 12zM360 1608q-6 6 2 14l267 276q36 41 92 41 q42 0 71 -30.5t29 -71.5q0 -26 -23 -54t-53 -42l-344 -166q-9 -5 -14 0z" />
<glyph unicode="&#xce;" horiz-adv-x="849" d="M82 1384v60q0 12 14 12q6 0 47.5 -1.5t117.5 -3t165 -1.5q92 0 160.5 1.5t102 3t40.5 1.5q14 0 14 -18v-52q0 -14 -16 -14h-59q-82 0 -82 -53q0 -9 -3 -247t-3 -251v-157q0 -10 3 -256.5t3 -255.5q0 -44 17.5 -59t51.5 -15h84q17 0 17 -15v-57q0 -12 -19 -12 q-6 0 -41.5 1.5t-104.5 3t-155 1.5q-95 0 -170 -1.5t-113 -3t-42 -1.5q-17 0 -17 16v56q0 12 17 12h59q38 0 62.5 11t29.5 44q3 21 6.5 253.5t3.5 328.5v143q0 42 -3.5 234t-4.5 211q-3 37 -19 53t-48 16h-99q-16 0 -16 12zM117 1597q-5 8 6 19l272 268q24 19 27 19 q7 0 39 -29l270 -260q8 -8 2 -17l-14 -18q-6 -9 -19 -2l-282 111l-264 -111q-14 -7 -21 0z" />
<glyph unicode="&#xcf;" horiz-adv-x="849" d="M72 1739q0 40 32.5 78t102.5 38q49 0 83 -32.5t34 -91.5q0 -47 -35 -83t-82 -36q-23 0 -44.5 6t-43 19t-34.5 39.5t-13 62.5zM82 1384v60q0 12 14 12q6 0 47.5 -1.5t117.5 -3t165 -1.5q92 0 160.5 1.5t102 3t40.5 1.5q14 0 14 -18v-52q0 -14 -16 -14h-59q-82 0 -82 -53 q0 -9 -3 -247t-3 -251v-157q0 -10 3 -256.5t3 -255.5q0 -44 17.5 -59t51.5 -15h84q17 0 17 -15v-57q0 -12 -19 -12q-6 0 -41.5 1.5t-104.5 3t-155 1.5q-95 0 -170 -1.5t-113 -3t-42 -1.5q-17 0 -17 16v56q0 12 17 12h59q38 0 62.5 11t29.5 44q3 21 6.5 253.5t3.5 328.5v143 q0 42 -3.5 234t-4.5 211q-3 37 -19 53t-48 16h-99q-16 0 -16 12zM526 1739q0 40 33 78t103 38q50 0 84 -32.5t34 -91.5q0 -48 -34 -83.5t-84 -35.5q-32 0 -60.5 9.5t-52 40t-23.5 77.5z" />
<glyph unicode="&#xd0;" horiz-adv-x="1722" d="M47 12v54q0 12 16 12h107q60 0 66 45q5 25 9.5 191t4.5 309v57h-170q-8 0 -8 16v66q0 12 12 12h166v166q0 50 -3.5 202t-6.5 173q-4 34 -21 45.5t-47 11.5h-102q-17 0 -17 14v60q0 10 15 10q6 0 45 -1.5t112.5 -3t163.5 -1.5q27 0 154.5 3t150.5 3q240 0 401.5 -38.5 t293.5 -147.5q229 -192 229 -520q0 -172 -49.5 -298.5t-153.5 -240.5q-56 -62 -135 -106t-146.5 -64.5t-156.5 -32t-132.5 -13t-107.5 -1.5q-7 0 -164 3t-223 3q-78 0 -143.5 -1.5t-101.5 -3t-44 -1.5q-14 0 -14 18zM557 635q0 -141 4 -395q0 -61 33 -115q34 -47 166 -47 q220 0 383 201q66 83 105.5 205.5t39.5 260.5q0 123 -46 244.5t-120 202.5q-80 88 -190 137t-217 49q-83 0 -115 -14q-22 -10 -30.5 -30t-10.5 -60q-2 -86 -2 -387v-113h299q12 0 12 -14v-70q0 -10 -16 -10h-295v-45z" />
<glyph unicode="&#xd1;" horiz-adv-x="1658" d="M8 1389v55q0 12 12 12q1 0 22 -1t44 -1q82 -4 213 -4q41 0 95 2t61 2q35 0 59 -27q15 -18 225.5 -275t249.5 -306q13 -16 175.5 -219t174.5 -217h9v186q0 206 -7 385q-2 68 -8 178.5t-10 132.5q-9 37 -40.5 58.5t-68.5 21.5h-65q-12 0 -12 19v51q0 8 3.5 11t14.5 3 q6 0 35 -1.5t83.5 -3t121.5 -1.5q54 0 97 1.5t66.5 3t30.5 1.5q13 0 17 -3.5t4 -12.5v-49q0 -19 -11 -19h-57q-52 0 -61 -108q-14 -133 -30.5 -411.5t-16.5 -459.5v-350q0 -68 -31 -68q-47 0 -80 33q-73 69 -258 287q-60 71 -142.5 169.5t-136.5 163t-71 83.5 q-36 42 -185 228.5t-180 231.5h-16v-413q0 -101 10 -297.5t10 -202.5q3 -91 33.5 -135.5t93.5 -44.5h51q17 0 17 -19v-49q0 -9 -3.5 -12.5t-13.5 -3.5l-91 3q-91 3 -148 3q-37 0 -128.5 -3t-96.5 -3q-11 0 -11 18v54q0 12 13 12h71q73 0 88 203q19 371 19 669v185 q0 93 -50.5 164.5t-125.5 72.5l-52 2q-12 0 -12 15zM573 1616q11 100 63.5 165.5t129.5 65.5q15 0 35.5 -3t35 -6.5t54 -13t63.5 -14.5q35 -8 72 -18t57.5 -15t36.5 -5q35 0 51 21t23 58q3 13 14 13h35q11 0 8 -37q-7 -82 -52.5 -149.5t-113.5 -67.5q-61 0 -208 39 q-20 5 -46.5 12t-38 10t-27 6.5t-25.5 4.5t-21 1q-30 0 -53.5 -24t-32.5 -68q-3 -10 -15 -10h-36q-12 0 -9 35z" />
<glyph unicode="&#xd2;" horiz-adv-x="1775" d="M104 711q0 280 191 510q214 260 596 260q143 0 261.5 -34t238.5 -128q126 -99 203 -255t77 -357q0 -243 -153 -449q-53 -67 -110 -116t-132.5 -90t-173 -62t-215.5 -21q-266 0 -481 133q-56 34 -108.5 91t-96.5 133.5t-70.5 176.5t-26.5 208zM432 776q0 -150 33 -274 t84 -203t115 -133.5t124.5 -77t114.5 -22.5q78 0 144 26t111 68t80 99t55.5 114.5t34 119.5t18 109.5t4.5 87.5q0 129 -32 244t-83 195t-113.5 139t-124 87.5t-114.5 28.5h-14h-18t-20 -1t-24.5 -3t-26 -6t-29.5 -9t-31 -13.5t-34 -19.5t-35 -25.5t-37 -32.5 q-86 -82 -134 -222.5t-48 -275.5zM512 1833q0 40 28.5 73t73.5 33q52 0 93 -41l266 -276q10 -6 2 -14l-27 -33q-5 -5 -14 0l-348 162q-30 13 -52 40t-22 56z" />
<glyph unicode="&#xd3;" horiz-adv-x="1775" d="M104 711q0 280 191 510q214 260 596 260q143 0 261.5 -34t238.5 -128q126 -99 203 -255t77 -357q0 -243 -153 -449q-53 -67 -110 -116t-132.5 -90t-173 -62t-215.5 -21q-266 0 -481 133q-56 34 -108.5 91t-96.5 133.5t-70.5 176.5t-26.5 208zM432 776q0 -150 33 -274 t84 -203t115 -133.5t124.5 -77t114.5 -22.5q78 0 144 26t111 68t80 99t55.5 114.5t34 119.5t18 109.5t4.5 87.5q0 129 -32 244t-83 195t-113.5 139t-124 87.5t-114.5 28.5h-14h-18t-20 -1t-24.5 -3t-26 -6t-29.5 -9t-31 -13.5t-34 -19.5t-35 -25.5t-37 -32.5 q-86 -82 -134 -222.5t-48 -275.5zM823 1608q-6 6 2 14l267 276q36 41 92 41q42 0 71 -30.5t29 -71.5q0 -26 -23 -54t-53 -42l-344 -166q-9 -5 -14 0z" />
<glyph unicode="&#xd4;" horiz-adv-x="1775" d="M104 711q0 280 191 510q214 260 596 260q143 0 261.5 -34t238.5 -128q126 -99 203 -255t77 -357q0 -243 -153 -449q-53 -67 -110 -116t-132.5 -90t-173 -62t-215.5 -21q-266 0 -481 133q-56 34 -108.5 91t-96.5 133.5t-70.5 176.5t-26.5 208zM432 776q0 -150 33 -274 t84 -203t115 -133.5t124.5 -77t114.5 -22.5q78 0 144 26t111 68t80 99t55.5 114.5t34 119.5t18 109.5t4.5 87.5q0 129 -32 244t-83 195t-113.5 139t-124 87.5t-114.5 28.5h-14h-18t-20 -1t-24.5 -3t-26 -6t-29.5 -9t-31 -13.5t-34 -19.5t-35 -25.5t-37 -32.5 q-86 -82 -134 -222.5t-48 -275.5zM580 1597q-5 8 6 19l272 268q24 19 27 19q7 0 39 -29l270 -260q8 -8 2 -17l-14 -18q-6 -9 -19 -2l-282 111l-265 -111q-13 -7 -20 0z" />
<glyph unicode="&#xd5;" horiz-adv-x="1775" d="M104 711q0 280 191 510q214 260 596 260q143 0 261.5 -34t238.5 -128q126 -99 203 -255t77 -357q0 -243 -153 -449q-53 -67 -110 -116t-132.5 -90t-173 -62t-215.5 -21q-266 0 -481 133q-56 34 -108.5 91t-96.5 133.5t-70.5 176.5t-26.5 208zM432 776q0 -150 33 -274 t84 -203t115 -133.5t124.5 -77t114.5 -22.5q78 0 144 26t111 68t80 99t55.5 114.5t34 119.5t18 109.5t4.5 87.5q0 129 -32 244t-83 195t-113.5 139t-124 87.5t-114.5 28.5h-14h-18t-20 -1t-24.5 -3t-26 -6t-29.5 -9t-31 -13.5t-34 -19.5t-35 -25.5t-37 -32.5 q-86 -82 -134 -222.5t-48 -275.5zM539 1616q11 100 63 165.5t129 65.5q15 0 36 -3t35 -6t55 -13t63 -15q35 -8 72 -18t57 -15t36 -5q35 0 51 21t23 58q3 13 15 13h34q12 0 9 -37q-7 -82 -52.5 -149.5t-113.5 -67.5q-62 0 -209 39q-20 5 -46.5 12t-38 10t-27 6.5t-25.5 4.5 t-21 1q-30 0 -53.5 -24t-32.5 -68q-2 -10 -14 -10h-37q-11 0 -8 35z" />
<glyph unicode="&#xd6;" horiz-adv-x="1775" d="M104 711q0 280 191 510q214 260 596 260q143 0 261.5 -34t238.5 -128q126 -99 203 -255t77 -357q0 -243 -153 -449q-53 -67 -110 -116t-132.5 -90t-173 -62t-215.5 -21q-266 0 -481 133q-56 34 -108.5 91t-96.5 133.5t-70.5 176.5t-26.5 208zM432 776q0 -150 33 -274 t84 -203t115 -133.5t124.5 -77t114.5 -22.5q78 0 144 26t111 68t80 99t55.5 114.5t34 119.5t18 109.5t4.5 87.5q0 129 -32 244t-83 195t-113.5 139t-124 87.5t-114.5 28.5h-14h-18t-20 -1t-24.5 -3t-26 -6t-29.5 -9t-31 -13.5t-34 -19.5t-35 -25.5t-37 -32.5 q-86 -82 -134 -222.5t-48 -275.5zM535 1739q0 40 32.5 78t102.5 38q49 0 82.5 -32.5t33.5 -91.5q0 -48 -34.5 -83.5t-81.5 -35.5q-23 0 -44.5 6t-43 19t-34.5 39.5t-13 62.5zM989 1739q0 40 32.5 78t102.5 38q50 0 84.5 -32.5t34.5 -91.5q0 -48 -34.5 -83.5t-84.5 -35.5 q-23 0 -44.5 6t-43 19t-34.5 39.5t-13 62.5z" />
<glyph unicode="&#xd7;" d="M109 205l294 282l-294 285l110 117l297 -297l297 297l102 -117l-294 -280l294 -287l-102 -123l-305 301l-303 -301z" />
<glyph unicode="&#xd8;" horiz-adv-x="1775" d="M104 711q0 280 191 510q214 260 596 260q143 0 261.5 -34t238.5 -128l168 166q7 7 18 -2l63 -53q12 -9 2 -19l-167 -170q90 -96 143 -232.5t53 -301.5q0 -243 -153 -449q-103 -137 -253 -213t-378 -76q-133 0 -287.5 45t-224.5 113l-154 -158q-11 -9 -20 0l-64 62 q-9 9 4 16l152 154q-83 91 -136 222.5t-53 287.5zM432 776q0 -205 68 -370l725 739q-69 118 -163.5 178.5t-178.5 60.5q-79 0 -132 -20q-67 -25 -128 -84q-91 -86 -141 -227.5t-50 -276.5zM547 305q71 -118 171 -178.5t185 -60.5q77 0 142 25.5t110 66.5t80.5 96.5t56.5 113 t34.5 119.5t18.5 111t5 92q0 192 -74 361z" />
<glyph unicode="&#xd9;" horiz-adv-x="1495" d="M12 1391v49q0 9 3.5 12.5t15.5 3.5q3 0 43.5 -1.5t119 -3t173.5 -1.5q79 0 148.5 1.5t108.5 3t44 1.5q12 0 15 -3t3 -13v-54q0 -8 -3 -11t-13 -3h-70q-49 0 -77 -23t-31 -57q-5 -58 -5 -266v-135q0 -71 11 -434q4 -166 65 -244q95 -115 256 -115q58 0 129.5 26t112.5 64 q129 116 129 334v316q0 115 -10.5 256.5t-18.5 187.5q-6 39 -27.5 64.5t-48.5 25.5h-65q-14 0 -14 17v53q0 14 14 14q5 0 40.5 -1.5t94 -3t119.5 -1.5q49 0 93 1.5t70 3t31 1.5q21 0 21 -18v-45q0 -21 -12 -21h-64q-26 0 -43.5 -7.5t-26.5 -22.5t-11.5 -22t-5.5 -22 q-1 -3 -1 -4q-4 -29 -4 -340q0 -52 -3 -234t-7 -233q-18 -253 -174 -391q-67 -59 -164.5 -93t-198.5 -34q-194 0 -313 51q-75 33 -138.5 104t-99.5 167q-25 64 -34 173t-9 320v484q0 55 -12.5 79.5t-44.5 24.5h-96q-15 0 -15 19zM455 1833q0 40 28.5 73t73.5 33q51 0 92 -41 l266 -276q10 -7 3 -14l-27 -33q-5 -5 -14 0l-349 162q-29 13 -51 40t-22 56z" />
<glyph unicode="&#xda;" horiz-adv-x="1495" d="M12 1391v49q0 9 3.5 12.5t15.5 3.5q3 0 43.5 -1.5t119 -3t173.5 -1.5q79 0 148.5 1.5t108.5 3t44 1.5q12 0 15 -3t3 -13v-54q0 -8 -3 -11t-13 -3h-70q-49 0 -77 -23t-31 -57q-5 -58 -5 -266v-135q0 -71 11 -434q4 -166 65 -244q95 -115 256 -115q58 0 129.5 26t112.5 64 q129 116 129 334v316q0 115 -10.5 256.5t-18.5 187.5q-6 39 -27.5 64.5t-48.5 25.5h-65q-14 0 -14 17v53q0 14 14 14q5 0 40.5 -1.5t94 -3t119.5 -1.5q49 0 93 1.5t70 3t31 1.5q21 0 21 -18v-45q0 -21 -12 -21h-64q-26 0 -43.5 -7.5t-26.5 -22.5t-11.5 -22t-5.5 -22 q-1 -3 -1 -4q-4 -29 -4 -340q0 -52 -3 -234t-7 -233q-18 -253 -174 -391q-67 -59 -164.5 -93t-198.5 -34q-194 0 -313 51q-75 33 -138.5 104t-99.5 167q-25 64 -34 173t-9 320v484q0 55 -12.5 79.5t-44.5 24.5h-96q-15 0 -15 19zM733 1608q-6 6 2 14l266 276q36 41 93 41 q42 0 71 -30.5t29 -71.5q0 -26 -23 -54t-53 -42l-344 -166q-9 -5 -14 0z" />
<glyph unicode="&#xdb;" horiz-adv-x="1495" d="M12 1391v49q0 9 3.5 12.5t15.5 3.5q3 0 43.5 -1.5t119 -3t173.5 -1.5q79 0 148.5 1.5t108.5 3t44 1.5q12 0 15 -3t3 -13v-54q0 -8 -3 -11t-13 -3h-70q-49 0 -77 -23t-31 -57q-5 -58 -5 -266v-135q0 -71 11 -434q4 -166 65 -244q95 -115 256 -115q58 0 129.5 26t112.5 64 q129 116 129 334v316q0 115 -10.5 256.5t-18.5 187.5q-6 39 -27.5 64.5t-48.5 25.5h-65q-14 0 -14 17v53q0 14 14 14q5 0 40.5 -1.5t94 -3t119.5 -1.5q49 0 93 1.5t70 3t31 1.5q21 0 21 -18v-45q0 -21 -12 -21h-64q-26 0 -43.5 -7.5t-26.5 -22.5t-11.5 -22t-5.5 -22 q-1 -3 -1 -4q-4 -29 -4 -340q0 -52 -3 -234t-7 -233q-18 -253 -174 -391q-67 -59 -164.5 -93t-198.5 -34q-194 0 -313 51q-75 33 -138.5 104t-99.5 167q-25 64 -34 173t-9 320v484q0 55 -12.5 79.5t-44.5 24.5h-96q-15 0 -15 19zM522 1597q-5 8 6 19l273 268q24 19 26 19 q7 0 39 -29l271 -260q8 -8 2 -17l-15 -18q-6 -8 -18 -2l-283 111l-264 -111q-13 -7 -20 0z" />
<glyph unicode="&#xdc;" horiz-adv-x="1495" d="M12 1391v49q0 9 3.5 12.5t15.5 3.5q3 0 43.5 -1.5t119 -3t173.5 -1.5q79 0 148.5 1.5t108.5 3t44 1.5q12 0 15 -3t3 -13v-54q0 -8 -3 -11t-13 -3h-70q-49 0 -77 -23t-31 -57q-5 -58 -5 -266v-135q0 -71 11 -434q4 -166 65 -244q95 -115 256 -115q58 0 129.5 26t112.5 64 q129 116 129 334v316q0 115 -10.5 256.5t-18.5 187.5q-6 39 -27.5 64.5t-48.5 25.5h-65q-14 0 -14 17v53q0 14 14 14q5 0 40.5 -1.5t94 -3t119.5 -1.5q49 0 93 1.5t70 3t31 1.5q21 0 21 -18v-45q0 -21 -12 -21h-64q-26 0 -43.5 -7.5t-26.5 -22.5t-11.5 -22t-5.5 -22 q-1 -3 -1 -4q-4 -29 -4 -340q0 -52 -3 -234t-7 -233q-18 -253 -174 -391q-67 -59 -164.5 -93t-198.5 -34q-194 0 -313 51q-75 33 -138.5 104t-99.5 167q-25 64 -34 173t-9 320v484q0 55 -12.5 79.5t-44.5 24.5h-96q-15 0 -15 19zM496 1739q0 40 32.5 78t102.5 38 q49 0 83 -32.5t34 -91.5q0 -47 -35 -83t-82 -36q-23 0 -44.5 6t-43 19t-34.5 39.5t-13 62.5zM950 1739q0 40 32.5 78t102.5 38q50 0 84.5 -32.5t34.5 -91.5q0 -48 -34.5 -83.5t-84.5 -35.5q-23 0 -44.5 6t-43 19t-34.5 39.5t-13 62.5z" />
<glyph unicode="&#xdd;" horiz-adv-x="1255" d="M-106 1386v58q0 12 14 12q3 0 40.5 -1.5t107 -3t149.5 -1.5q93 0 164 1.5t104.5 3t36.5 1.5q14 0 14 -14v-51q0 -19 -14 -19h-47q-22 0 -35.5 -14.5t-13.5 -38.5q0 -16 61 -142.5t140.5 -284.5t97.5 -198q9 17 54 98t82 149.5t79.5 150t67 137.5t24.5 74q0 27 -23 48 t-55 21h-55q-15 0 -15 19v53q0 12 15 12q5 0 38 -1.5t92 -3t126 -1.5q62 0 108.5 1.5t69.5 3t27 1.5q10 0 13 -3.5t3 -12.5v-49q0 -19 -16 -19h-37q-25 0 -60.5 -12t-56.5 -37q-22 -27 -196.5 -315.5t-233.5 -399.5v-227q0 -159 8 -231q4 -45 21.5 -58.5t48.5 -13.5h59 q14 0 14 -15v-51q0 -10 -2 -14t-12 -4q-6 0 -41 1.5t-103 3t-153 1.5q-94 0 -162.5 -1.5t-100.5 -3t-36 -1.5q-12 0 -12 20v49q0 15 14 15h72q69 0 72 47q6 87 6 381v88q-44 85 -211.5 385.5t-200.5 345.5q-18 22 -48.5 34.5t-57.5 12.5h-31q-14 0 -14 14zM676 1608 q-6 6 2 14l266 276q36 41 92 41q42 0 71.5 -30.5t29.5 -71.5q0 -26 -23 -54t-53 -42l-344 -166q-10 -5 -15 0z" />
<glyph unicode="&#xde;" horiz-adv-x="1320" d="M68 1389v53q0 14 12 14q4 0 36.5 -1.5t104.5 -3t170 -1.5q87 0 156.5 1.5t106.5 3t44 1.5q17 0 17 -16v-45q0 -13 -4.5 -18t-16.5 -5h-96q-47 0 -49 -31q-8 -66 -8 -184q35 4 141 4q152 0 250.5 -22t179.5 -82q65 -49 101 -125.5t36 -159.5q0 -185 -136 -296t-363 -111 q-144 0 -209 12v-68q0 -91 6 -166q6 -65 71 -65h91q16 0 16 -15v-53q0 -8 -3.5 -12t-14.5 -4q-7 0 -40.5 1.5t-102.5 3t-163 1.5q-96 0 -165.5 -1.5t-101.5 -3t-36 -1.5q-16 0 -16 18v51q0 15 12 15h74q38 0 52 11.5t18 49.5q1 11 3 102t3.5 228.5t1.5 247.5v235 q0 335 -4 375q-1 24 -19 34.5t-55 10.5h-86q-14 0 -14 17zM541 459q55 -21 143 -21q99 0 174.5 94.5t75.5 229.5q0 74 -24.5 134t-59.5 95t-76 58.5t-71 32t-48 8.5q-74 0 -114 -13v-618z" />
<glyph unicode="&#xdf;" horiz-adv-x="1171" d="M35 12v45q0 15 20 15h66q31 0 44 16t13 53l-6 572l-121 8q-12 0 -12 14v64q0 5 1.5 7.5t5 4t9.5 2.5l117 10v95q0 275 150 419q183 172 366 172q113 0 188.5 -66.5t75.5 -187.5q0 -119 -139 -251q-47 -44 -66.5 -79t-19.5 -75q0 -23 10 -42t37 -40.5t48 -34.5t69 -41 q139 -80 193.5 -169.5t52.5 -223.5q-3 -131 -101.5 -229.5t-244.5 -98.5q-51 0 -99 13t-63 24q-19 14 -19 21l-18 164q-3 19 8 22l39 10q11 3 20 -10l60 -92q39 -59 98 -62q51 0 85 38.5t34 101.5q0 69 -30.5 117t-86.5 90q-20 15 -58 42.5t-59 43.5t-50 44.5t-44.5 54 t-27 63t-11.5 79.5q0 48 18 96.5t39.5 81t46 70t32.5 59.5q26 77 26 168q0 77 -46 132t-107 55q-62 0 -101 -68q-16 -29 -23 -82.5t-6.5 -100t3 -128t2.5 -123.5v-317q0 -430 2 -457q3 -49 24 -49h25q13 0 17.5 -4t4.5 -13v-41q0 -20 -14 -20q-3 0 -35 1.5t-81 3t-91 1.5 t-101.5 -1.5t-104 -3t-48.5 -1.5q-16 0 -16 18z" />
<glyph unicode="&#xe0;" horiz-adv-x="933" d="M68 594q0 94 57 143q72 65 174.5 108.5t218.5 43.5q91 0 132 -13.5t77 -46.5q57 -52 57 -174l4 -407q1 -56 5 -84t13.5 -41.5t29.5 -13.5q38 0 59 36q11 17 20 11l29 -17q15 -8 6 -28q-8 -20 -22.5 -40.5t-39 -45t-62.5 -39.5t-83 -15q-143 0 -194 125h-10 q-39 -36 -78 -59.5t-99 -46.5q-56 -19 -147 -19q-55 0 -95 53.5t-40 135.5q0 163 176 250q24 11 61.5 29t52.5 25t39.5 19t35.5 17.5t26.5 14t26.5 15.5t22 15v108q0 84 -31 113q-28 25 -86 25q-59 0 -108 -33q-14 -9 -15.5 -23t4 -44.5t5.5 -53.5q0 -53 -36 -85t-97 -32 q-36 0 -62 20.5t-26 53.5zM260.5 1248.5q-4.5 42.5 22.5 74t69 31.5q59 0 103 -70l151 -250q6 -10 0 -16l-28 -23q-6 -7 -15 2l-258 181q-40 28 -44.5 70.5zM338 233q0 -66 25.5 -99.5t62.5 -35.5q37 3 66.5 30t29.5 44v291q-9 -5 -32.5 -18t-31.5 -18t-27.5 -17t-27 -20 t-21 -21.5t-19.5 -26t-13 -29.5t-9.5 -37t-2.5 -43z" />
<glyph unicode="&#xe1;" horiz-adv-x="933" d="M68 594q0 94 57 143q72 65 174.5 108.5t218.5 43.5q91 0 132 -13.5t77 -46.5q57 -52 57 -174l4 -407q1 -56 5 -84t13.5 -41.5t29.5 -13.5q38 0 59 36q11 17 20 11l29 -17q15 -8 6 -28q-8 -20 -22.5 -40.5t-39 -45t-62.5 -39.5t-83 -15q-143 0 -194 125h-10 q-39 -36 -78 -59.5t-99 -46.5q-56 -19 -147 -19q-55 0 -95 53.5t-40 135.5q0 163 176 250q24 11 61.5 29t52.5 25t39.5 19t35.5 17.5t26.5 14t26.5 15.5t22 15v108q0 84 -31 113q-28 25 -86 25q-59 0 -108 -33q-14 -9 -15.5 -23t4 -44.5t5.5 -53.5q0 -53 -36 -85t-97 -32 q-36 0 -62 20.5t-26 53.5zM338 233q0 -66 25.5 -99.5t62.5 -35.5q37 3 66.5 30t29.5 44v291q-9 -5 -32.5 -18t-31.5 -18t-27.5 -17t-27 -20t-21 -21.5t-19.5 -26t-13 -29.5t-9.5 -37t-2.5 -43zM367 1018q-6 6 0 16l151 250q44 70 103 70q43 0 70 -31.5t22 -74t-45 -70.5 l-258 -181q-8 -9 -15 -2z" />
<glyph unicode="&#xe2;" horiz-adv-x="933" d="M68 594q0 94 57 143q72 65 174.5 108.5t218.5 43.5q91 0 132 -13.5t77 -46.5q57 -52 57 -174l4 -407q1 -56 5 -84t13.5 -41.5t29.5 -13.5q38 0 59 36q11 17 20 11l29 -17q15 -8 6 -28q-8 -20 -22.5 -40.5t-39 -45t-62.5 -39.5t-83 -15q-143 0 -194 125h-10 q-39 -36 -78 -59.5t-99 -46.5q-56 -19 -147 -19q-55 0 -95 53.5t-40 135.5q0 163 176 250q24 11 61.5 29t52.5 25t39.5 19t35.5 17.5t26.5 14t26.5 15.5t22 15v108q0 84 -31 113q-28 25 -86 25q-59 0 -108 -33q-14 -9 -15.5 -23t4 -44.5t5.5 -53.5q0 -53 -36 -85t-97 -32 q-36 0 -62 20.5t-26 53.5zM229 1018q-7 6 7 20l217 289q14 19 22 19q10 0 27 -21l225 -289q10 -10 4 -16l-16 -19q-7 -10 -19 -4l-223 131l-207 -127q-12 -8 -18 -2zM338 233q0 -66 25.5 -99.5t62.5 -35.5q37 3 66.5 30t29.5 44v291q-9 -5 -32.5 -18t-31.5 -18t-27.5 -17 t-27 -20t-21 -21.5t-19.5 -26t-13 -29.5t-9.5 -37t-2.5 -43z" />
<glyph unicode="&#xe3;" horiz-adv-x="933" d="M68 594q0 94 57 143q72 65 174.5 108.5t218.5 43.5q91 0 132 -13.5t77 -46.5q57 -52 57 -174l4 -407q1 -56 5 -84t13.5 -41.5t29.5 -13.5q38 0 59 36q11 17 20 11l29 -17q15 -8 6 -28q-8 -20 -22.5 -40.5t-39 -45t-62.5 -39.5t-83 -15q-143 0 -194 125h-10 q-39 -36 -78 -59.5t-99 -46.5q-56 -19 -147 -19q-55 0 -95 53.5t-40 135.5q0 163 176 250q24 11 61.5 29t52.5 25t39.5 19t35.5 17.5t26.5 14t26.5 15.5t22 15v108q0 84 -31 113q-28 25 -86 25q-59 0 -108 -33q-14 -9 -15.5 -23t4 -44.5t5.5 -53.5q0 -53 -36 -85t-97 -32 q-36 0 -62 20.5t-26 53.5zM172 1047q14 84 61 140t109 56q20 0 44.5 -4t40.5 -8.5t40 -11.5t31 -9l37.5 -10t34.5 -9.5t26.5 -6t24.5 -2.5q31 0 45.5 16.5t21.5 46.5q3 12 14 12h35q13 0 6 -36q-14 -71 -56.5 -127t-108.5 -56q-25 0 -50.5 4t-39 7.5t-39.5 11.5t-31 10 q-83 27 -109 27q-27 0 -50 -20t-30 -56q-3 -10 -14 -10h-37q-14 0 -6 35zM338 233q0 -66 25.5 -99.5t62.5 -35.5q37 3 66.5 30t29.5 44v291q-9 -5 -32.5 -18t-31.5 -18t-27.5 -17t-27 -20t-21 -21.5t-19.5 -26t-13 -29.5t-9.5 -37t-2.5 -43z" />
<glyph unicode="&#xe4;" horiz-adv-x="933" d="M68 594q0 94 57 143q72 65 174.5 108.5t218.5 43.5q91 0 132 -13.5t77 -46.5q57 -52 57 -174l4 -407q1 -56 5 -84t13.5 -41.5t29.5 -13.5q38 0 59 36q11 17 20 11l29 -17q15 -8 6 -28q-8 -20 -22.5 -40.5t-39 -45t-62.5 -39.5t-83 -15q-143 0 -194 125h-10 q-39 -36 -78 -59.5t-99 -46.5q-56 -19 -147 -19q-55 0 -95 53.5t-40 135.5q0 167 176 250q43 21 98.5 47.5t76 36.5t45.5 24t44 27v108q0 84 -31 113q-28 25 -86 25q-59 0 -108 -33q-14 -9 -15.5 -23t4 -44.5t5.5 -53.5q0 -53 -36 -85t-97 -32q-36 0 -62 20.5t-26 53.5z M154 1176q0 40 31 78t100 38q50 0 84 -33.5t34 -93.5q0 -53 -33 -83.5t-85 -30.5q-51 0 -91 29t-40 96zM338 233q0 -66 25.5 -99.5t62.5 -35.5q37 3 66.5 30t29.5 44v291q-9 -5 -32.5 -18t-31.5 -18t-27.5 -17t-27 -20t-21 -21.5t-19.5 -26t-13 -29.5t-9.5 -37t-2.5 -43z M532 1176q0 40 32 78t102 38q48 0 81 -33.5t33 -93.5q0 -52 -32.5 -83t-81.5 -31q-51 0 -92.5 29t-41.5 96z" />
<glyph unicode="&#xe5;" horiz-adv-x="933" d="M68 594q0 94 57 143q72 65 174.5 108.5t218.5 43.5q91 0 132 -13.5t77 -46.5q57 -52 57 -174l4 -407q1 -56 5 -84t13.5 -41.5t29.5 -13.5q38 0 59 36q11 17 20 11l29 -17q15 -8 6 -28q-8 -20 -22.5 -40.5t-39 -45t-62.5 -39.5t-83 -15q-143 0 -194 125h-10 q-39 -36 -78 -59.5t-99 -46.5q-56 -19 -147 -19q-55 0 -95 53.5t-40 135.5q0 163 176 250q24 11 61.5 29t52.5 25t39.5 19t35.5 17.5t26.5 14t26.5 15.5t22 15v108q0 84 -31 113q-28 25 -86 25q-59 0 -108 -33q-14 -9 -15.5 -23t4 -44.5t5.5 -53.5q0 -53 -36 -85t-97 -32 q-36 0 -62 20.5t-26 53.5zM242 1180q-1 84 70 134t177 50q101 0 166.5 -45.5t65.5 -118.5q7 -86 -68.5 -136t-181.5 -50q-101 0 -165.5 46t-63.5 120zM338 233q0 -66 25.5 -99.5t62.5 -35.5q37 3 66.5 30t29.5 44v291q-9 -5 -32.5 -18t-31.5 -18t-27.5 -17t-27 -20 t-21 -21.5t-19.5 -26t-13 -29.5t-9.5 -37t-2.5 -43zM387 1192q0 -52 25 -80.5t67 -28.5q43 0 68.5 28t25.5 81q0 50 -24 76t-62 26q-44 0 -72 -28t-28 -74z" />
<glyph unicode="&#xe6;" horiz-adv-x="1394" d="M72 594q0 94 57 143q72 65 173 108.5t212 43.5q67 0 112 -30t68 -75q109 105 299 105q78 0 140 -27t97.5 -66t59 -89t31.5 -90.5t8 -75.5q0 -28 -43 -33l-485 -31v-43q0 -135 78 -216t194 -81q78 0 132 27t81 69q14 23 23 17l41 -23q12 -9 2 -30q-19 -38 -50 -74t-78 -72 t-115 -58t-146 -22q-130 0 -205 36t-137 116h-11q-98 -98 -200 -127q-83 -25 -179 -25q-70 0 -110.5 47t-40.5 132q0 94 44 154.5t148 111.5q222 108 249 128q7 5 11 9v92q0 28 -0.5 40.5t-6.5 33t-19 35.5q-18 21 -38.5 29t-59.5 8q-60 0 -109 -33q-14 -9 -15.5 -23 t4 -44.5t5.5 -53.5q0 -53 -36 -85t-97 -32q-36 0 -62 20.5t-26 53.5zM338 246q0 -148 92 -148q33 0 70 22.5t63 65.5q-33 111 -33 279q-10 -6 -47.5 -25t-48.5 -26t-36 -27t-34 -36.5t-17.5 -44t-8.5 -60.5zM797 553l211 25q25 3 37 17.5t12 33.5q0 81 -24.5 129.5 t-76.5 48.5q-137 0 -159 -254z" />
<glyph unicode="&#xe7;" horiz-adv-x="872" d="M66 379q0 112 37.5 215t115.5 174q133 121 303 121q84 0 146.5 -20t94.5 -52t46.5 -64.5t13.5 -64.5q0 -42 -27 -70t-71 -28q-98 0 -131 110q-18 59 -47.5 82t-75.5 23t-88.5 -58.5t-42.5 -144.5q0 -22 -1 -61.5t-0.5 -55.5t3 -47.5t9.5 -55.5t19.5 -59.5t32.5 -78.5 q30 -63 84 -91t113 -28q74 0 117.5 14t95.5 51q17 10 23 3l28 -29q8 -11 -2 -27q-30 -54 -130 -107t-206 -57l-88 -108q81 -13 127.5 -55t46.5 -93q0 -63 -54 -109.5t-140 -68.5t-191 -22q-41 0 -41 41q0 28 66 28q60 0 105.5 29.5t45.5 81.5q0 37 -31.5 60.5t-95.5 39.5 l140 180q-164 17 -246 119q-58 71 -81 136.5t-23 146.5z" />
<glyph unicode="&#xe8;" horiz-adv-x="923" d="M61 420q0 165 93 301q114 168 356 168q68 0 123.5 -18t91 -45.5t62.5 -64.5t40 -70t21.5 -68.5t10 -53.5t1.5 -30q0 -19 -13 -24t-50 -5h-469v-55q0 -153 76 -235.5t194 -82.5q73 0 132 31t91 82q7 17 21 6l35 -18q16 -8 -5 -50q-15 -31 -46 -66t-75.5 -70.5t-108.5 -58 t-132 -22.5q-218 0 -307 97q-80 86 -110.5 160t-31.5 192zM256.5 1248.5q-4.5 42.5 22.5 74t69 31.5q59 0 103 -70l151 -250q6 -10 0 -16l-29 -23q-6 -6 -14 2l-258 181q-40 28 -44.5 70.5zM330 588h196q35 0 50.5 9t15.5 32q0 72 -27.5 125t-72.5 53q-141 0 -162 -219z" />
<glyph unicode="&#xe9;" horiz-adv-x="923" d="M61 420q0 165 93 301q114 168 356 168q68 0 123.5 -18t91 -45.5t62.5 -64.5t40 -70t21.5 -68.5t10 -53.5t1.5 -30q0 -19 -13 -24t-50 -5h-469v-55q0 -153 76 -235.5t194 -82.5q73 0 132 31t91 82q7 17 21 6l35 -18q16 -8 -5 -50q-15 -31 -46 -66t-75.5 -70.5t-108.5 -58 t-132 -22.5q-218 0 -307 97q-80 86 -110.5 160t-31.5 192zM330 588h196q35 0 50.5 9t15.5 32q0 72 -27.5 125t-72.5 53q-141 0 -162 -219zM393 1018q-6 6 0 16l152 250q44 70 102 70q43 0 70 -31.5t22 -74t-45 -70.5l-258 -181q-8 -8 -14 -2z" />
<glyph unicode="&#xea;" horiz-adv-x="923" d="M61 420q0 165 93 301q114 168 356 168q68 0 123.5 -18t91 -45.5t62.5 -64.5t40 -70t21.5 -68.5t10 -53.5t1.5 -30q0 -19 -13 -24t-50 -5h-469v-55q0 -153 76 -235.5t194 -82.5q73 0 132 31t91 82q7 17 21 6l35 -18q16 -8 -5 -50q-15 -31 -46 -66t-75.5 -70.5t-108.5 -58 t-132 -22.5q-218 0 -307 97q-80 86 -110.5 160t-31.5 192zM252 1018q-7 7 6 20l217 289q14 19 23 19t26 -21l226 -289q10 -10 4 -16l-17 -19q-7 -10 -18 -4l-223 131l-207 -127q-13 -8 -19 -2zM330 588h196q35 0 50.5 9t15.5 32q0 72 -27.5 125t-72.5 53q-141 0 -162 -219z " />
<glyph unicode="&#xeb;" horiz-adv-x="923" d="M61 420q0 165 93 301q114 168 356 168q68 0 123.5 -18t91 -45.5t62.5 -64.5t40 -70t21.5 -68.5t10 -53.5t1.5 -30q0 -19 -13 -24t-50 -5h-469v-55q0 -153 76 -235.5t194 -82.5q73 0 132 31t91 82q7 17 21 6l35 -18q16 -8 -5 -50q-15 -31 -46 -66t-75.5 -70.5t-108.5 -58 t-132 -22.5q-218 0 -307 97q-80 86 -110.5 160t-31.5 192zM180 1176q0 40 31 78t100 38q50 0 84.5 -33.5t34.5 -93.5q0 -53 -33.5 -83.5t-85.5 -30.5q-51 0 -91 29t-40 96zM330 588h196q35 0 50.5 9t15.5 32q0 72 -27.5 125t-72.5 53q-141 0 -162 -219zM559 1176 q0 40 31.5 78t101.5 38q49 0 82 -33.5t33 -93.5q0 -52 -33 -83t-82 -31q-51 0 -92 29t-41 96z" />
<glyph unicode="&#xec;" horiz-adv-x="593" d="M27 14v41q0 17 20 17h76q19 0 28.5 9t10.5 32q4 61 4 182l-4 287q0 48 -19.5 77.5t-79.5 51.5q-24 8 -24 28v23q0 9 22 16l306 99q35 12 55 12q24 0 20 -25q-4 -35 -4 -344v-219q0 -153 2 -176q3 -29 11.5 -41t25.5 -12h74q20 0 20 -19v-39q0 -20 -18 -20q-2 0 -38.5 1.5 t-104 3t-146.5 1.5q-52 0 -102 -1.5t-81 -3t-38 -1.5q-16 0 -16 20zM62 1248.5q-4 42.5 23 74t69 31.5q58 0 102 -70l152 -250q6 -10 0 -16l-29 -23q-6 -6 -14 2l-259 181q-40 28 -44 70.5z" />
<glyph unicode="&#xed;" horiz-adv-x="593" d="M27 14v41q0 17 20 17h76q19 0 28.5 9t10.5 32q4 61 4 182l-4 287q0 48 -19.5 77.5t-79.5 51.5q-24 8 -24 28v23q0 9 22 16l306 99q35 12 55 12q24 0 20 -25q-4 -35 -4 -344v-219q0 -153 2 -176q3 -29 11.5 -41t25.5 -12h74q20 0 20 -19v-39q0 -20 -18 -20q-2 0 -38.5 1.5 t-104 3t-146.5 1.5q-52 0 -102 -1.5t-81 -3t-38 -1.5q-16 0 -16 20zM207 1018q-6 6 0 16l151 250q44 70 103 70q43 0 70 -31.5t22 -74t-45 -70.5l-258 -181q-8 -8 -14 -2z" />
<glyph unicode="&#xee;" horiz-adv-x="593" d="M27 14v41q0 17 20 17h76q19 0 28.5 9t10.5 32q4 61 4 182l-4 287q0 48 -19.5 77.5t-79.5 51.5q-24 8 -24 28v23q0 9 22 16l306 99q35 12 55 12q24 0 20 -25q-4 -35 -4 -344v-219q0 -153 2 -176q3 -29 11.5 -41t25.5 -12h74q20 0 20 -19v-39q0 -20 -18 -20q-2 0 -38.5 1.5 t-104 3t-146.5 1.5q-52 0 -102 -1.5t-81 -3t-38 -1.5q-16 0 -16 20zM47 1018q-7 7 6 20l217 289q14 19 23 19t26 -21l226 -289q10 -10 4 -16l-17 -19q-6 -10 -18 -4l-223 131l-207 -127q-12 -8 -18 -2z" />
<glyph unicode="&#xef;" horiz-adv-x="593" d="M-16 1176q0 40 31 78t100 38q50 0 84 -33.5t34 -93.5q0 -53 -33 -83.5t-85 -30.5q-51 0 -91 29t-40 96zM27 14v41q0 17 20 17h76q19 0 28.5 9t10.5 32q4 61 4 182l-4 287q0 48 -19.5 77.5t-79.5 51.5q-24 8 -24 28v23q0 9 22 16l306 99q35 12 55 12q24 0 20 -25 q-4 -35 -4 -344v-219q0 -153 2 -176q3 -29 11.5 -41t25.5 -12h74q20 0 20 -19v-39q0 -20 -18 -20q-2 0 -38.5 1.5t-104 3t-146.5 1.5q-52 0 -102 -1.5t-81 -3t-38 -1.5q-16 0 -16 20zM362 1176q0 40 32 78t102 38q48 0 81 -33.5t33 -93.5q0 -52 -32.5 -83t-81.5 -31 q-51 0 -92.5 29t-41.5 96z" />
<glyph unicode="&#xf0;" horiz-adv-x="1036" d="M61 387q0 108 42 212t130 177q67 57 135 80t167 23q48 0 131 -39q-19 101 -59 200t-83 152l-268 -148q-18 -11 -27 7l-28 53q-7 14 6 22l258 140q-39 45 -100 93t-99 68q-14 8 -14 17q0 8 4 16l20 39q3 10 11 10q4 0 16 -4q158 -55 307 -166l219 117q21 11 31 -6l27 -51 q10 -16 -8 -27l-189 -100q58 -58 105 -125q159 -225 172 -557q3 -85 -9 -167.5t-46.5 -165.5t-88 -145.5t-142 -101.5t-200.5 -39q-94 0 -149 14.5t-117 63.5q-154 122 -154 338zM336 494q0 -93 22 -194.5t52 -149.5q56 -95 137 -95q47 0 80 36.5t47 89.5t14 116 q0 112 -0.5 159.5t-6 114t-17.5 99.5q-23 66 -58.5 95.5t-89.5 29.5q-76 0 -125 -60q-32 -40 -43.5 -97.5t-11.5 -143.5z" />
<glyph unicode="&#xf1;" horiz-adv-x="1157" d="M51 717v18q0 13 19 21l262 118q40 15 47 15q9 0 17.5 -7.5t11.5 -17.5l22 -88h16q35 41 99 74q70 39 157 39q148 0 211 -58q60 -56 76.5 -102.5t16.5 -130.5v-217q0 -76 -9 -238q-1 -40 15 -55.5t35 -15.5h55q22 0 22 -19v-37q0 -22 -16 -22q-2 0 -29 1.5t-84 3t-129 1.5 q-60 0 -110 -1.5t-76.5 -3t-28.5 -1.5q-16 0 -16 22v37q0 19 27 19h22q32 0 37 47q12 79 12 213v219q0 66 -9.5 104.5t-39.5 65.5q-41 37 -100 37q-51 0 -105 -41q-41 -30 -41 -158l-4 -420q0 -28 9.5 -47.5t23.5 -19.5h27q20 0 20 -21v-39q0 -18 -14 -18q-2 0 -26 1.5 t-71.5 3t-107.5 1.5q-64 0 -116.5 -1.5t-79 -3t-27.5 -1.5q-15 0 -15 18v41q0 19 21 19h31q57 0 57 41v454q0 79 -82 119l-18 8q-15 8 -15 23zM324 1047q14 84 61 140t109 56q20 0 44 -4t40 -8.5t40 -11.5t31 -9l37.5 -10t34.5 -9.5t26.5 -6t24.5 -2.5q54 0 68 63 q3 12 14 12h35q13 0 6 -36q-14 -71 -57 -127t-109 -56q-25 0 -50.5 4t-39 7.5t-39.5 11.5t-31 10q-83 27 -108 27q-27 0 -50 -20t-30 -56q-3 -10 -14 -10h-37q-14 0 -6 35z" />
<glyph unicode="&#xf2;" horiz-adv-x="1075" d="M61 444q0 79 45.5 176.5t131.5 163.5q133 105 305 105q103 0 180.5 -31.5t148.5 -97.5q142 -128 142 -326q0 -178 -131 -319q-138 -144 -357 -144q-118 0 -199.5 32t-156.5 118q-109 120 -109 323zM270.5 1248.5q-4.5 42.5 22.5 74t69 31.5q59 0 103 -70l151 -250 q6 -10 0 -16l-28 -23q-6 -7 -15 2l-258 181q-40 28 -44.5 70.5zM352 430q0 -94 10.5 -158t40.5 -127q22 -45 52 -66.5t84 -21.5q81 0 122 107t41 285q0 170 -50 262t-122 92q-74 0 -110 -55q-68 -104 -68 -318z" />
<glyph unicode="&#xf3;" horiz-adv-x="1075" d="M61 444q0 79 45.5 176.5t131.5 163.5q133 105 305 105q103 0 180.5 -31.5t148.5 -97.5q142 -128 142 -326q0 -178 -131 -319q-138 -144 -357 -144q-118 0 -199.5 32t-156.5 118q-109 120 -109 323zM352 430q0 -94 10.5 -158t40.5 -127q22 -45 52 -66.5t84 -21.5 q81 0 122 107t41 285q0 170 -50 262t-122 92q-74 0 -110 -55q-68 -104 -68 -318zM489 1018q-6 6 0 16l152 250q44 70 102 70q43 0 70 -31.5t22.5 -74t-44.5 -70.5l-259 -181q-8 -8 -14 -2z" />
<glyph unicode="&#xf4;" horiz-adv-x="1075" d="M61 444q0 79 45.5 176.5t131.5 163.5q133 105 305 105q103 0 180.5 -31.5t148.5 -97.5q142 -128 142 -326q0 -178 -131 -319q-138 -144 -357 -144q-118 0 -199.5 32t-156.5 118q-109 120 -109 323zM287 1018q-7 7 6 20l217 289q14 19 22 19q10 0 27 -21l225 -289 q10 -10 4 -16l-16 -19q-6 -10 -18 -4l-224 131l-206 -127q-13 -8 -19 -2zM352 430q0 -94 10.5 -158t40.5 -127q22 -45 52 -66.5t84 -21.5q81 0 122 107t41 285q0 170 -50 262t-122 92q-74 0 -110 -55q-68 -104 -68 -318z" />
<glyph unicode="&#xf5;" horiz-adv-x="1075" d="M61 444q0 79 45.5 176.5t131.5 163.5q133 105 305 105q103 0 180.5 -31.5t148.5 -97.5q142 -128 142 -326q0 -178 -131 -319q-138 -144 -357 -144q-118 0 -199.5 32t-156.5 118q-109 120 -109 323zM252 1047q14 84 61 140t109 56q20 0 44.5 -4t40.5 -8.5t40 -11.5t31 -9 q15 -4 37 -10t34.5 -9.5t26.5 -6t24 -2.5q54 0 68 63q3 12 14 12h35q13 0 6 -36q-14 -71 -57 -127t-109 -56q-25 0 -50 4t-39 7.5t-39 11.5t-31 10q-83 27 -109 27q-27 0 -50 -20t-30 -56q-3 -10 -14 -10h-37q-14 0 -6 35zM352 430q0 -94 10.5 -158t40.5 -127 q22 -45 52 -66.5t84 -21.5q81 0 122 107t41 285q0 170 -50 262t-122 92q-74 0 -110 -55q-68 -104 -68 -318z" />
<glyph unicode="&#xf6;" horiz-adv-x="1075" d="M61 444q0 79 45.5 176.5t131.5 163.5q133 105 305 105q103 0 180.5 -31.5t148.5 -97.5q142 -128 142 -326q0 -178 -131 -319q-138 -144 -357 -144q-118 0 -199.5 32t-156.5 118q-109 120 -109 323zM225 1176q0 40 31 78t100 38q50 0 84.5 -33.5t34.5 -93.5 q0 -53 -33.5 -83.5t-85.5 -30.5q-51 0 -91 29t-40 96zM352 430q0 -94 10.5 -158t40.5 -127q22 -45 52 -66.5t84 -21.5q81 0 122 107t41 285q0 170 -50 262t-122 92q-74 0 -110 -55q-68 -104 -68 -318zM604 1176q0 40 31.5 78t101.5 38q49 0 82 -33.5t33 -93.5q0 -52 -33 -83 t-82 -31q-51 0 -92 29t-41 96z" />
<glyph unicode="&#xf7;" d="M106 428v156h814v-156h-814zM387 186q0 54 36.5 87.5t90.5 33.5t89.5 -33.5t35.5 -87.5t-35.5 -85t-89.5 -31q-55 0 -91 31t-36 85zM387 823q0 51 36.5 85t90.5 34q53 0 89 -34t36 -85q0 -50 -35 -84t-90 -34q-58 0 -92.5 33.5t-34.5 84.5z" />
<glyph unicode="&#xf8;" horiz-adv-x="1075" d="M61 453q0 77 41.5 169t133.5 164q131 103 307 103q93 0 156.5 -22t123.5 -64l72 76q12 12 20 4l46 -41q10 -10 4 -19l-74 -75q123 -135 123 -322q0 -180 -135 -315q-134 -140 -353 -140q-93 0 -160 19t-133 65l-75 -78q-8 -8 -19 3l-39 38q-8 8 2 21l70 76 q-55 64 -83 139.5t-28 198.5zM346 434q0 -96 14 -141l314 364q-8 56 -51.5 101t-94.5 45q-66 0 -100 -49q-43 -56 -62.5 -129t-19.5 -191zM383 197q30 -76 66.5 -108t89.5 -32q73 0 121.5 111.5t48.5 280.5q0 54 -9 110z" />
<glyph unicode="&#xf9;" horiz-adv-x="1120" d="M23 803v41q0 9 4.5 12.5t17.5 3.5h299q13 0 29 4q4 0 11.5 1t10.5 1q11 0 17.5 -7t5.5 -17q-8 -72 -8 -277v-110q0 -8 -1 -54.5t0 -71.5t4 -65.5t12.5 -71t23.5 -53.5q5 -7 10 -12.5t9 -10t9.5 -7.5t9 -5.5t10.5 -4t9.5 -2t10.5 -1t10 -0.5h11h11q26 0 56.5 18.5 t53.5 47.5q13 15 23 37t10 37l-2 481q0 64 -88 71q-35 3 -35 15v39q0 12 4.5 15t20.5 3h305q15 0 35 4q6 0 14 1t10 1q9 0 15 -6t4 -14q-12 -108 -12 -279v-151q0 -199 4 -236q3 -29 11 -46t14 -21t12 -4q42 0 67 6q21 5 25 -9l6 -38q3 -14 -10 -17l-287 -71q-27 -9 -45 -9 q-31 0 -35 25l-12 110h-13q-31 -55 -109.5 -95t-160.5 -40q-39 0 -59.5 2t-50 10t-54.5 28.5t-51 54.5q-13 17 -23 34t-18 29.5t-14 31.5t-10 28.5t-6.5 32t-4 31.5t-2 37t-0.5 37.5v45.5v49l2 90q0 160 -2 205q-1 33 -22.5 50t-46.5 21q-7 1 -18 3q-10 1 -13.5 2t-7.5 2 t-5 3t-1 5zM293.5 1248.5q-4.5 42.5 22.5 74t69 31.5q58 0 102 -70l152 -250q6 -10 0 -16l-29 -23q-6 -6 -14 2l-258 181q-40 28 -44.5 70.5z" />
<glyph unicode="&#xfa;" horiz-adv-x="1120" d="M23 803v41q0 9 4.5 12.5t17.5 3.5h299q13 0 29 4q4 0 11.5 1t10.5 1q11 0 17.5 -7t5.5 -17q-8 -72 -8 -277v-110q0 -8 -1 -54.5t0 -71.5t4 -65.5t12.5 -71t23.5 -53.5q5 -7 10 -12.5t9 -10t9.5 -7.5t9 -5.5t10.5 -4t9.5 -2t10.5 -1t10 -0.5h11h11q26 0 56.5 18.5 t53.5 47.5q13 15 23 37t10 37l-2 481q0 64 -88 71q-35 3 -35 15v39q0 12 4.5 15t20.5 3h305q15 0 35 4q6 0 14 1t10 1q9 0 15 -6t4 -14q-12 -108 -12 -279v-151q0 -199 4 -236q3 -29 11 -46t14 -21t12 -4q42 0 67 6q21 5 25 -9l6 -38q3 -14 -10 -17l-287 -71q-27 -9 -45 -9 q-31 0 -35 25l-12 110h-13q-31 -55 -109.5 -95t-160.5 -40q-39 0 -59.5 2t-50 10t-54.5 28.5t-51 54.5q-13 17 -23 34t-18 29.5t-14 31.5t-10 28.5t-6.5 32t-4 31.5t-2 37t-0.5 37.5v45.5v49l2 90q0 160 -2 205q-1 33 -22.5 50t-46.5 21q-7 1 -18 3q-10 1 -13.5 2t-7.5 2 t-5 3t-1 5zM471 1018q-6 6 0 16l152 250q44 70 102 70q43 0 70 -31.5t22 -74t-45 -70.5l-258 -181q-8 -8 -14 -2z" />
<glyph unicode="&#xfb;" horiz-adv-x="1120" d="M23 803v41q0 9 4.5 12.5t17.5 3.5h299q13 0 29 4q4 0 11.5 1t10.5 1q11 0 17.5 -7t5.5 -17q-8 -72 -8 -277v-110q0 -8 -1 -54.5t0 -71.5t4 -65.5t12.5 -71t23.5 -53.5q5 -7 10 -12.5t9 -10t9.5 -7.5t9 -5.5t10.5 -4t9.5 -2t10.5 -1t10 -0.5h11h11q26 0 56.5 18.5 t53.5 47.5q13 15 23 37t10 37l-2 481q0 64 -88 71q-35 3 -35 15v39q0 12 4.5 15t20.5 3h305q15 0 35 4q6 0 14 1t10 1q9 0 15 -6t4 -14q-12 -108 -12 -279v-151q0 -199 4 -236q3 -29 11 -46t14 -21t12 -4q42 0 67 6q21 5 25 -9l6 -38q3 -14 -10 -17l-287 -71q-27 -9 -45 -9 q-31 0 -35 25l-12 110h-13q-31 -55 -109.5 -95t-160.5 -40q-39 0 -59.5 2t-50 10t-54.5 28.5t-51 54.5q-13 17 -23 34t-18 29.5t-14 31.5t-10 28.5t-6.5 32t-4 31.5t-2 37t-0.5 37.5v45.5v49l2 90q0 160 -2 205q-1 33 -22.5 50t-46.5 21q-7 1 -18 3q-10 1 -13.5 2t-7.5 2 t-5 3t-1 5zM309 1018q-7 7 6 20l217 289q14 19 23 19q10 0 27 -21l225 -289q10 -10 4 -16l-16 -19q-7 -10 -19 -4l-223 131l-207 -127q-12 -8 -18 -2z" />
<glyph unicode="&#xfc;" horiz-adv-x="1120" d="M23 803v41q0 9 4.5 12.5t17.5 3.5h299q13 0 29 4q4 0 11.5 1t10.5 1q11 0 17.5 -7t5.5 -17q-8 -72 -8 -277v-110q0 -8 -1 -54.5t0 -71.5t4 -65.5t12.5 -71t23.5 -53.5q5 -7 10 -12.5t9 -10t9.5 -7.5t9 -5.5t10.5 -4t9.5 -2t10.5 -1t10 -0.5h11h11q26 0 56.5 18.5 t53.5 47.5q13 15 23 37t10 37l-2 481q0 64 -88 71q-35 3 -35 15v39q0 12 4.5 15t20.5 3h305q15 0 35 4q6 0 14 1t10 1q9 0 15 -6t4 -14q-12 -108 -12 -279v-151q0 -199 4 -236q3 -29 11 -46t14 -21t12 -4q42 0 67 6q21 5 25 -9l6 -38q3 -14 -10 -17l-287 -71q-27 -9 -45 -9 q-31 0 -35 25l-12 110h-13q-31 -55 -109.5 -95t-160.5 -40q-39 0 -59.5 2t-50 10t-54.5 28.5t-51 54.5q-42 56 -59.5 104.5t-19.5 106.5t1 145l2 90q3 101 -2 205q-1 33 -22.5 50t-46.5 21q-7 1 -18 3q-10 1 -13.5 2t-7.5 2t-5 3t-1 5zM227 1176q0 40 31 78t100 38 q50 0 84.5 -33.5t34.5 -93.5q0 -53 -33.5 -83.5t-85.5 -30.5q-51 0 -91 29t-40 96zM606 1176q0 40 31.5 78t101.5 38q49 0 82 -33.5t33 -93.5q0 -52 -33 -83t-82 -31q-51 0 -92 29t-41 96z" />
<glyph unicode="&#xfd;" horiz-adv-x="905" d="M-41 807v45q0 14 16 14q3 0 28.5 -1.5t82 -3t135.5 -1.5q55 0 102 1.5t74.5 3t34.5 1.5q11 0 15 -4t4 -14v-43q0 -17 -13 -17h-28q-19 0 -29.5 -12t-7.5 -35q4 -23 62 -224.5t73 -250.5h10q36 83 100 246t74 195q11 39 -3.5 60t-47.5 21h-33q-14 0 -14 17v45q0 16 12 16 q2 0 59 -3t126 -3q51 0 101 3t54 3q12 0 12 -20v-39q0 -19 -10 -19h-22q-46 0 -76 -40q-39 -52 -336 -691q-195 -418 -231 -479q-15 -25 -22 -36t-26.5 -34t-37 -34t-46 -21t-61.5 -10q-56 0 -91.5 31.5t-35.5 87.5q0 50 30 83t70 33q47 0 87 -22q38 -25 65 -8q14 10 73 131 t79 178q-10 46 -133.5 358.5t-153.5 384.5q-35 88 -72 88h-33q-16 0 -16 19zM485 1018q-6 6 0 16l152 250q44 70 102 70q43 0 70 -31.5t22 -74t-45 -70.5l-258 -181q-8 -8 -14 -2z" />
<glyph unicode="&#xfe;" horiz-adv-x="1105" d="M31 1243v27q0 9 14 12q193 48 291 96q44 21 57 21q23 0 23 -43l-6 -578l8 -4q51 49 121.5 82t138.5 33q93 0 151.5 -27t104.5 -78q68 -76 89 -130t21 -171q0 -136 -57.5 -252.5t-167 -188t-246.5 -71.5q-90 0 -149 33l4 -313q1 -81 9.5 -119.5t21.5 -47.5t41 -9h51 q18 0 18 -21v-39q0 -18 -18 -18q-2 0 -13 0.5t-31.5 1.5t-49 2t-73 1.5t-95.5 0.5q-66 0 -121.5 -1.5t-84.5 -3t-32 -1.5q-18 0 -18 18v43q0 17 14 17h59q49 0 52 53q4 45 4 223l-8 1266q0 62 -12.5 98.5t-51.5 52.5l-45 17q-14 6 -14 18zM426 213q0 -78 55 -117 q67 -45 117 -45q170 0 170 285q0 94 -17 182.5t-44 136.5q-53 95 -138 95q-91 0 -141 -58z" />
<glyph unicode="&#xff;" horiz-adv-x="905" d="M-41 807v45q0 14 16 14q3 0 28.5 -1.5t82 -3t135.5 -1.5q55 0 102 1.5t74.5 3t34.5 1.5q11 0 15 -4t4 -14v-43q0 -17 -13 -17h-28q-19 0 -29.5 -12t-7.5 -35q4 -23 62 -224.5t73 -250.5h10q36 83 100 246t74 195q11 39 -3.5 60t-47.5 21h-33q-14 0 -14 17v45q0 16 12 16 q2 0 59 -3t126 -3q51 0 101 3t54 3q12 0 12 -20v-39q0 -19 -10 -19h-22q-46 0 -76 -40q-39 -52 -336 -691q-195 -418 -231 -479q-15 -25 -22 -36t-26.5 -34t-37 -34t-46 -21t-61.5 -10q-56 0 -91.5 31.5t-35.5 87.5q0 50 30 83t70 33q47 0 87 -22q38 -25 65 -8q14 10 73 131 t79 178q-10 46 -133.5 358.5t-153.5 384.5q-35 88 -72 88h-33q-16 0 -16 19zM190 1176q0 40 31.5 78t100.5 38q50 0 84 -33.5t34 -93.5q0 -53 -33 -83.5t-85 -30.5q-51 0 -91.5 29t-40.5 96zM569 1176q0 40 31.5 78t101.5 38q49 0 82 -33.5t33 -93.5q0 -52 -33 -83t-82 -31 q-51 0 -92 29t-41 96z" />
<glyph unicode="&#x152;" horiz-adv-x="2371" d="M104 711q0 280 191 510q65 79 140 132.5t155.5 80t153 37t157.5 10.5q53 0 238 -15q148 -16 207 -16h718q22 0 50 4q10 0 21 1l11 1q14 0 17 -10t22.5 -90t38.5 -155.5t23 -84.5q5 -13 -6 -20l-33 -17q-16 -8 -25 8q-10 15 -109.5 113t-131.5 117q-83 52 -156 55l-270 8 l-7 -596q155 0 209 13q51 12 94 63q19 25 33.5 62t14.5 65q0 19 16 19l55 -7q6 -1 9.5 -2.5t6 -4.5t1.5 -9q-6 -35 -6 -213q0 -104 12 -233q2 -13 -17 -17l-49 -10q-6 -2 -9.5 2t-6.5 14q-10 40 -41 105q-16 28 -48 47t-65 24q-89 13 -209 13v-123q0 -65 5.5 -201t5.5 -145 q0 -134 49 -156q47 -18 172 -18q100 0 164 6q82 8 155 67q35 29 102 100.5t107 119.5q12 12 21 6l34 -21q12 -6 9 -16l-92 -309q-10 -31 -46 -31q-3 0 -21.5 0.5t-63 1.5t-101.5 2q-37 0 -264 1t-430 1q-53 0 -207 -14q-140 -17 -211 -17q-270 0 -491 133q-56 34 -108.5 91 t-96.5 133.5t-70.5 176.5t-26.5 208zM432 774q0 -126 21 -233.5t58 -182.5t83 -133t99.5 -92t105.5 -50.5t102 -16.5q133 0 221 67.5t88 147.5v905q-25 71 -79.5 117.5t-113.5 63.5t-124 17h-19.5h-23t-24 -1t-27.5 -3t-28.5 -6t-31 -9t-31 -13.5t-34 -19.5t-33.5 -25.5 t-35 -32.5q-81 -84 -127.5 -225.5t-46.5 -274.5z" />
<glyph unicode="&#x153;" horiz-adv-x="1552" d="M61 453q0 72 43.5 163t131.5 166q125 107 303 107q194 0 284 -131q60 69 140 100t194 31q69 0 126.5 -23.5t94.5 -60.5t63 -84t37 -91.5t11 -84.5q0 -35 -45 -35h-483q-3 -35 -3 -59q0 -153 76 -233.5t207 -80.5q70 0 123 29t84 76q7 11 20 6l37 -23q17 -8 4 -30 q-20 -33 -37 -56.5t-52 -57.5t-73 -56t-97 -38t-128 -16q-115 0 -189.5 32t-127.5 93h-10q-42 -62 -117 -93.5t-170 -31.5q-103 0 -180.5 31t-157.5 123q-62 71 -85.5 145.5t-23.5 182.5zM352 434q0 -107 9.5 -169t46.5 -130q22 -39 48 -58.5t76 -19.5q43 0 75 30.5t50 85.5 t26.5 123.5t8.5 152.5q0 173 -45.5 263.5t-124.5 90.5q-77 0 -110 -62q-60 -107 -60 -307zM963 588h202q27 1 41.5 13.5t14.5 27.5q0 178 -115 178q-121 -4 -143 -219z" />
<glyph unicode="&#x178;" horiz-adv-x="1255" d="M-106 1386v58q0 12 14 12q3 0 40.5 -1.5t107 -3t149.5 -1.5q93 0 164 1.5t104.5 3t36.5 1.5q14 0 14 -14v-51q0 -19 -14 -19h-47q-22 0 -35.5 -14.5t-13.5 -38.5q0 -16 61 -142.5t140.5 -284.5t97.5 -198q9 17 54 98t82 149.5t79.5 150t67 137.5t24.5 74q0 27 -23 48 t-55 21h-55q-15 0 -15 19v53q0 12 15 12q5 0 38 -1.5t92 -3t126 -1.5q62 0 108.5 1.5t69.5 3t27 1.5q10 0 13 -3.5t3 -12.5v-49q0 -19 -16 -19h-37q-25 0 -60.5 -12t-56.5 -37q-22 -27 -196.5 -315.5t-233.5 -399.5v-227q0 -159 8 -231q4 -45 21.5 -58.5t48.5 -13.5h59 q14 0 14 -15v-51q0 -10 -2 -14t-12 -4q-6 0 -41 1.5t-103 3t-153 1.5q-94 0 -162.5 -1.5t-100.5 -3t-36 -1.5q-12 0 -12 20v49q0 15 14 15h72q69 0 72 47q6 87 6 381v88q-44 85 -211.5 385.5t-200.5 345.5q-18 22 -48.5 34.5t-57.5 12.5h-31q-14 0 -14 14zM356 1739 q0 40 33 78t103 38q49 0 82.5 -32.5t33.5 -91.5q0 -48 -34.5 -83.5t-81.5 -35.5q-32 0 -60.5 9.5t-52 40t-23.5 77.5zM811 1739q0 40 32.5 78t102.5 38q50 0 84.5 -32.5t34.5 -91.5q0 -48 -34.5 -83.5t-84.5 -35.5q-23 0 -44.5 6t-43 19t-34.5 39.5t-13 62.5z" />
<glyph unicode="&#x2c6;" horiz-adv-x="628" d="M63 1018q-7 6 7 20l217 289q14 19 22 19q10 0 27 -21l225 -289q10 -10 4 -16l-16 -19q-7 -10 -19 -4l-223 131l-207 -127q-12 -8 -18 -2z" />
<glyph unicode="&#x2dc;" horiz-adv-x="698" d="M63 1047q14 84 61 140t109 56q20 0 44.5 -4t40.5 -8.5t40 -11.5t31 -9l37.5 -10t34.5 -9.5t26.5 -6t24.5 -2.5q54 0 68 63q3 12 14 12h35q13 0 6 -36q-14 -71 -57 -127t-109 -56q-25 0 -50.5 4t-39 7.5t-39.5 11.5t-31 10q-83 27 -108 27q-27 0 -50 -20t-30 -56 q-3 -10 -15 -10h-36q-15 0 -7 35z" />
<glyph unicode="&#x2000;" horiz-adv-x="969" />
<glyph unicode="&#x2001;" horiz-adv-x="1939" />
<glyph unicode="&#x2002;" horiz-adv-x="969" />
<glyph unicode="&#x2003;" horiz-adv-x="1939" />
<glyph unicode="&#x2004;" horiz-adv-x="646" />
<glyph unicode="&#x2005;" horiz-adv-x="484" />
<glyph unicode="&#x2006;" horiz-adv-x="323" />
<glyph unicode="&#x2007;" horiz-adv-x="323" />
<glyph unicode="&#x2008;" horiz-adv-x="242" />
<glyph unicode="&#x2009;" horiz-adv-x="387" />
<glyph unicode="&#x200a;" horiz-adv-x="107" />
<glyph unicode="&#x2010;" horiz-adv-x="819" d="M102 483v131q0 15 19 15h571q25 0 25 -23v-119q0 -14 -21 -14h-577q-17 0 -17 10z" />
<glyph unicode="&#x2011;" horiz-adv-x="819" d="M102 483v131q0 15 19 15h571q25 0 25 -23v-119q0 -14 -21 -14h-577q-17 0 -17 10z" />
<glyph unicode="&#x2012;" horiz-adv-x="819" d="M102 483v131q0 15 19 15h571q25 0 25 -23v-119q0 -14 -21 -14h-577q-17 0 -17 10z" />
<glyph unicode="&#x2013;" d="M0 473v156h1024v-156h-1024z" />
<glyph unicode="&#x2014;" horiz-adv-x="2048" d="M0 473v156h2048v-156h-2048z" />
<glyph unicode="&#x2018;" horiz-adv-x="409" d="M25 1098q0 61 21 118.5t50 97.5t64.5 73.5t57.5 49.5t36 23q40 21 57 21q21 0 21 -17q0 -13 -21 -30q-29 -20 -68.5 -90.5t-39.5 -137.5q0 -20 9 -36.5t21 -22.5q1 -1 17 -7.5t28 -14.5t27.5 -22t24 -38t8.5 -55q0 -48 -35 -83.5t-88 -35.5q-76 0 -133 55.5t-57 151.5z " />
<glyph unicode="&#x2019;" horiz-adv-x="409" d="M72 1362q0 48 35 83.5t88 35.5q76 0 133 -55.5t57 -151.5q0 -61 -21 -119t-50 -97.5t-64 -73.5t-57.5 -50t-36.5 -23q-38 -20 -58 -20t-20 16q0 15 20 31q30 21 69.5 91t39.5 136q0 20 -9 37t-22 23q-1 1 -17 7.5t-28 14.5t-27 22t-23.5 38t-8.5 55z" />
<glyph unicode="&#x201a;" horiz-adv-x="409" d="M72 143q0 48 35 83.5t88 35.5q76 0 133 -55.5t57 -151.5q0 -61 -21 -118.5t-50 -97.5t-64.5 -73.5t-57.5 -49.5t-36 -23q-40 -21 -58 -21q-20 0 -20 17q0 14 20 30q30 20 69.5 91t39.5 137q0 19 -9 36t-22 23q-1 1 -17 7.5t-28 14.5t-27 22t-23.5 38t-8.5 55z" />
<glyph unicode="&#x201c;" horiz-adv-x="819" d="M49 1098q0 61 21.5 118.5t50.5 97t64 73.5t57.5 50t36.5 23q40 21 57 21q20 0 20 -17q0 -14 -20 -30q-30 -20 -69.5 -91t-39.5 -137q0 -19 9 -36t22 -23q1 -1 17 -7.5t28 -14.5t27 -22t23.5 -38t8.5 -55q0 -49 -34.5 -84t-87.5 -35q-76 0 -133.5 55.5t-57.5 151.5z M436 1098q0 61 21.5 118.5t50.5 97t64 73.5t57.5 50t36.5 23q40 21 57 21q20 0 20 -17q0 -14 -20 -30q-30 -20 -69.5 -91t-39.5 -137q0 -19 9 -36t22 -23q1 -1 17 -7.5t28 -14.5t27.5 -22t24 -38t8.5 -55q0 -48 -35 -83.5t-88 -35.5q-76 0 -133.5 55.5t-57.5 151.5z" />
<glyph unicode="&#x201d;" horiz-adv-x="819" d="M70 1362q0 48 35 83.5t88 35.5q76 0 133 -55.5t57 -151.5q0 -61 -21 -119t-50 -97.5t-64 -73.5t-57.5 -50t-36.5 -23q-38 -20 -58 -20t-20 16q0 15 20 31q30 21 69.5 91t39.5 136q0 20 -9 37t-22 23q-1 1 -17 7.5t-28 14.5t-27 22t-23.5 38t-8.5 55zM457 1362 q0 48 35 83.5t88 35.5q76 0 133 -55.5t57 -151.5q0 -61 -21 -119t-50 -97.5t-64 -73.5t-57.5 -50t-36.5 -23q-38 -20 -58 -20t-20 16q0 15 20 31q30 21 69.5 91t39.5 136q0 20 -9 37t-22 23q-1 1 -17 7.5t-28 14.5t-27 22t-23.5 38t-8.5 55z" />
<glyph unicode="&#x201e;" horiz-adv-x="819" d="M70 143q0 48 35 83.5t88 35.5q76 0 133 -55.5t57 -151.5q0 -61 -21 -118.5t-50 -97.5t-64.5 -73.5t-57.5 -49.5t-36 -23q-40 -21 -58 -21q-20 0 -20 17q0 14 20 30q30 20 69.5 91t39.5 137q0 19 -9 36t-22 23q-1 1 -17 7.5t-28 14.5t-27 22t-23.5 38t-8.5 55zM457 143 q0 48 35 83.5t88 35.5q76 0 133 -55.5t57 -151.5q0 -61 -21 -118.5t-50 -97.5t-64.5 -73.5t-57.5 -49.5t-36 -23q-40 -21 -58 -21q-20 0 -20 17q0 14 20 30q30 20 69.5 91t39.5 137q0 19 -9 36t-22 23q-1 1 -17 7.5t-28 14.5t-27 22t-23.5 38t-8.5 55z" />
<glyph unicode="&#x2022;" horiz-adv-x="696" d="M63 737q0 129 85.5 206t201.5 77q115 0 199 -75.5t84 -207.5q0 -123 -86 -196.5t-203 -73.5q-110 0 -195.5 74.5t-85.5 195.5z" />
<glyph unicode="&#x2026;" horiz-adv-x="2048" d="M178 133q0 55 43 105.5t123 50.5q66 0 112 -46t46 -118q0 -68 -44.5 -111t-111.5 -43q-72 0 -120 46t-48 116zM862 133q0 55 43 105.5t123 50.5q66 0 112 -46t46 -118q0 -68 -44.5 -111t-111.5 -43q-72 0 -120 46t-48 116zM1546 133q0 55 43 105.5t123 50.5q66 0 112 -46 t46 -118q0 -68 -44.5 -111t-111.5 -43q-72 0 -120 46t-48 116z" />
<glyph unicode="&#x202f;" horiz-adv-x="387" />
<glyph unicode="&#x2039;" horiz-adv-x="552" d="M57 436q0 9 19 23l317 307q8 8 13 8q4 0 10 -6l49 -33q6 -6 6 -8l-6 -12l-148 -281l148 -282q6 -9 6 -13q0 -5 -6 -8l-51 -35q-2 -2 -8 -2q-3 0 -15 8l-317 310q-17 17 -17 24z" />
<glyph unicode="&#x203a;" horiz-adv-x="552" d="M82 141q0 1 6 13l148 280l-148 283q-6 9 -6 12q0 5 6 8l51 35q2 2 8 2q3 0 15 -8l317 -309q17 -17 17 -25t-19 -22l-317 -308q-8 -8 -13 -8q-4 0 -10 6l-49 33q-6 6 -6 8z" />
<glyph unicode="&#x205f;" horiz-adv-x="484" />
<glyph unicode="&#x20ac;" d="M20 530l21 60q3 12 12 12h113q-2 23 -2 82q0 65 2 94h-121q-15 0 -12 13l18 59q1 2 2.5 4.5t2 4t2.5 2.5t5 1h111q24 169 113 322q60 102 151 158.5t195 56.5q51 0 93.5 -13t59 -23t46.5 -37l30 -26q14 -13 24 -10t13 19l8 45q2 12 27 12q13 0 18.5 -6.5t5.5 -26.5 q0 -25 10 -157t15 -185q3 -17 -4 -20l-35 -8q-5 1 -7.5 0t-6 4.5t-5 8t-4 10t-3.5 9.5q-5 13 -18 48t-20.5 54t-22.5 52t-27 52t-31.5 43.5t-39 38t-45.5 23t-55 9.5q-187 0 -204 -453h413q9 0 14 -3.5t3 -8.5l-19 -53q-5 -19 -18 -19h-397q0 -13 -1 -46t-1 -48q0 -13 1 -42 t1 -40h329q9 0 13.5 -3t3.5 -9l-19 -55q-4 -17 -16 -17h-309q7 -232 63.5 -348.5t147.5 -116.5q37 0 69 15t57.5 44.5t45 59t37.5 74t28 73.5t23 72q9 22 22 19l33 -11q7 -3 4 -20q-5 -52 -15 -186t-10 -160q0 -23 -5 -28t-19 -5h-5q-8 0 -11.5 0.5t-6.5 3t-4 8.5l-10 56 q-7 27 -35 2q-58 -52 -93 -71q-59 -30 -130 -30q-107 0 -199.5 56.5t-152.5 158.5q-91 157 -115 334h-139q-9 0 -12 3t-1 9z" />
<glyph unicode="&#x2122;" horiz-adv-x="1863" d="M10 1260q3 21 10 56.5t13.5 64.5t12 55.5t5.5 27.5q3 17 15 17q10 0 18 -8q27 -20 80 -23q153 -6 205 -6q64 0 229 6q53 0 78 25q6 6 16 6t13 -17q0 -2 24 -209q0 -7 -10 -10l-33 -6q-10 -2 -16 10q-9 25 -37 65t-53 56q-29 16 -109 16v-270v-301q3 -22 11 -31.5t26 -9.5 h45q10 0 10 -12v-39q0 -8 -10 -8q-2 0 -33 0.5t-75.5 1t-79.5 0.5q-28 0 -69.5 -0.5t-73.5 -1t-36 -0.5q-12 0 -12 10v37q0 12 10 12h47q33 0 37 23v589q-72 0 -98 -10q-54 -24 -100 -125q0 -15 -15 -10l-39 8q-6 2 -6 11zM764 727v33q0 14 8 14h25q24 0 42 24.5t23 55.5 q7 51 12 167.5t5 152.5v163q0 58 -58 58h-33q-6 0 -6 10v37q0 12 9 12q2 0 22.5 -1t51 -2t55.5 -1q45 0 109.5 2t74.5 2q18 0 24.5 -3.5t10.5 -16.5l151 -402l156 400q8 18 24 18h271q16 0 16 -8v-33q0 -14 -8 -14h-20q-21 0 -28 -10.5t-7 -32.5q0 -8 -2 -134t-2 -137 q0 -12 2 -127t2 -125q0 -55 35 -55h38q9 0 9 -12v-35q0 -12 -11 -12q-4 0 -33.5 0.5t-70.5 1t-74 0.5q-27 0 -67 -0.5t-70 -1t-33 -0.5q-10 0 -10 12v33q0 14 10 14h41q32 0 39 37q2 18 2 256v274h-8l-240 -585q-15 -25 -26 -25q-25 0 -33 19l-231 589h-13v-239 q0 -210 2 -234q3 -43 21 -67.5t47 -24.5h24q9 0 9 -14v-33q0 -10 -11 -10h-131q-19 0 -76 -1t-59 -1q-1 0 -3 1q-5 1 -6 4v2q-1 3 -1 5z" />
<glyph unicode="&#xe000;" horiz-adv-x="870" d="M0 0v870h870v-870h-870z" />
<glyph unicode="&#xfb01;" horiz-adv-x="1185" d="M35 12v45q0 15 20 15h78q45 0 45 67l-6 613h-123q-15 0 -12 24l6 70q2 14 25 14h104v62q0 308 188 462q152 125 365 125q128 0 199 -42t71 -113q0 -46 -41 -83.5t-100 -37.5q-54 0 -86.5 23.5t-71.5 76.5q-47 68 -98 68q-77 0 -106 -39q-18 -24 -27.5 -54.5t-12.5 -78.5 t-3 -87t2 -116.5t2 -130.5v-35h276q70 0 172 8q27 2 66 7.5t47 5.5q24 0 20 -25q-4 -35 -4 -336l-2 -219q0 -29 -0.5 -73t-0.5 -68.5t1 -34.5q3 -29 11.5 -41t25.5 -12h63q21 0 21 -19v-39q0 -20 -19 -20q-4 0 -36.5 1.5t-83.5 3t-99 1.5q-63 0 -135.5 -3t-73.5 -3 q-16 0 -16 20v41q0 17 21 17h8q19 0 28.5 9t10.5 32q4 61 4 182l4 381q0 40 -30.5 58t-100.5 18h-178l-2 -179q-3 -388 -2 -438q1 -32 15.5 -47.5t35.5 -15.5h18q23 0 23 -17v-41q0 -20 -15 -20q-1 0 -30 1.5t-83 3t-116 1.5q-55 0 -112.5 -1.5t-93.5 -3t-40 -1.5 q-16 0 -16 18z" />
<glyph unicode="&#xfb02;" horiz-adv-x="1196" d="M35 12v45q0 15 20 15h68q55 0 55 67l-6 613h-123q-14 0 -12 22l6 72q2 14 25 14h104v62q0 121 20 207.5t52 137.5t84 99q85 76 175.5 109.5t223.5 33.5q151 0 254 -30q34 -9 48 -21t13 -33q-10 -143 -10 -632l-2 -383q0 -246 2 -275q2 -30 13.5 -46.5t41.5 -16.5h62 q22 0 22 -19v-39q0 -20 -12 -20q-3 0 -35 1.5t-87 3t-113 1.5q-60 0 -115 -1.5t-87 -3t-36 -1.5q-14 0 -14 24v35q0 11 4 15t16 4h19q49 0 49 88v592h-307l-2 -179q-3 -388 -2 -438q3 -63 36 -63h37q23 0 23 -17v-41q0 -20 -15 -20q-1 0 -30.5 1.5t-87 3t-127.5 1.5 q-50 0 -104.5 -1.5t-90 -3t-39.5 -1.5q-16 0 -16 18zM453 860h307l4 266q2 118 -4.5 163t-32.5 73q-45 45 -121 45q-83 0 -114 -55q-19 -34 -27.5 -104t-10 -137t-1.5 -216v-35z" />
</font>
</defs>
</svg>
